{
classes = (
{
automatic = 1;
code = "A B C D E F G H I J K L M N O P Q R S T U V W X Y Z Agrave Aacute Acircumflex Atilde Adieresis Aring AE Ccedilla Egrave Eacute Ecircumflex Edieresis Igrave Iacute Icircumflex Idieresis Eth Ntilde Ograve Oacute Ocircumflex Otilde Odieresis Oslash Ugrave Uacute Ucircumflex Udieresis Yacute Thorn Cacute Ccaron Gbreve Idotaccent Lslash OE Scedilla Scaron Ydieresis Zcaron Omega Delta";
name = Uppercase;
}
);
copyright = "OpenDyslexic(open-dyslexic) by Abelardo Gonzalez is licensed under a Creative Commons Attribution 3.0 Unported License.\012Based on a work at dyslexicfonts.com.\012Permissions beyond the scope of this license may be available at http://dyslexicfonts.com/license.php.";
customParameters = (
{
name = glyphOrder;
value = (
    ".notdef",
    uni0000,
    uni000D,
    NULL,
    space,
    exclam,
    quotedbl,
    numbersign,
    dollar,
    percent,
    ampersand,
    quotesingle,
    parenleft,
    parenright,
    asterisk,
    plus,
    comma,
    hyphen,
    period,
    slash,
    zero,
    one,
    two,
    three,
    four,
    five,
    six,
    seven,
    eight,
    nine,
    colon,
    semicolon,
    less,
    equal,
    greater,
    question,
    at,
    A,
    B,
    C,
    D,
    E,
    F,
    G,
    H,
    I,
    J,
    K,
    L,
    M,
    N,
    O,
    P,
    Q,
    R,
    S,
    T,
    U,
    V,
    W,
    X,
    Y,
    Z,
    bracketleft,
    backslash,
    bracketright,
    asciicircum,
    underscore,
    grave,
    a,
    b,
    c,
    d,
    e,
    f,
    g,
    h,
    i,
    j,
    k,
    l,
    m,
    n,
    o,
    p,
    q,
    r,
    s,
    t,
    u,
    v,
    w,
    x,
    y,
    z,
    braceleft,
    bar,
    braceright,
    asciitilde,
    uni00A0,
    exclamdown,
    cent,
    sterling,
    currency,
    yen,
    brokenbar,
    section,
    dieresis,
    copyright,
    ordfeminine,
    guillemotleft,
    logicalnot,
    sfthyphen,
    registered,
    macron,
    degree,
    plusminus,

glyphs = (
{
glyphname = .notdef;
lastChange = "2012-06-02 17:01:23 +0000";
layers = (
{
layerId = "D5D14868-B3D8-4E08-9530-062F6179E82D";
name = Bold;
paths = (
{
closed = 1;
nodes = (
"306 -344 LINE",
"306 1446 LINE",
"1354 1446 LINE",
"1354 -344 LINE"
);
},
{
closed = 1;
nodes = (
"492 11 LINE",
"1170 11 LINE",
"1170 1261 LINE",
"492 1261 LINE"
);
}
);
width = 1658;
}
);
},
{
glyphname = exclam;
lastChange = "2012-06-02 17:09:21 +0000";
layers = (
{
layerId = "D5D14868-B3D8-4E08-9530-062F6179E82D";
name = Bold;
paths = (
{
closed = 1;
nodes = (
"226 312 LINE",
"494 312 LINE",
"518 0 LINE",
"202 0 LINE"
);
},
{
closed = 1;
nodes = (
"214 1464 LINE",
"486 1468 LINE",
"496 822 LINE",
"528 449 LINE",
"194 449 LINE",
"214 821 LINE",
"214 820 LINE"
);
}
);
width = 701;
}
);
unicode = 0021;
},
{
glyphname = quotedbl;
lastChange = "2012-06-02 17:09:32 +0000";
layers = (
{
layerId = "D5D14868-B3D8-4E08-9530-062F6179E82D";
name = Bold;
paths = (
{
closed = 1;
nodes = (
"542 1468 LINE",
"554 846 LINE",
"242 846 LINE",
"302 1468 LINE"
);
},
{
closed = 1;
nodes = (
"915 1468 LINE",
"973 846 LINE",
"663 846 LINE",
"674 1468 LINE"
);
}
);
width = 1215;
}
);
unicode = 0022;
},
{
glyphname = numbersign;
lastChange = "2012-06-02 17:01:23 +0000";
layers = (
{
layerId = "D5D14868-B3D8-4E08-9530-062F6179E82D";
name = Bold;
paths = (
{
closed = 1;
nodes = (
"860 841 LINE",
"665 841 LINE",
"607 604 LINE",
"802 604 LINE"
);
},
{
closed = 1;
nodes = (
"816 1447 LINE",
"719 1059 LINE",
"914 1059 LINE",
"1013 1447 LINE",
"1238 1447 LINE",
"1142 1059 LINE",
"1423 1059 LINE",
"1423 841 LINE",
"1088 841 LINE",
"1083 820 OFFCURVE",
"1078 800 OFFCURVE",
"1074 781 CURVE SMOOTH",
"1065 744 OFFCURVE",
"1056 707 OFFCURVE",
"1046 668 CURVE SMOOTH",
"1041 649 OFFCURVE",
"1035 627 OFFCURVE",
"1029 604 CURVE",
"1316 604 LINE",
"1316 386 LINE",
"975 386 LINE",
"878 0 LINE",
"651 0 LINE",
"747 386 LINE",
"551 386 LINE",
"455 0 LINE",
"228 0 LINE",
"325 386 LINE",
"41 386 LINE",
"41 604 LINE",
"378 604 LINE",
"437 841 LINE",
"147 841 LINE",
"147 1059 LINE",
"493 1059 LINE",
"508 1122 OFFCURVE",
"524 1187 OFFCURVE",
"540 1255 CURVE SMOOTH",
"556 1322 OFFCURVE",
"572 1386 OFFCURVE",
"587 1447 CURVE"
);
}
);
width = 1463;
}
);
unicode = 0023;
},
{
glyphname = dollar;
lastChange = "2012-06-02 17:01:23 +0000";
layers = (
{
layerId = "D5D14868-B3D8-4E08-9530-062F6179E82D";
name = Bold;
paths = (
{
closed = 1;
nodes = (
"649 -275 LINE",
"401 -271 LINE",
"423 11 LINE",
"308 22 OFFCURVE",
"181 55 OFFCURVE",
"45 116 CURVE",
"49 432 LINE",
"196 336 OFFCURVE",
"323 285 OFFCURVE",
"431 274 CURVE",
"432 300 OFFCURVE",
"432 325 OFFCURVE",
"433 350 CURVE SMOOTH",
"434 374 OFFCURVE",
"434 398 OFFCURVE",
"435 422 CURVE",
"435 446 OFFCURVE",
"435 470 OFFCURVE",
"436 495 CURVE SMOOTH",
"437 520 OFFCURVE",
"437 546 OFFCURVE",
"438 573 CURVE",
"313 600 OFFCURVE",
"226 640 OFFCURVE",
"165 696 CURVE SMOOTH",
"98 760 OFFCURVE",
"63 841 OFFCURVE",
"59 945 CURVE",
"63 1161 OFFCURVE",
"205 1290 OFFCURVE",
"458 1313 CURVE",
"462 1535 LINE",
"631 1533 LINE",
"626 1315 LINE",
"737 1307 OFFCURVE",
"838 1282 OFFCURVE",
"953 1242 CURVE",
"948 1010 LINE",
"827 1075 OFFCURVE",
"719 1112 OFFCURVE",
"624 1122 CURVE",
"623 1090 OFFCURVE",
"623 1059 OFFCURVE",
"622 1030 CURVE SMOOTH",
"621 1001 OFFCURVE",
"621 971 OFFCURVE",
"621 942 CURVE SMOOTH",
"620 913 OFFCURVE",
"620 883 OFFCURVE",
"619 853 CURVE SMOOTH",
"618 823 OFFCURVE",
"618 792 OFFCURVE",
"617 759 CURVE",
"880 708 OFFCURVE",
"1014 610 OFFCURVE",
"1023 393 CURVE",
"1021 276 OFFCURVE",
"980 184 OFFCURVE",
"899 117 CURVE SMOOTH",
"824 57 OFFCURVE",
"747 23 OFFCURVE",
"635 12 CURVE"
);
},
{
closed = 1;
nodes = (
"440 1114 LINE",
"341 1094 OFFCURVE",
"266 1032 OFFCURVE",
"266 945 CURVE SMOOTH",
"266 868 OFFCURVE",
"322 811 OFFCURVE",
"433 783 CURVE"
);
},
{
closed = 1;
nodes = (
"618 273 LINE",
"663 281 OFFCURVE",
"700 291 OFFCURVE",
"727 302 CURVE SMOOTH",
"752 313 OFFCURVE",
"764 338 OFFCURVE",
"764 375 CURVE SMOOTH",
"764 454 OFFCURVE",
"717 502 OFFCURVE",
"610 530 CURVE"
);
}
);
width = 1052;
}
);
unicode = 0024;
},
{
glyphname = percent;
lastChange = "2012-06-02 17:01:23 +0000";
layers = (
{
layerId = "D5D14868-B3D8-4E08-9530-062F6179E82D";
name = Bold;
paths = (
{
closed = 1;
nodes = (
"1380 613 OFFCURVE",
"1329 537 OFFCURVE",
"1329 408 CURVE SMOOTH",
"1329 280 OFFCURVE",
"1380 203 OFFCURVE",
"1465 203 CURVE SMOOTH",
"1548 203 OFFCURVE",
"1599 280 OFFCURVE",
"1599 408 CURVE SMOOTH",
"1599 536 OFFCURVE",
"1548 613 OFFCURVE",
"1465 613 CURVE SMOOTH"
);
},
{
closed = 1;
nodes = (
"1684 806 OFFCURVE",
"1823 641 OFFCURVE",
"1823 389 CURVE SMOOTH",
"1823 264 OFFCURVE",
"1793 164 OFFCURVE",
"1726 88 CURVE SMOOTH",
"1661 11 OFFCURVE",
"1574 -27 OFFCURVE",
"1465 -27 CURVE SMOOTH",
"1242 -27 OFFCURVE",
"1105 136 OFFCURVE",
"1105 389 CURVE SMOOTH",
"1105 641 OFFCURVE",
"1246 806 OFFCURVE",
"1465 806 CURVE SMOOTH"
);
},
{
closed = 1;
nodes = (
"418 1300 OFFCURVE",
"366 1218 OFFCURVE",
"366 1083 CURVE SMOOTH",
"366 944 OFFCURVE",
"417 864 OFFCURVE",
"502 864 CURVE SMOOTH",
"587 864 OFFCURVE",
"638 944 OFFCURVE",
"638 1083 CURVE SMOOTH",
"638 1216 OFFCURVE",
"586 1300 OFFCURVE",
"502 1300 CURVE SMOOTH"
);
},
{
closed = 1;
nodes = (
"1332 1493 LINE",
"1569 1493 LINE",
"644 -27 LINE",
"407 -27 LINE"
);
},
{
closed = 1;
nodes = (
"719 1493 OFFCURVE",
"862 1328 OFFCURVE",
"862 1077 CURVE SMOOTH",
"862 824 OFFCURVE",
"723 660 OFFCURVE",
"502 660 CURVE SMOOTH",
"279 660 OFFCURVE",
"143 824 OFFCURVE",
"143 1077 CURVE SMOOTH",
"143 1202 OFFCURVE",
"175 1302 OFFCURVE",
"239 1378 CURVE SMOOTH",
"306 1455 OFFCURVE",
"393 1493 OFFCURVE",
"502 1493 CURVE SMOOTH"
);
}
);
width = 1970;
}
);
unicode = 0025;
},
{
glyphname = ampersand;
lastChange = "2012-06-02 17:01:23 +0000";
layers = (
{
layerId = "D5D14868-B3D8-4E08-9530-062F6179E82D";
name = Bold;
paths = (
{
closed = 1;
nodes = (
"487 772 LINE",
"398 685 OFFCURVE",
"359 605 OFFCURVE",
"359 513 CURVE SMOOTH",
"359 353 OFFCURVE",
"493 231 OFFCURVE",
"672 231 CURVE SMOOTH",
"768 231 OFFCURVE",
"854 259 OFFCURVE",
"930 315 CURVE"
);
},
{
closed = 1;
nodes = (
"1103 484 LINE",
"1123 523 OFFCURVE",
"1138 561 OFFCURVE",
"1146 600 CURVE SMOOTH",
"1157 655 OFFCURVE",
"1165 729 OFFCURVE",
"1169 822 CURVE",
"1419 822 LINE",
"1415 781 OFFCURVE",
"1410 729 OFFCURVE",
"1404 678 CURVE SMOOTH",
"1398 626 OFFCURVE",
"1390 575 OFFCURVE",
"1383 535 CURVE SMOOTH",
"1368 458 OFFCURVE",
"1339 382 OFFCURVE",
"1288 307 CURVE",
"1589 0 LINE",
"1248 0 LINE",
"1127 124 LINE",
"996 20 OFFCURVE",
"860 -27 OFFCURVE",
"699 -27 CURVE SMOOTH",
"538 -27 OFFCURVE",
"409 19 OFFCURVE",
"306 110 CURVE SMOOTH",
"203 203 OFFCURVE",
"151 322 OFFCURVE",
"151 468 CURVE SMOOTH",
"151 629 OFFCURVE",
"230 772 OFFCURVE",
"387 897 CURVE",
"336 973 OFFCURVE",
"310 1048 OFFCURVE",
"310 1121 CURVE SMOOTH",
"310 1232 OFFCURVE",
"349 1323 OFFCURVE",
"426 1392 CURVE",
"425 1392 LINE",
"500 1459 OFFCURVE",
"601 1493 OFFCURVE",
"726 1493 CURVE SMOOTH",
"835 1493 OFFCURVE",
"956 1465 OFFCURVE",
"1088 1408 CURVE",
"988 1205 LINE",
"863 1273 OFFCURVE",
"759 1309 OFFCURVE",
"679 1309 CURVE SMOOTH",
"624 1309 OFFCURVE",
"579 1294 OFFCURVE",
"544 1265 CURVE",
"544 1266 LINE",
"512 1239 OFFCURVE",
"496 1203 OFFCURVE",
"496 1160 CURVE SMOOTH",
"496 1135 OFFCURVE",
"504 1109 OFFCURVE",
"519 1082 CURVE",
"518 1083 LINE",
"535 1055 OFFCURVE",
"571 1012 OFFCURVE",
"626 955 CURVE",
"625 955 LINE"
);
}
);
width = 1612;
}
);
unicode = 0026;
},
{
glyphname = quotesingle;
lastChange = "2012-06-02 17:01:23 +0000";
layers = (
{
layerId = "D5D14868-B3D8-4E08-9530-062F6179E82D";
name = Bold;
paths = (
{
closed = 1;
nodes = (
"540 1468 LINE",
"540 875 LINE",
"306 875 LINE",
"306 1468 LINE"
);
}
);
width = 837;
}
);
unicode = 0027;
},
{
glyphname = parenleft;
lastChange = "2012-06-02 17:01:23 +0000";
layers = (
{
layerId = "D5D14868-B3D8-4E08-9530-062F6179E82D";
name = Bold;
paths = (
{
closed = 1;
nodes = (
"681 1514 LINE",
"469 1215 OFFCURVE",
"351 935 OFFCURVE",
"339 656 CURVE",
"351 377 OFFCURVE",
"371 108 OFFCURVE",
"542 -256 CURVE",
"260 -238 LINE",
"129 87 OFFCURVE",
"74 388 OFFCURVE",
"74 675 CURVE",
"98 959 OFFCURVE",
"219 1240 OFFCURVE",
"446 1533 CURVE"
);
}
);
width = 698;
}
);
unicode = 0028;
},
{
glyphname = parenright;
lastChange = "2012-06-02 17:01:23 +0000";
layers = (
{
layerId = "D5D14868-B3D8-4E08-9530-062F6179E82D";
name = Bold;
paths = (
{
closed = 1;
nodes = (
"400 1541 LINE",
"488 1369 OFFCURVE",
"547 1212 OFFCURVE",
"575 1064 CURVE",
"575 1065 LINE",
"603 917 OFFCURVE",
"618 776 OFFCURVE",
"619 635 CURVE SMOOTH",
"619 490 OFFCURVE",
"589 347 OFFCURVE",
"529 205 CURVE SMOOTH",
"470 70 OFFCURVE",
"401 -72 OFFCURVE",
"316 -229 CURVE",
"11 -211 LINE",
"223 90 OFFCURVE",
"335 377 OFFCURVE",
"363 654 CURVE",
"363 792 OFFCURVE",
"352 932 OFFCURVE",
"330 1073 CURVE SMOOTH",
"307 1216 OFFCURVE",
"255 1377 OFFCURVE",
"168 1561 CURVE"
);
}
);
width = 705;
}
);
unicode = 0029;
},
{
glyphname = asterisk;
lastChange = "2012-06-02 17:01:23 +0000";
layers = (
{
layerId = "D5D14868-B3D8-4E08-9530-062F6179E82D";
name = Bold;
paths = (
{
closed = 1;
nodes = (
"983 1187 LINE",
"675 1019 LINE",
"778 963 OFFCURVE",
"888 903 OFFCURVE",
"983 852 CURVE",
"890 695 LINE",
"602 871 LINE",
"602 547 LINE",
"421 547 LINE",
"421 871 LINE",
"372 841 OFFCURVE",
"323 811 OFFCURVE",
"274 782 CURVE SMOOTH",
"225 752 OFFCURVE",
"178 723 OFFCURVE",
"132 695 CURVE",
"39 852 LINE",
"347 1019 LINE",
"295 1047 OFFCURVE",
"243 1076 OFFCURVE",
"190 1105 CURVE SMOOTH",
"137 1134 OFFCURVE",
"87 1162 OFFCURVE",
"39 1187 CURVE",
"130 1345 LINE",
"421 1169 LINE",
"421 1493 LINE",
"602 1493 LINE",
"602 1169 LINE",
"650 1198 OFFCURVE",
"699 1228 OFFCURVE",
"749 1259 CURVE SMOOTH",
"799 1290 OFFCURVE",
"846 1318 OFFCURVE",
"891 1345 CURVE"
);
}
);
width = 1021;
}
);
unicode = 002A;
},
{
glyphname = plus;
lastChange = "2012-06-02 17:01:23 +0000";
layers = (
{
layerId = "D5D14868-B3D8-4E08-9530-062F6179E82D";
name = Bold;
paths = (
{
closed = 1;
nodes = (
"751 1273 LINE",
"751 753 LINE",
"1271 753 LINE",
"1271 520 LINE",
"751 520 LINE",
"751 0 LINE",
"520 0 LINE",
"520 520 LINE",
"0 520 LINE",
"0 753 LINE",
"520 753 LINE",
"520 1273 LINE"
);
}
);
width = 1271;
}
);
unicode = 002B;
},
{
glyphname = comma;
lastChange = "2012-06-02 17:01:23 +0000";
layers = (
{
layerId = "D5D14868-B3D8-4E08-9530-062F6179E82D";
name = Bold;
paths = (
{
closed = 1;
nodes = (
"198 302 LINE",
"507 302 LINE",
"507 55 LINE",
"280 -269 LINE",
"89 -269 LINE",
"198 74 LINE"
);
}
);
width = 583;
}
);
unicode = 002C;
},
{
glyphname = hyphen;
lastChange = "2012-06-02 17:01:23 +0000";
layers = (
{
layerId = "D5D14868-B3D8-4E08-9530-062F6179E82D";
name = Bold;
paths = (
{
closed = 1;
nodes = (
"295 674 LINE",
"874 685 LINE",
"865 456 LINE",
"286 446 LINE"
);
}
);
width = 1152;
}
);
unicode = 002D;
},
{
glyphname = period;
lastChange = "2012-06-02 17:01:23 +0000";
layers = (
{
layerId = "D5D14868-B3D8-4E08-9530-062F6179E82D";
name = Bold;
paths = (
{
closed = 1;
nodes = (
"306 376 LINE",
"659 376 LINE",
"659 0 LINE",
"306 0 LINE"
);
}
);
width = 959;
}
);
unicode = 002E;
},
{
glyphname = slash;
lastChange = "2012-06-02 17:01:23 +0000";
layers = (
{
layerId = "D5D14868-B3D8-4E08-9530-062F6179E82D";
name = Bold;
paths = (
{
closed = 1;
nodes = (
"566 1451 LINE",
"782 1445 LINE",
"294 -186 LINE",
"0 -176 LINE"
);
}
);
width = 782;
}
);
unicode = 002F;
},
{
glyphname = zero;
lastChange = "2012-06-02 17:01:23 +0000";
layers = (
{
layerId = "D5D14868-B3D8-4E08-9530-062F6179E82D";
name = Bold;
paths = (
{
closed = 1;
nodes = (
"528 1344 OFFCURVE",
"443 1185 OFFCURVE",
"443 868 CURVE SMOOTH",
"443 697 OFFCURVE",
"464 575 OFFCURVE",
"503 496 CURVE",
"502 497 LINE",
"537 428 OFFCURVE",
"596 393 OFFCURVE",
"679 393 CURVE SMOOTH",
"762 393 OFFCURVE",
"824 437 OFFCURVE",
"869 519 CURVE SMOOTH",
"914 601 OFFCURVE",
"941 720 OFFCURVE",
"954 871 CURVE",
"954 1186 OFFCURVE",
"869 1344 OFFCURVE",
"698 1344 CURVE SMOOTH"
);
},
{
closed = 1;
nodes = (
"1035 1493 OFFCURVE",
"1207 1227 OFFCURVE",
"1207 732 CURVE SMOOTH",
"1194 239 OFFCURVE",
"1016 -27 OFFCURVE",
"679 -27 CURVE SMOOTH",
"342 -27 OFFCURVE",
"170 238 OFFCURVE",
"170 733 CURVE SMOOTH",
"177 980 OFFCURVE",
"224 1170 OFFCURVE",
"313 1298 CURVE SMOOTH",
"401 1426 OFFCURVE",
"530 1493 OFFCURVE",
"698 1493 CURVE SMOOTH"
);
}
);
width = 1376;
}
);
unicode = 0030;
},
{
glyphname = one;
lastChange = "2012-06-02 17:01:23 +0000";
layers = (
{
layerId = "D5D14868-B3D8-4E08-9530-062F6179E82D";
name = Bold;
paths = (
{
closed = 1;
nodes = (
"267 336 LINE",
"575 336 LINE",
"575 1213 LINE",
"240 1146 LINE",
"240 1394 LINE",
"608 1468 LINE",
"836 1468 LINE",
"836 336 LINE",
"1144 336 LINE",
"1144 0 LINE",
"267 0 LINE"
);
}
);
width = 1210;
}
);
unicode = 0031;
},
{
glyphname = two;
lastChange = "2012-06-02 17:01:23 +0000";
layers = (
{
layerId = "D5D14868-B3D8-4E08-9530-062F6179E82D";
name = Bold;
paths = (
{
closed = 1;
nodes = (
"1217 345 LINE",
"1217 0 LINE",
"258 0 LINE",
"258 326 LINE",
"357 407 OFFCURVE",
"473 501 OFFCURVE",
"584 585 CURVE SMOOTH",
"694 667 OFFCURVE",
"764 725 OFFCURVE",
"793 760 CURVE SMOOTH",
"850 825 OFFCURVE",
"890 879 OFFCURVE",
"913 924 CURVE SMOOTH",
"934 967 OFFCURVE",
"946 1007 OFFCURVE",
"946 1046 CURVE SMOOTH",
"946 1171 OFFCURVE",
"849 1260 OFFCURVE",
"702 1260 CURVE SMOOTH",
"589 1260 OFFCURVE",
"448 1211 OFFCURVE",
"267 1110 CURVE",
"267 1389 LINE",
"441 1458 OFFCURVE",
"585 1493 OFFCURVE",
"698 1493 CURVE SMOOTH",
"851 1493 OFFCURVE",
"975 1454 OFFCURVE",
"1068 1377 CURVE SMOOTH",
"1163 1296 OFFCURVE",
"1210 1190 OFFCURVE",
"1210 1058 CURVE SMOOTH",
"1210 996 OFFCURVE",
"1198 937 OFFCURVE",
"1174 881 CURVE SMOOTH",
"1152 826 OFFCURVE",
"1111 763 OFFCURVE",
"1051 690 CURVE",
"1043 681 OFFCURVE",
"1027 663 OFFCURVE",
"1002 637 CURVE SMOOTH",
"977 610 OFFCURVE",
"944 575 OFFCURVE",
"902 531 CURVE SMOOTH",
"839 467 OFFCURVE",
"795 405 OFFCURVE",
"770 345 CURVE"
);
}
);
width = 1431;
}
);
unicode = 0032;
},
{
glyphname = three;
lastChange = "2012-06-02 17:01:23 +0000";
layers = (
{
layerId = "D5D14868-B3D8-4E08-9530-062F6179E82D";
name = Bold;
paths = (
{
closed = 1;
nodes = (
"1182 962 OFFCURVE",
"1123 860 OFFCURVE",
"1012 796 CURVE",
"1058 777 OFFCURVE",
"1097 748 OFFCURVE",
"1130 711 CURVE",
"1186 643 OFFCURVE",
"1215 560 OFFCURVE",
"1215 461 CURVE SMOOTH",
"1215 298 OFFCURVE",
"1163 176 OFFCURVE",
"1064 95 CURVE SMOOTH",
"964 14 OFFCURVE",
"819 -27 OFFCURVE",
"632 -27 CURVE SMOOTH",
"512 -27 OFFCURVE",
"376 -1 OFFCURVE",
"223 52 CURVE",
"223 439 LINE",
"359 359 OFFCURVE",
"498 318 OFFCURVE",
"627 318 CURVE SMOOTH",
"736 318 OFFCURVE",
"817 341 OFFCURVE",
"872 388 CURVE SMOOTH",
"926 434 OFFCURVE",
"953 468 OFFCURVE",
"953 489 CURVE SMOOTH",
"953 592 OFFCURVE",
"850 686 OFFCURVE",
"663 686 CURVE SMOOTH",
"464 686 LINE",
"464 916 LINE",
"671 916 LINE SMOOTH",
"832 916 OFFCURVE",
"920 978 OFFCURVE",
"920 1094 CURVE SMOOTH",
"920 1213 OFFCURVE",
"830 1279 OFFCURVE",
"663 1279 CURVE SMOOTH",
"563 1279 OFFCURVE",
"437 1254 OFFCURVE",
"265 1195 CURVE",
"265 1425 LINE",
"428 1472 OFFCURVE",
"563 1493 OFFCURVE",
"680 1493 CURVE SMOOTH",
"832 1493 OFFCURVE",
"954 1459 OFFCURVE",
"1043 1387 CURVE",
"1043 1388 LINE",
"1136 1316 OFFCURVE",
"1182 1218 OFFCURVE",
"1182 1095 CURVE SMOOTH"
);
}
);
width = 1383;
}
);
unicode = 0033;
},
{
glyphname = four;
lastChange = "2012-06-02 17:01:23 +0000";
layers = (
{
layerId = "D5D14868-B3D8-4E08-9530-062F6179E82D";
name = Bold;
paths = (
{
closed = 1;
nodes = (
"628 1202 LINE",
"260 625 LINE",
"620 625 LINE"
);
},
{
closed = 1;
nodes = (
"598 1468 LINE",
"892 1468 LINE",
"901 625 LINE",
"1090 625 LINE",
"1090 394 LINE",
"902 394 LINE",
"903 363 OFFCURVE",
"905 330 OFFCURVE",
"907 297 CURVE SMOOTH",
"909 263 OFFCURVE",
"911 229 OFFCURVE",
"913 195 CURVE SMOOTH",
"914 161 OFFCURVE",
"916 128 OFFCURVE",
"918 95 CURVE SMOOTH",
"919 62 OFFCURVE",
"921 30 OFFCURVE",
"922 0 CURVE",
"590 0 LINE",
"610 394 LINE",
"0 394 LINE",
"0 558 LINE"
);
}
);
width = 1175;
}
);
unicode = 0034;
},
{
glyphname = five;
lastChange = "2012-06-02 17:01:23 +0000";
layers = (
{
layerId = "D5D14868-B3D8-4E08-9530-062F6179E82D";
name = Bold;
paths = (
{
closed = 1;
nodes = (
"293 1468 LINE",
"1108 1468 LINE",
"1108 1253 LINE",
"522 1253 LINE",
"522 978 LINE",
"579 990 OFFCURVE",
"620 996 OFFCURVE",
"667 996 CURVE SMOOTH",
"995 996 OFFCURVE",
"1210 797 OFFCURVE",
"1210 484 CURVE SMOOTH",
"1210 161 OFFCURVE",
"997 -27 OFFCURVE",
"638 -27 CURVE SMOOTH",
"519 -27 OFFCURVE",
"385 -4 OFFCURVE",
"234 43 CURVE",
"234 425 LINE",
"379 346 OFFCURVE",
"507 309 OFFCURVE",
"635 309 CURVE SMOOTH",
"734 309 OFFCURVE",
"808 334 OFFCURVE",
"859 384 CURVE SMOOTH",
"912 433 OFFCURVE",
"938 475 OFFCURVE",
"938 512 CURVE SMOOTH",
"938 681 OFFCURVE",
"827 763 OFFCURVE",
"635 763 CURVE SMOOTH",
"538 763 OFFCURVE",
"429 736 OFFCURVE",
"293 673 CURVE"
);
}
);
width = 1343;
}
);
unicode = 0035;
},
{
glyphname = six;
lastChange = "2012-06-02 17:01:23 +0000";
layers = (
{
layerId = "D5D14868-B3D8-4E08-9530-062F6179E82D";
name = Bold;
paths = (
{
closed = 1;
nodes = (
"540 772 OFFCURVE",
"450 668 OFFCURVE",
"450 484 CURVE SMOOTH",
"450 384 OFFCURVE",
"533 318 OFFCURVE",
"688 318 CURVE SMOOTH",
"843 318 OFFCURVE",
"926 384 OFFCURVE",
"926 484 CURVE SMOOTH",
"926 668 OFFCURVE",
"836 772 OFFCURVE",
"688 772 CURVE SMOOTH"
);
},
{
closed = 1;
nodes = (
"1100 1169 LINE",
"976 1229 OFFCURVE",
"867 1260 OFFCURVE",
"776 1260 CURVE SMOOTH",
"581 1260 OFFCURVE",
"466 1137 OFFCURVE",
"427 901 CURVE",
"503 964 OFFCURVE",
"593 996 OFFCURVE",
"700 996 CURVE SMOOTH",
"850 996 OFFCURVE",
"969 950 OFFCURVE",
"1058 857 CURVE SMOOTH",
"1146 764 OFFCURVE",
"1191 641 OFFCURVE",
"1191 484 CURVE SMOOTH",
"1191 176 OFFCURVE",
"991 -27 OFFCURVE",
"688 -27 CURVE SMOOTH",
"337 -27 OFFCURVE",
"154 246 OFFCURVE",
"154 733 CURVE SMOOTH",
"154 1190 OFFCURVE",
"393 1493 OFFCURVE",
"769 1493 CURVE SMOOTH",
"868 1493 OFFCURVE",
"973 1471 OFFCURVE",
"1100 1426 CURVE"
);
}
);
width = 1355;
}
);
unicode = 0036;
},
{
glyphname = seven;
lastChange = "2012-06-02 17:01:23 +0000";
layers = (
{
layerId = "D5D14868-B3D8-4E08-9530-062F6179E82D";
name = Bold;
paths = (
{
closed = 1;
nodes = (
"82 1468 LINE",
"1043 1468 LINE",
"1043 1345 LINE",
"687 0 LINE",
"266 0 LINE",
"780 1253 LINE",
"82 1253 LINE"
);
}
);
width = 1108;
}
);
unicode = 0037;
},
{
glyphname = eight;
lastChange = "2012-06-02 17:01:23 +0000";
layers = (
{
layerId = "D5D14868-B3D8-4E08-9530-062F6179E82D";
name = Bold;
paths = (
{
closed = 1;
nodes = (
"525 680 OFFCURVE",
"437 595 OFFCURVE",
"437 448 CURVE SMOOTH",
"437 376 OFFCURVE",
"527 281 OFFCURVE",
"688 281 CURVE SMOOTH",
"769 281 OFFCURVE",
"831 300 OFFCURVE",
"876 339 CURVE",
"875 339 LINE",
"918 377 OFFCURVE",
"940 413 OFFCURVE",
"940 448 CURVE SMOOTH",
"940 596 OFFCURVE",
"851 680 OFFCURVE",
"688 680 CURVE SMOOTH"
);
},
{
closed = 1;
nodes = (
"290 723 OFFCURVE",
"335 757 OFFCURVE",
"390 781 CURVE",
"277 845 OFFCURVE",
"224 954 OFFCURVE",
"224 1095 CURVE SMOOTH",
"224 1316 OFFCURVE",
"395 1475 OFFCURVE",
"688 1475 CURVE SMOOTH",
"835 1475 OFFCURVE",
"950 1439 OFFCURVE",
"1031 1368 CURVE SMOOTH",
"1112 1295 OFFCURVE",
"1152 1204 OFFCURVE",
"1152 1095 CURVE SMOOTH",
"1152 954 OFFCURVE",
"1099 845 OFFCURVE",
"987 781 CURVE",
"1094 733 OFFCURVE",
"1222 625 OFFCURVE",
"1222 429 CURVE SMOOTH",
"1222 134 OFFCURVE",
"1012 -27 OFFCURVE",
"688 -27 CURVE SMOOTH",
"525 -27 OFFCURVE",
"396 12 OFFCURVE",
"301 90 CURVE SMOOTH",
"203 169 OFFCURVE",
"154 282 OFFCURVE",
"154 429 CURVE SMOOTH",
"154 527 OFFCURVE",
"186 611 OFFCURVE",
"250 680 CURVE SMOOTH"
);
},
{
closed = 1;
nodes = (
"468 1012 OFFCURVE",
"547 941 OFFCURVE",
"688 941 CURVE SMOOTH",
"827 941 OFFCURVE",
"909 1012 OFFCURVE",
"909 1133 CURVE SMOOTH",
"909 1233 OFFCURVE",
"838 1277 OFFCURVE",
"783 1294 CURVE SMOOTH",
"756 1303 OFFCURVE",
"724 1307 OFFCURVE",
"688 1307 CURVE SMOOTH",
"617 1307 OFFCURVE",
"562 1290 OFFCURVE",
"522 1255 CURVE",
"523 1255 LINE",
"486 1222 OFFCURVE",
"468 1182 OFFCURVE",
"468 1133 CURVE SMOOTH"
);
}
);
width = 1375;
}
);
unicode = 0038;
},
{
glyphname = nine;
lastChange = "2012-06-02 17:01:23 +0000";
layers = (
{
layerId = "D5D14868-B3D8-4E08-9530-062F6179E82D";
name = Bold;
paths = (
{
closed = 1;
nodes = (
"260 409 LINE",
"384 349 OFFCURVE",
"495 318 OFFCURVE",
"584 318 CURVE SMOOTH",
"701 318 OFFCURVE",
"787 340 OFFCURVE",
"847 381 CURVE SMOOTH",
"888 410 OFFCURVE",
"917 472 OFFCURVE",
"933 567 CURVE",
"857 504 OFFCURVE",
"765 472 OFFCURVE",
"661 472 CURVE SMOOTH",
"511 472 OFFCURVE",
"391 518 OFFCURVE",
"302 609 CURVE SMOOTH",
"215 700 OFFCURVE",
"171 825 OFFCURVE",
"171 982 CURVE SMOOTH",
"171 1137 OFFCURVE",
"217 1260 OFFCURVE",
"308 1352 CURVE SMOOTH",
"399 1446 OFFCURVE",
"521 1493 OFFCURVE",
"673 1493 CURVE SMOOTH",
"846 1493 OFFCURVE",
"980 1426 OFFCURVE",
"1070 1298 CURVE SMOOTH",
"1160 1170 OFFCURVE",
"1207 980 OFFCURVE",
"1207 733 CURVE SMOOTH",
"1207 277 OFFCURVE",
"968 -27 OFFCURVE",
"592 -27 CURVE SMOOTH",
"493 -27 OFFCURVE",
"387 -5 OFFCURVE",
"260 40 CURVE"
);
},
{
closed = 1;
nodes = (
"755 827 OFFCURVE",
"832 838 OFFCURVE",
"888 860 CURVE SMOOTH",
"933 876 OFFCURVE",
"955 927 OFFCURVE",
"955 1012 CURVE SMOOTH",
"955 1189 OFFCURVE",
"841 1299 OFFCURVE",
"657 1299 CURVE SMOOTH",
"472 1299 OFFCURVE",
"358 1191 OFFCURVE",
"358 1012 CURVE SMOOTH",
"358 927 OFFCURVE",
"380 876 OFFCURVE",
"424 860 CURVE SMOOTH",
"480 838 OFFCURVE",
"558 827 OFFCURVE",
"657 827 CURVE SMOOTH"
);
}
);
width = 1360;
}
);
unicode = 0039;
},
{
glyphname = colon;
lastChange = "2012-06-02 17:01:23 +0000";
layers = (
{
layerId = "D5D14868-B3D8-4E08-9530-062F6179E82D";
name = Bold;
paths = (
{
closed = 1;
nodes = (
"306 360 LINE",
"624 360 LINE",
"624 0 LINE",
"306 0 LINE"
);
},
{
closed = 1;
nodes = (
"306 1102 LINE",
"624 1102 LINE",
"624 762 LINE",
"306 762 LINE"
);
}
);
width = 924;
}
);
unicode = 003A;
},
{
glyphname = semicolon;
lastChange = "2012-06-02 17:01:23 +0000";
layers = (
{
layerId = "D5D14868-B3D8-4E08-9530-062F6179E82D";
name = Bold;
paths = (
{
closed = 1;
nodes = (
"168 1098 LINE",
"469 1098 LINE",
"469 749 LINE",
"168 749 LINE"
);
},
{
closed = 1;
nodes = (
"172 278 LINE",
"465 278 LINE",
"465 53 LINE",
"282 -306 LINE",
"77 -306 LINE",
"172 67 LINE"
);
}
);
width = 603;
}
);
unicode = 003B;
},
{
glyphname = less;
lastChange = "2012-06-02 17:01:23 +0000";
layers = (
{
layerId = "D5D14868-B3D8-4E08-9530-062F6179E82D";
name = Bold;
paths = (
{
closed = 1;
nodes = (
"1307 929 LINE",
"394 692 LINE",
"1252 301 LINE",
"1226 -3 LINE",
"0 567 LINE",
"22 830 LINE",
"1329 1178 LINE"
);
}
);
width = 1563;
}
);
unicode = 003C;
},
{
glyphname = equal;
lastChange = "2012-06-02 17:01:23 +0000";
layers = (
{
layerId = "D5D14868-B3D8-4E08-9530-062F6179E82D";
name = Bold;
paths = (
{
closed = 1;
nodes = (
"306 943 LINE",
"1577 943 LINE",
"1577 711 LINE",
"306 711 LINE"
);
},
{
closed = 1;
nodes = (
"306 590 LINE",
"1577 590 LINE",
"1577 329 LINE",
"306 329 LINE"
);
}
);
width = 1881;
}
);
unicode = 003D;
},
{
glyphname = greater;
lastChange = "2012-06-02 17:01:23 +0000";
layers = (
{
layerId = "D5D14868-B3D8-4E08-9530-062F6179E82D";
name = Bold;
paths = (
{
closed = 1;
nodes = (
"317 1048 LINE",
"338 1296 LINE",
"1564 726 LINE",
"1542 463 LINE",
"235 115 LINE",
"262 420 LINE",
"1172 656 LINE"
);
}
);
width = 1564;
}
);
unicode = 003E;
},
{
glyphname = question;
lastChange = "2012-06-02 17:01:23 +0000";
layers = (
{
layerId = "D5D14868-B3D8-4E08-9530-062F6179E82D";
name = Bold;
paths = (
{
closed = 1;
nodes = (
"274 330 LINE",
"594 330 LINE",
"594 -9 LINE",
"274 -9 LINE"
);
},
{
closed = 1;
nodes = (
"598 374 LINE",
"279 374 LINE",
"279 555 LINE SMOOTH",
"279 623 OFFCURVE",
"289 680 OFFCURVE",
"308 729 CURVE SMOOTH",
"328 777 OFFCURVE",
"367 831 OFFCURVE",
"428 888 CURVE SMOOTH",
"522 972 LINE",
"569 1011 OFFCURVE",
"604 1039 OFFCURVE",
"624 1062 CURVE",
"641 1079 OFFCURVE",
"652 1095 OFFCURVE",
"656 1118 CURVE",
"656 1163 OFFCURVE",
"639 1203 OFFCURVE",
"604 1240 CURVE SMOOTH",
"572 1276 OFFCURVE",
"528 1294 OFFCURVE",
"471 1294 CURVE SMOOTH",
"379 1294 OFFCURVE",
"255 1237 OFFCURVE",
"102 1132 CURVE",
"102 1371 LINE",
"236 1452 OFFCURVE",
"370 1493 OFFCURVE",
"503 1493 CURVE SMOOTH",
"628 1493 OFFCURVE",
"726 1461 OFFCURVE",
"799 1393 CURVE SMOOTH",
"874 1325 OFFCURVE",
"911 1236 OFFCURVE",
"911 1127 CURVE SMOOTH",
"911 1071 OFFCURVE",
"895 1019 OFFCURVE",
"862 970 CURVE SMOOTH",
"834 929 OFFCURVE",
"793 878 OFFCURVE",
"740 822 CURVE SMOOTH",
"728 809 OFFCURVE",
"717 796 OFFCURVE",
"707 785 CURVE SMOOTH",
"696 773 OFFCURVE",
"685 760 OFFCURVE",
"672 747 CURVE",
"665 736 OFFCURVE",
"659 725 OFFCURVE",
"652 714 CURVE SMOOTH",
"638 693 OFFCURVE",
"626 676 OFFCURVE",
"617 661 CURVE",
"612 654 OFFCURVE",
"609 647 OFFCURVE",
"607 640 CURVE",
"600 619 OFFCURVE",
"598 587 OFFCURVE",
"598 526 CURVE SMOOTH"
);
}
);
width = 939;
}
);
unicode = 003F;
},
{
glyphname = at;
lastChange = "2012-06-02 17:01:23 +0000";
layers = (
{
layerId = "D5D14868-B3D8-4E08-9530-062F6179E82D";
name = Bold;
paths = (
{
closed = 1;
nodes = (
"776 479 OFFCURVE",
"852 397 OFFCURVE",
"987 397 CURVE SMOOTH",
"1119 397 OFFCURVE",
"1196 479 OFFCURVE",
"1196 615 CURVE SMOOTH",
"1196 750 OFFCURVE",
"1113 833 OFFCURVE",
"985 833 CURVE SMOOTH",
"922 833 OFFCURVE",
"871 814 OFFCURVE",
"832 775 CURVE",
"795 735 OFFCURVE",
"776 683 OFFCURVE",
"776 615 CURVE SMOOTH"
);
},
{
closed = 1;
nodes = (
"1238 166 LINE",
"1166 106 OFFCURVE",
"1086 82 OFFCURVE",
"978 82 CURVE SMOOTH",
"742 82 OFFCURVE",
"580 271 OFFCURVE",
"580 539 CURVE SMOOTH",
"580 672 OFFCURVE",
"615 781 OFFCURVE",
"690 866 CURVE SMOOTH",
"765 953 OFFCURVE",
"861 996 OFFCURVE",
"978 996 CURVE SMOOTH",
"1082 996 OFFCURVE",
"1169 968 OFFCURVE",
"1238 911 CURVE",
"1238 977 LINE",
"1446 977 LINE",
"1446 300 LINE",
"1506 317 OFFCURVE",
"1555 352 OFFCURVE",
"1592 399 CURVE",
"1637 463 OFFCURVE",
"1662 546 OFFCURVE",
"1662 647 CURVE SMOOTH",
"1662 771 OFFCURVE",
"1625 880 OFFCURVE",
"1552 973 CURVE SMOOTH",
"1427 1128 OFFCURVE",
"1248 1211 OFFCURVE",
"1040 1211 CURVE SMOOTH",
"893 1211 OFFCURVE",
"760 1173 OFFCURVE",
"645 1097 CURVE SMOOTH",
"458 974 OFFCURVE",
"350 771 OFFCURVE",
"350 544 CURVE SMOOTH",
"350 451 OFFCURVE",
"366 377 OFFCURVE",
"399 322 CURVE",
"398 322 LINE",
"431 266 OFFCURVE",
"495 188 OFFCURVE",
"568 109 CURVE",
"629 49 OFFCURVE",
"696 8 OFFCURVE",
"769 -14 CURVE SMOOTH",
"845 -38 OFFCURVE",
"929 -49 OFFCURVE",
"1024 -49 CURVE SMOOTH",
"1173 -49 OFFCURVE",
"1329 0 OFFCURVE",
"1474 108 CURVE",
"1403 89 OFFCURVE",
"1326 80 OFFCURVE",
"1238 77 CURVE"
);
},
{
closed = 1;
nodes = (
"1653 180 OFFCURVE",
"1579 139 OFFCURVE",
"1490 113 CURVE",
"1606 -119 LINE",
"1426 -258 OFFCURVE",
"1223 -332 OFFCURVE",
"1024 -332 CURVE SMOOTH",
"781 -332 OFFCURVE",
"567 -246 OFFCURVE",
"400 -83 CURVE SMOOTH",
"232 81 OFFCURVE",
"144 297 OFFCURVE",
"144 544 CURVE SMOOTH",
"144 781 OFFCURVE",
"235 1000 OFFCURVE",
"400 1165 CURVE SMOOTH",
"569 1332 OFFCURVE",
"793 1421 OFFCURVE",
"1038 1421 CURVE SMOOTH",
"1314 1421 OFFCURVE",
"1557 1302 OFFCURVE",
"1720 1094 CURVE SMOOTH",
"1819 965 OFFCURVE",
"1871 812 OFFCURVE",
"1871 651 CURVE SMOOTH",
"1871 476 OFFCURVE",
"1818 338 OFFCURVE",
"1711 236 CURVE SMOOTH"
);
}
);
width = 1998;
}
);
unicode = 0040;
},
{
glyphname = A;
lastChange = "2012-06-02 17:01:23 +0000";
layers = (
{
anchors = (
{
name = ogonek;
position = "{1332, 10}";
},
{
name = top;
position = "{740, 1493}";
}
);
layerId = "D5D14868-B3D8-4E08-9530-062F6179E82D";
name = Bold;
paths = (
{
closed = 1;
nodes = (
"740 1158 LINE",
"722 1104 OFFCURVE",
"705 1052 OFFCURVE",
"688 1001 CURVE SMOOTH",
"671 950 OFFCURVE",
"655 900 OFFCURVE",
"638 849 CURVE SMOOTH",
"621 798 OFFCURVE",
"603 747 OFFCURVE",
"586 695 CURVE SMOOTH",
"569 642 OFFCURVE",
"551 588 OFFCURVE",
"532 532 CURVE",
"949 532 LINE"
);
},
{
closed = 1;
nodes = (
"625 1493 LINE",
"856 1493 LINE",
"1445 0 LINE",
"1083 0 LINE",
"1030 231 LINE",
"449 231 LINE",
"377 0 LINE",
"35 0 LINE"
);
}
);
width = 1480;
}
);
unicode = 0041;
},
{
glyphname = B;
lastChange = "2012-06-02 17:01:23 +0000";
layers = (
{
layerId = "D5D14868-B3D8-4E08-9530-062F6179E82D";
name = Bold;
paths = (
{
closed = 1;
nodes = (
"574 677 LINE",
"574 357 LINE",
"844 357 LINE SMOOTH",
"941 357 OFFCURVE",
"1011 370 OFFCURVE",
"1053 396 CURVE",
"1052 396 LINE",
"1090 419 OFFCURVE",
"1109 467 OFFCURVE",
"1109 541 CURVE SMOOTH",
"1109 561 OFFCURVE",
"1089 588 OFFCURVE",
"1048 622 CURVE SMOOTH",
"1005 659 OFFCURVE",
"937 677 OFFCURVE",
"844 677 CURVE SMOOTH"
);
},
{
closed = 1;
nodes = (
"574 1288 LINE",
"574 908 LINE",
"820 908 LINE SMOOTH",
"980 908 OFFCURVE",
"1060 967 OFFCURVE",
"1060 1084 CURVE SMOOTH",
"1060 1204 OFFCURVE",
"987 1288 OFFCURVE",
"820 1288 CURVE SMOOTH"
);
},
{
closed = 1;
nodes = (
"306 1493 LINE",
"787 1493 LINE SMOOTH",
"946 1493 OFFCURVE",
"1069 1458 OFFCURVE",
"1153 1392 CURVE SMOOTH",
"1237 1326 OFFCURVE",
"1281 1229 OFFCURVE",
"1281 1105 CURVE SMOOTH",
"1281 961 OFFCURVE",
"1233 862 OFFCURVE",
"1136 808 CURVE",
"1321 741 OFFCURVE",
"1406 610 OFFCURVE",
"1406 435 CURVE SMOOTH",
"1406 156 OFFCURVE",
"1188 0 OFFCURVE",
"853 0 CURVE SMOOTH",
"306 0 LINE"
);
}
);
width = 1531;
}
);
unicode = 0042;
},
{
glyphname = C;
lastChange = "2012-06-02 17:13:04 +0000";
layers = (
{
anchors = (
{
name = bottom;
position = "{797, 0}";
},
{
name = top;
position = "{797, 1493}";
}
);
layerId = "D5D14868-B3D8-4E08-9530-062F6179E82D";
name = Bold;
paths = (
{
closed = 1;
nodes = (
"1358 1106 LINE",
"1131 1261 OFFCURVE",
"1006 1285 OFFCURVE",
"851 1285 CURVE SMOOTH",
"550 1285 OFFCURVE",
"418 1097 OFFCURVE",
"418 745 CURVE SMOOTH",
"423 440 OFFCURVE",
"572 339 OFFCURVE",
"881 339 CURVE SMOOTH",
"1036 339 OFFCURVE",
"1191 413 OFFCURVE",
"1358 568 CURVE",
"1358 127 LINE",
"1207 24 OFFCURVE",
"1046 -28 OFFCURVE",
"870 -28 CURVE SMOOTH",
"419 -28 OFFCURVE",
"140 270 OFFCURVE",
"140 745 CURVE SMOOTH",
"140 1218 OFFCURVE",
"388 1499 OFFCURVE",
"840 1519 CURVE SMOOTH",
"1015 1527 OFFCURVE",
"1148 1518 OFFCURVE",
"1358 1416 CURVE"
);
}
);
width = 1594;
}
);
unicode = 0043;
},
{
glyphname = D;
lastChange = "2012-06-02 17:01:23 +0000";
layers = (
{
anchors = (
{
name = center;
position = "{862, 747}";
},
{
name = top;
position = "{862, 1493}";
}
);
layerId = "D5D14868-B3D8-4E08-9530-062F6179E82D";
name = Bold;
paths = (
{
closed = 1;
nodes = (
"583 1260 LINE",
"583 433 LINE",
"776 433 LINE SMOOTH",
"962 433 OFFCURVE",
"1090 456 OFFCURVE",
"1160 503 CURVE",
"1220 551 OFFCURVE",
"1277 645 OFFCURVE",
"1304 770 CURVE",
"1304 934 OFFCURVE",
"1263 1056 OFFCURVE",
"1176 1138 CURVE SMOOTH",
"1089 1220 OFFCURVE",
"957 1260 OFFCURVE",
"776 1260 CURVE SMOOTH"
);
},
{
closed = 1;
nodes = (
"306 1493 LINE",
"738 1493 LINE SMOOTH",
"1017 1493 OFFCURVE",
"1232 1429 OFFCURVE",
"1368 1312 CURVE",
"1501 1189 OFFCURVE",
"1573 1000 OFFCURVE",
"1573 748 CURVE SMOOTH",
"1573 493 OFFCURVE",
"1504 304 OFFCURVE",
"1367 181 CURVE SMOOTH",
"1230 60 OFFCURVE",
"1021 0 OFFCURVE",
"738 0 CURVE SMOOTH",
"306 0 LINE"
);
}
);
width = 1723;
}
);
unicode = 0044;
},
{
glyphname = E;
lastChange = "2012-06-02 17:01:23 +0000";
layers = (
{
anchors = (
{
name = bottom;
position = "{783, 0}";
},
{
name = ogonek;
position = "{1408, 10}";
},
{
name = top;
position = "{783, 1493}";
}
);
layerId = "D5D14868-B3D8-4E08-9530-062F6179E82D";
name = Bold;
paths = (
{
closed = 1;
nodes = (
"306 1493 LINE",
"1278 1493 LINE",
"1278 1256 LINE",
"574 1256 LINE",
"574 912 LINE",
"1248 912 LINE",
"1248 675 LINE",
"574 675 LINE",
"574 370 LINE",
"1295 370 LINE",
"1295 0 LINE",
"306 0 LINE"
);
}
);
width = 1565;
}
);
unicode = 0045;
},
{
glyphname = F;
lastChange = "2012-06-02 17:10:12 +0000";
layers = (
{
layerId = "D5D14868-B3D8-4E08-9530-062F6179E82D";
name = Bold;
paths = (
{
closed = 1;
nodes = (
"305 1493 LINE",
"1156 1493 LINE",
"1156 1246 LINE",
"570 1246 LINE",
"567 1187 OFFCURVE",
"565 1135 OFFCURVE",
"562 1082 CURVE SMOOTH",
"558 1029 OFFCURVE",
"556 975 OFFCURVE",
"553 914 CURVE",
"1105 914 LINE",
"1105 639 LINE",
"563 639 LINE",
"582 0 LINE",
"255 0 LINE"
);
}
);
width = 1159;
}
);
unicode = 0046;
},
{
glyphname = G;
lastChange = "2012-06-02 17:11:56 +0000";
layers = (
{
anchors = (
{
name = bottom;
position = "{846, 0}";
},
{
name = top;
position = "{846, 1493}";
}
);
layerId = "D5D14868-B3D8-4E08-9530-062F6179E82D";
name = Bold;
paths = (
{
closed = 1;
nodes = (
"1170 527 LINE",
"867 527 LINE",
"867 788 LINE",
"1465 788 LINE",
"1465 150 LINE",
"1298 31 OFFCURVE",
"1109 -28 OFFCURVE",
"896 -28 CURVE SMOOTH",
"664 -28 OFFCURVE",
"481 40 OFFCURVE",
"348 177 CURVE SMOOTH",
"217 316 OFFCURVE",
"151 505 OFFCURVE",
"151 745 CURVE SMOOTH",
"151 1229 OFFCURVE",
"432 1519 OFFCURVE",
"896 1519 CURVE SMOOTH",
"1089 1519 OFFCURVE",
"1258 1477 OFFCURVE",
"1418 1377 CURVE",
"1418 1089 LINE",
"1242 1239 OFFCURVE",
"1080 1304 OFFCURVE",
"912 1304 CURVE SMOOTH",
"591 1304 OFFCURVE",
"430 1125 OFFCURVE",
"429 766 CURVE",
"437 609 OFFCURVE",
"477 496 OFFCURVE",
"549 441 CURVE",
"548 441 LINE",
"625 386 OFFCURVE",
"747 358 OFFCURVE",
"912 358 CURVE SMOOTH",
"979 358 OFFCURVE",
"1035 363 OFFCURVE",
"1086 374 CURVE",
"1085 374 LINE",
"1122 383 OFFCURVE",
"1150 394 OFFCURVE",
"1170 409 CURVE"
);
}
);
width = 1692;
}
);
unicode = 0047;
},
{
glyphname = H;
lastChange = "2012-06-02 17:01:23 +0000";
layers = (
{
anchors = (
{
name = center;
position = "{879, 747}";
},
{
name = top;
position = "{879, 1493}";
}
);
layerId = "D5D14868-B3D8-4E08-9530-062F6179E82D";
name = Bold;
paths = (
{
closed = 1;
nodes = (
"311 1493 LINE",
"589 1493 LINE",
"589 817 LINE",
"1171 817 LINE",
"1171 1493 LINE",
"1449 1493 LINE",
"1468 0 LINE",
"1171 0 LINE",
"1171 476 LINE",
"589 476 LINE",
"589 0 LINE",
"292 0 LINE"
);
}
);
width = 1758;
}
);
unicode = 0048;
},
{
glyphname = I;
lastChange = "2012-06-02 17:01:23 +0000";
layers = (
{
anchors = (
{
name = ogonek;
position = "{693, 10}";
},
{
name = top;
position = "{385, 1493}";
}
);
layerId = "D5D14868-B3D8-4E08-9530-062F6179E82D";
name = Bold;
paths = (
{
closed = 1;
nodes = (
"248 1493 LINE",
"505 1493 LINE",
"524 0 LINE",
"217 0 LINE"
);
}
);
width = 770;
}
);
unicode = 0049;
},
{
glyphname = J;
lastChange = "2012-06-02 17:01:23 +0000";
layers = (
{
anchors = (
{
name = top;
position = "{425, 1493}";
}
);
layerId = "D5D14868-B3D8-4E08-9530-062F6179E82D";
name = Bold;
paths = (
{
closed = 1;
nodes = (
"395 1497 LINE",
"672 1480 LINE",
"619 96 LINE SMOOTH",
"615 -83 OFFCURVE",
"576 -214 OFFCURVE",
"504 -289 CURVE SMOOTH",
"431 -366 OFFCURVE",
"313 -407 OFFCURVE",
"150 -410 CURVE",
"3 -395 LINE",
"3 0 LINE",
"138 -30 LINE",
"206 -26 OFFCURVE",
"262 -8 OFFCURVE",
"293 21 CURVE SMOOTH",
"324 50 OFFCURVE",
"340 80 OFFCURVE",
"341 111 CURVE SMOOTH"
);
}
);
width = 850;
}
);
unicode = 004A;
},
{
glyphname = K;
lastChange = "2012-06-02 17:01:23 +0000";
layers = (
{
anchors = (
{
name = bottom;
position = "{838, 0}";
},
{
name = top;
position = "{838, 1493}";
}
);
layerId = "D5D14868-B3D8-4E08-9530-062F6179E82D";
name = Bold;
paths = (
{
closed = 1;
nodes = (
"317 1493 LINE",
"584 1493 LINE",
"567 945 LINE",
"1148 1493 LINE",
"1505 1493 LINE",
"760 793 LINE",
"1551 0 LINE",
"988 0 LINE",
"571 590 LINE",
"574 543 OFFCURVE",
"577 494 OFFCURVE",
"580 443 CURVE SMOOTH",
"586 342 OFFCURVE",
"592 240 OFFCURVE",
"597 141 CURVE SMOOTH",
"600 92 OFFCURVE",
"602 45 OFFCURVE",
"604 0 CURVE",
"277 0 LINE"
);
}
);
width = 1675;
}
);
unicode = 004B;
},
{
glyphname = L;
lastChange = "2012-06-02 17:01:23 +0000";
layers = (
{
anchors = (
{
name = bottom;
position = "{629, 0}";
},
{
name = top;
position = "{629, 1493}";
}
);
layerId = "D5D14868-B3D8-4E08-9530-062F6179E82D";
name = Bold;
paths = (
{
closed = 1;
nodes = (
"307 1493 LINE",
"574 1493 LINE",
"565 370 LINE",
"1257 370 LINE",
"1234 0 LINE",
"287 0 LINE"
);
}
);
width = 1257;
}
);
unicode = 004C;
},
{
glyphname = M;
lastChange = "2012-06-02 17:13:26 +0000";
layers = (
{
layerId = "D5D14868-B3D8-4E08-9530-062F6179E82D";
name = Bold;
paths = (
{
closed = 1;
nodes = (
"317 1493 LINE",
"665 1493 LINE",
"993 770 LINE",
"1340 1493 LINE",
"1669 1493 LINE",
"1729 0 LINE",
"1377 0 LINE",
"1409 1027 LINE",
"1135 225 LINE",
"850 225 LINE",
"576 1029 LINE",
"581 857 OFFCURVE",
"587 684 OFFCURVE",
"592 511 CURVE SMOOTH",
"597 338 OFFCURVE",
"603 167 OFFCURVE",
"608 0 CURVE",
"257 0 LINE"
);
}
);
width = 1985;
}
);
unicode = 004D;
},
{
glyphname = N;
lastChange = "2012-06-02 17:01:23 +0000";
layers = (
{
anchors = (
{
name = bottom;
position = "{871, 0}";
},
{
name = top;
position = "{871, 1493}";
}
);
layerId = "D5D14868-B3D8-4E08-9530-062F6179E82D";
name = Bold;
paths = (
{
closed = 1;
nodes = (
"308 1465 LINE",
"607 1465 LINE",
"1159 451 LINE",
"1185 1493 LINE",
"1437 1493 LINE",
"1437 0 LINE",
"1099 0 LINE",
"540 1054 LINE",
"549 879 OFFCURVE",
"557 703 OFFCURVE",
"566 524 CURVE SMOOTH",
"574 345 OFFCURVE",
"582 171 OFFCURVE",
"590 0 CURVE",
"269 0 LINE"
);
}
);
width = 1741;
}
);
unicode = 004E;
},
{
glyphname = O;
lastChange = "2012-06-02 17:01:23 +0000";
layers = (
{
anchors = (
{
name = top;
position = "{855, 1493}";
}
);
layerId = "D5D14868-B3D8-4E08-9530-062F6179E82D";
name = Bold;
paths = (
{
closed = 1;
nodes = (
"732 1287 OFFCURVE",
"628 1234 OFFCURVE",
"553 1146 CURVE",
"481 1050 OFFCURVE",
"439 912 OFFCURVE",
"439 745 CURVE SMOOTH",
"439 613 OFFCURVE",
"475 526 OFFCURVE",
"543 482 CURVE",
"619 437 OFFCURVE",
"724 413 OFFCURVE",
"856 413 CURVE SMOOTH",
"1121 413 OFFCURVE",
"1270 481 OFFCURVE",
"1270 745 CURVE SMOOTH",
"1270 1088 OFFCURVE",
"1109 1287 OFFCURVE",
"856 1287 CURVE SMOOTH"
);
},
{
closed = 1;
nodes = (
"1065 1519 OFFCURVE",
"1234 1448 OFFCURVE",
"1361 1306 CURVE SMOOTH",
"1486 1165 OFFCURVE",
"1549 981 OFFCURVE",
"1549 745 CURVE SMOOTH",
"1549 512 OFFCURVE",
"1486 325 OFFCURVE",
"1361 184 CURVE SMOOTH",
"1233 43 OFFCURVE",
"1065 -28 OFFCURVE",
"856 -28 CURVE SMOOTH",
"645 -28 OFFCURVE",
"476 43 OFFCURVE",
"349 184 CURVE SMOOTH",
"224 325 OFFCURVE",
"161 512 OFFCURVE",
"161 745 CURVE SMOOTH",
"161 981 OFFCURVE",
"224 1165 OFFCURVE",
"349 1306 CURVE SMOOTH",
"476 1448 OFFCURVE",
"645 1519 OFFCURVE",
"856 1519 CURVE SMOOTH"
);
}
);
width = 1709;
}
);
unicode = 004F;
},
{
glyphname = P;
lastChange = "2012-06-02 17:01:23 +0000";
layers = (
{
layerId = "D5D14868-B3D8-4E08-9530-062F6179E82D";
name = Bold;
paths = (
{
closed = 1;
nodes = (
"586 1335 LINE",
"583 1255 OFFCURVE",
"581 1182 OFFCURVE",
"578 1109 CURVE SMOOTH",
"574 1036 OFFCURVE",
"572 962 OFFCURVE",
"569 879 CURVE",
"789 879 LINE SMOOTH",
"957 879 OFFCURVE",
"1051 960 OFFCURVE",
"1051 1108 CURVE SMOOTH",
"1051 1253 OFFCURVE",
"957 1335 OFFCURVE",
"789 1335 CURVE SMOOTH"
);
},
{
closed = 1;
nodes = (
"312 1493 LINE",
"771 1493 LINE SMOOTH",
"1116 1493 OFFCURVE",
"1291 1336 OFFCURVE",
"1291 1032 CURVE SMOOTH",
"1291 879 OFFCURVE",
"1246 761 OFFCURVE",
"1157 678 CURVE SMOOTH",
"1070 593 OFFCURVE",
"942 551 OFFCURVE",
"771 551 CURVE SMOOTH",
"576 551 LINE",
"557 0 LINE",
"251 0 LINE"
);
}
);
width = 1294;
}
);
unicode = 0050;
},
{
glyphname = Q;
lastChange = "2012-06-02 17:01:23 +0000";
layers = (
{
layerId = "D5D14868-B3D8-4E08-9530-062F6179E82D";
name = Bold;
paths = (
{
closed = 1;
nodes = (
"666 1287 OFFCURVE",
"562 1234 OFFCURVE",
"487 1146 CURVE",
"415 1050 OFFCURVE",
"373 912 OFFCURVE",
"373 745 CURVE SMOOTH",
"373 614 OFFCURVE",
"407 529 OFFCURVE",
"476 488 CURVE SMOOTH",
"552 445 OFFCURVE",
"620 420 OFFCURVE",
"671 413 CURVE SMOOTH",
"736 402 LINE",
"742 413 OFFCURVE",
"749 424 OFFCURVE",
"757 437 CURVE",
"764 450 OFFCURVE",
"772 462 OFFCURVE",
"779 475 CURVE SMOOTH",
"786 488 OFFCURVE",
"794 500 OFFCURVE",
"801 511 CURVE SMOOTH",
"808 522 OFFCURVE",
"814 533 OFFCURVE",
"819 542 CURVE",
"904 503 OFFCURVE",
"988 477 OFFCURVE",
"1057 466 CURVE",
"1155 523 OFFCURVE",
"1204 616 OFFCURVE",
"1204 745 CURVE SMOOTH",
"1204 1085 OFFCURVE",
"1042 1287 OFFCURVE",
"790 1287 CURVE SMOOTH"
);
},
{
closed = 1;
nodes = (
"1595 -251 LINE",
"1042 -251 LINE",
"844 -26 LINE",
"829 -27 OFFCURVE",
"816 -28 OFFCURVE",
"807 -28 CURVE SMOOTH",
"798 -28 OFFCURVE",
"789 -28 OFFCURVE",
"780 -28 CURVE SMOOTH",
"372 -28 OFFCURVE",
"95 277 OFFCURVE",
"95 745 CURVE SMOOTH",
"95 1212 OFFCURVE",
"367 1519 OFFCURVE",
"790 1519 CURVE SMOOTH",
"1209 1519 OFFCURVE",
"1482 1212 OFFCURVE",
"1482 745 CURVE SMOOTH",
"1482 575 OFFCURVE",
"1455 439 OFFCURVE",
"1402 338 CURVE SMOOTH",
"1355 251 OFFCURVE",
"1310 180 OFFCURVE",
"1261 121 CURVE"
);
}
);
width = 1705;
}
);
unicode = 0051;
},
{
glyphname = R;
lastChange = "2012-06-02 17:01:23 +0000";
layers = (
{
anchors = (
{
name = bottom;
position = "{784, 0}";
},
{
name = top;
position = "{784, 1493}";
}
);
layerId = "D5D14868-B3D8-4E08-9530-062F6179E82D";
name = Bold;
paths = (
{
closed = 1;
nodes = (
"1268 884 OFFCURVE",
"1206 765 OFFCURVE",
"1098 700 CURVE",
"1165 649 OFFCURVE",
"1226 562 OFFCURVE",
"1287 442 CURVE SMOOTH",
"1319 378 OFFCURVE",
"1359 299 OFFCURVE",
"1399 220 CURVE SMOOTH",
"1439 141 OFFCURVE",
"1478 63 OFFCURVE",
"1509 0 CURVE",
"1150 0 LINE",
"997 387 LINE",
"998 384 LINE",
"911 563 OFFCURVE",
"851 599 OFFCURVE",
"716 599 CURVE SMOOTH",
"611 599 LINE",
"611 0 LINE",
"306 0 LINE",
"306 1493 LINE",
"777 1493 LINE SMOOTH",
"932 1493 OFFCURVE",
"1054 1457 OFFCURVE",
"1138 1383 CURVE SMOOTH",
"1222 1309 OFFCURVE",
"1268 1196 OFFCURVE",
"1268 1047 CURVE SMOOTH"
);
},
{
closed = 1;
nodes = (
"592 1316 LINE",
"592 870 LINE",
"796 870 LINE SMOOTH",
"927 870 OFFCURVE",
"1057 959 OFFCURVE",
"1057 1047 CURVE SMOOTH",
"1057 1259 OFFCURVE",
"925 1316 OFFCURVE",
"796 1316 CURVE SMOOTH"
);
}
);
width = 1568;
}
);
unicode = 0052;
},
{
glyphname = S;
lastChange = "2012-06-02 17:01:23 +0000";
layers = (
{
anchors = (
{
name = bottom;
position = "{723, 0}";
},
{
name = top;
position = "{723, 1493}";
}
);
layerId = "D5D14868-B3D8-4E08-9530-062F6179E82D";
name = Bold;
paths = (
{
closed = 1;
nodes = (
"1200 1162 LINE",
"1021 1246 OFFCURVE",
"884 1287 OFFCURVE",
"769 1287 CURVE SMOOTH",
"584 1287 OFFCURVE",
"480 1217 OFFCURVE",
"480 1092 CURVE SMOOTH",
"480 1040 OFFCURVE",
"494 1002 OFFCURVE",
"523 978 CURVE",
"522 979 LINE",
"556 950 OFFCURVE",
"622 927 OFFCURVE",
"719 909 CURVE SMOOTH",
"836 886 LINE",
"835 886 LINE",
"1142 827 OFFCURVE",
"1285 681 OFFCURVE",
"1285 429 CURVE SMOOTH",
"1285 130 OFFCURVE",
"1085 -28 OFFCURVE",
"704 -28 CURVE SMOOTH",
"565 -28 OFFCURVE",
"400 6 OFFCURVE",
"217 74 CURVE",
"217 468 LINE",
"406 363 OFFCURVE",
"565 308 OFFCURVE",
"704 308 CURVE SMOOTH",
"805 308 OFFCURVE",
"882 327 OFFCURVE",
"936 366 CURVE SMOOTH",
"985 401 OFFCURVE",
"1009 433 OFFCURVE",
"1009 462 CURVE SMOOTH",
"1009 489 OFFCURVE",
"990 518 OFFCURVE",
"957 550 CURVE",
"921 581 OFFCURVE",
"848 610 OFFCURVE",
"765 629 CURVE SMOOTH",
"648 652 LINE SMOOTH",
"347 709 OFFCURVE",
"212 840 OFFCURVE",
"212 1076 CURVE SMOOTH",
"212 1352 OFFCURVE",
"420 1519 OFFCURVE",
"747 1519 CURVE SMOOTH",
"883 1519 OFFCURVE",
"1034 1491 OFFCURVE",
"1200 1436 CURVE"
);
}
);
width = 1445;
}
);
unicode = 0053;
},
{
glyphname = T;
lastChange = "2012-06-02 17:01:23 +0000";
layers = (
{
anchors = (
{
name = bottom;
position = "{684, 0}";
},
{
name = center;
position = "{684, 747}";
},
{
name = top;
position = "{684, 1493}";
}
);
layerId = "D5D14868-B3D8-4E08-9530-062F6179E82D";
name = Bold;
paths = (
{
closed = 1;
nodes = (
"47 1493 LINE",
"1322 1493 LINE",
"1322 1254 LINE",
"820 1274 LINE",
"858 0 LINE",
"511 0 LINE",
"549 1274 LINE",
"47 1255 LINE"
);
}
);
width = 1368;
}
);
unicode = 0054;
},
{
glyphname = U;
lastChange = "2012-06-02 17:01:23 +0000";
layers = (
{
anchors = (
{
name = ogonek;
position = "{1500, 10}";
},
{
name = top;
position = "{834, 1493}";
}
);
layerId = "D5D14868-B3D8-4E08-9530-062F6179E82D";
name = Bold;
paths = (
{
closed = 1;
nodes = (
"254 1493 LINE",
"523 1493 LINE",
"523 727 LINE SMOOTH",
"523 585 OFFCURVE",
"548 483 OFFCURVE",
"597 422 CURVE",
"597 423 LINE",
"644 366 OFFCURVE",
"724 337 OFFCURVE",
"835 337 CURVE SMOOTH",
"946 337 OFFCURVE",
"1026 366 OFFCURVE",
"1073 423 CURVE",
"1073 422 LINE",
"1122 483 OFFCURVE",
"1147 585 OFFCURVE",
"1147 727 CURVE SMOOTH",
"1147 1493 LINE",
"1415 1493 LINE",
"1415 570 LINE SMOOTH",
"1415 174 OFFCURVE",
"1219 -28 OFFCURVE",
"835 -28 CURVE SMOOTH",
"452 -28 OFFCURVE",
"254 177 OFFCURVE",
"254 570 CURVE SMOOTH"
);
}
);
width = 1667;
}
);
unicode = 0055;
},
{
glyphname = V;
lastChange = "2012-06-02 17:01:23 +0000";
layers = (
{
layerId = "D5D14868-B3D8-4E08-9530-062F6179E82D";
name = Bold;
paths = (
{
closed = 1;
nodes = (
"571 0 LINE",
"52 1493 LINE",
"331 1493 LINE",
"755 493 LINE",
"1179 1493 LINE",
"1457 1493 LINE",
"939 0 LINE"
);
}
);
width = 1509;
}
);
unicode = 0056;
},
{
glyphname = W;
lastChange = "2012-06-02 17:13:59 +0000";
layers = (
{
anchors = (
{
name = top;
position = "{1096, 1493}";
}
);
layerId = "D5D14868-B3D8-4E08-9530-062F6179E82D";
name = Bold;
paths = (
{
closed = 1;
nodes = (
"158 1493 LINE",
"418 1493 LINE",
"688 532 LINE",
"737 630 OFFCURVE",
"788 729 OFFCURVE",
"840 829 CURVE SMOOTH",
"891 929 OFFCURVE",
"941 1027 OFFCURVE",
"989 1122 CURVE",
"1206 1122 LINE",
"1482 515 LINE",
"1532 675 OFFCURVE",
"1583 847 OFFCURVE",
"1635 1011 CURVE SMOOTH",
"1687 1175 OFFCURVE",
"1738 1336 OFFCURVE",
"1787 1493 CURVE",
"2049 1493 LINE",
"1673 0 LINE",
"1337 0 LINE",
"1102 678 LINE",
"1061 565 OFFCURVE",
"1018 450 OFFCURVE",
"974 332 CURVE SMOOTH",
"930 214 OFFCURVE",
"888 100 OFFCURVE",
"847 0 CURVE",
"492 0 LINE"
);
}
);
width = 2192;
}
);
unicode = 0057;
},
{
glyphname = X;
lastChange = "2012-06-02 17:01:23 +0000";
layers = (
{
layerId = "D5D14868-B3D8-4E08-9530-062F6179E82D";
name = Bold;
paths = (
{
closed = 1;
nodes = (
"239 1493 LINE",
"532 1493 LINE",
"863 928 LINE",
"1195 1493 LINE",
"1489 1493 LINE",
"1030 700 LINE",
"1527 0 LINE",
"1120 0 LINE",
"847 470 LINE",
"573 0 LINE",
"165 0 LINE",
"681 702 LINE"
);
}
);
width = 1711;
}
);
unicode = 0058;
},
{
glyphname = Y;
lastChange = "2012-06-02 17:01:23 +0000";
layers = (
{
anchors = (
{
name = top;
position = "{691, 1493}";
}
);
layerId = "D5D14868-B3D8-4E08-9530-062F6179E82D";
name = Bold;
paths = (
{
closed = 1;
nodes = (
"32 1493 LINE",
"323 1493 LINE",
"693 809 LINE",
"1060 1493 LINE",
"1351 1493 LINE",
"854 513 LINE",
"854 0 LINE",
"519 0 LINE",
"519 513 LINE"
);
}
);
width = 1381;
}
);
unicode = 0059;
},
{
glyphname = Z;
lastChange = "2012-06-02 17:01:23 +0000";
layers = (
{
anchors = (
{
name = top;
position = "{895, 1493}";
}
);
layerId = "D5D14868-B3D8-4E08-9530-062F6179E82D";
name = Bold;
paths = (
{
closed = 1;
nodes = (
"294 1493 LINE",
"1483 1493 LINE",
"1483 1294 LINE",
"635 361 LINE",
"1505 361 LINE",
"1505 0 LINE",
"272 0 LINE",
"272 323 LINE",
"1120 1256 LINE",
"294 1256 LINE"
);
}
);
width = 1790;
}
);
unicode = 005A;
},
{
glyphname = bracketleft;
lastChange = "2012-06-02 17:01:23 +0000";
layers = (
{
layerId = "D5D14868-B3D8-4E08-9530-062F6179E82D";
name = Bold;
paths = (
{
closed = 1;
nodes = (
"306 1527 LINE",
"776 1527 LINE",
"776 1319 LINE",
"552 1319 LINE",
"552 31 LINE",
"776 31 LINE",
"776 -252 LINE",
"306 -252 LINE"
);
}
);
width = 969;
}
);
unicode = 005B;
},
{
glyphname = backslash;
lastChange = "2012-06-02 17:01:23 +0000";
layers = (
{
layerId = "D5D14868-B3D8-4E08-9530-062F6179E82D";
name = Bold;
paths = (
{
closed = 1;
nodes = (
"237 1462 LINE",
"687 -202 LINE",
"412 -191 LINE",
"0 1469 LINE"
);
}
);
width = 687;
}
);
unicode = 005C;
},
{
glyphname = bracketright;
lastChange = "2012-06-02 17:01:23 +0000";
layers = (
{
layerId = "D5D14868-B3D8-4E08-9530-062F6179E82D";
name = Bold;
paths = (
{
closed = 1;
nodes = (
"662 1527 LINE",
"662 -252 LINE",
"191 -252 LINE",
"191 21 LINE",
"414 21 LINE",
"414 1319 LINE",
"191 1319 LINE",
"191 1527 LINE"
);
}
);
width = 964;
}
);
unicode = 005D;
},
{
glyphname = asciicircum;
lastChange = "2012-06-02 17:01:23 +0000";
layers = (
{
layerId = "D5D14868-B3D8-4E08-9530-062F6179E82D";
name = Bold;
paths = (
{
closed = 1;
nodes = (
"807 1468 LINE",
"1408 874 LINE",
"1009 874 LINE",
"719 1272 LINE",
"430 874 LINE",
"31 874 LINE",
"632 1468 LINE"
);
}
);
width = 1439;
}
);
unicode = 005E;
},
{
glyphname = underscore;
lastChange = "2012-06-02 17:01:23 +0000";
layers = (
{
layerId = "D5D14868-B3D8-4E08-9530-062F6179E82D";
name = Bold;
paths = (
{
closed = 1;
nodes = (
"1374 -209 LINE",
"1374 -451 LINE",
"306 -451 LINE",
"306 -209 LINE"
);
}
);
width = 1678;
}
);
unicode = 005F;
},
{
glyphname = grave;
lastChange = "2012-06-02 17:01:23 +0000";
layers = (
{
anchors = (
{
name = _top;
position = "{333, 1120}";
}
);
layerId = "D5D14868-B3D8-4E08-9530-062F6179E82D";
name = Bold;
paths = (
{
closed = 1;
nodes = (
"306 1603 LINE",
"626 1180 LINE",
"274 1180 LINE",
"40 1603 LINE"
);
}
);
width = 633;
}
);
unicode = 0060;
},
{
glyphname = a;
lastChange = "2012-10-07 22:53:18 +0000";
layers = (
{
anchors = (
{
name = ogonek;
position = "{802, -27}";
},
{
name = top;
position = "{686, 1120}";
}
);
layerId = "D5D14868-B3D8-4E08-9530-062F6179E82D";
name = Bold;
paths = (
{
closed = 1;
nodes = (
"669 534 LINE SMOOTH",
"550 534 OFFCURVE",
"473 522 OFFCURVE",
"438 497 CURVE SMOOTH",
"407 476 OFFCURVE",
"391 440 OFFCURVE",
"390 389 CURVE",
"397 356 OFFCURVE",
"414 333 OFFCURVE",
"439 326 CURVE SMOOTH",
"477 315 OFFCURVE",
"526 309 OFFCURVE",
"585 309 CURVE",
"736 309 OFFCURVE",
"786 333 OFFCURVE",
"786 533 CURVE SMOOTH",
"786 534 LINE"
);
},
{
closed = 1;
nodes = (
"1129 0 LINE",
"882 0 LINE",
"882 86 LINE",
"802 13 OFFCURVE",
"698 -27 OFFCURVE",
"559 -27 CURVE SMOOTH",
"440 -27 OFFCURVE",
"349 6 OFFCURVE",
"277 73 CURVE SMOOTH",
"206 142 OFFCURVE",
"171 231 OFFCURVE",
"171 342 CURVE SMOOTH",
"171 602 OFFCURVE",
"339 735 OFFCURVE",
"679 735 CURVE SMOOTH",
"881 735 LINE",
"872 855 OFFCURVE",
"781 931 OFFCURVE",
"621 944 CURVE",
"506 944 OFFCURVE",
"383 906 OFFCURVE",
"248 833 CURVE",
"248 1060 LINE",
"394 1117 OFFCURVE",
"525 1145 OFFCURVE",
"641 1145 CURVE SMOOTH",
"968 1145 OFFCURVE",
"1129 977 OFFCURVE",
"1129 634 CURVE SMOOTH"
);
}
);
width = 1300;
}
);
unicode = 0061;
},
{
glyphname = b;
lastChange = "2012-10-07 22:47:52 +0000";
layers = (
{
layerId = "D5D14868-B3D8-4E08-9530-062F6179E82D";
name = Bold;
paths = (
{
closed = 1;
nodes = (
"1069 441 OFFCURVE",
"1096 506 OFFCURVE",
"1111 601 CURVE",
"1107 714 OFFCURVE",
"1083 800 OFFCURVE",
"1043 861 CURVE SMOOTH",
"1005 919 OFFCURVE",
"947 948 OFFCURVE",
"870 948 CURVE SMOOTH",
"793 948 OFFCURVE",
"730 916 OFFCURVE",
"685 860 CURVE",
"640 799 OFFCURVE",
"616 708 OFFCURVE",
"615 595 CURVE",
"639 435 OFFCURVE",
"715 355 OFFCURVE",
"867 354 CURVE",
"935 358 OFFCURVE",
"989 378 OFFCURVE",
"1032 409 CURVE"
);
},
{
closed = 1;
nodes = (
"537 1039 LINE",
"613 1115 OFFCURVE",
"705 1145 OFFCURVE",
"830 1145 CURVE SMOOTH",
"1107 1145 OFFCURVE",
"1295 906 OFFCURVE",
"1295 559 CURVE SMOOTH",
"1295 212 OFFCURVE",
"1107 -27 OFFCURVE",
"830 -27 CURVE SMOOTH",
"705 -27 OFFCURVE",
"608 7 OFFCURVE",
"533 83 CURVE",
"533 0 LINE",
"285 0 LINE",
"304 1527 LINE",
"552 1527 LINE"
);
}
);
width = 1580;
}
);
unicode = 0062;
},
{
glyphname = c;
lastChange = "2012-06-02 17:01:23 +0000";
layers = (
{
anchors = (
{
name = bottom;
position = "{647, 0}";
},
{
name = top;
position = "{647, 1120}";
}
);
layerId = "D5D14868-B3D8-4E08-9530-062F6179E82D";
name = Bold;
paths = (
{
closed = 1;
nodes = (
"1037 829 LINE",
"910 899 OFFCURVE",
"799 934 OFFCURVE",
"706 934 CURVE SMOOTH",
"506 934 OFFCURVE",
"403 795 OFFCURVE",
"400 563 CURVE",
"409 487 OFFCURVE",
"435 429 OFFCURVE",
"475 400 CURVE",
"520 371 OFFCURVE",
"607 351 OFFCURVE",
"700 343 CURVE",
"847 343 LINE SMOOTH",
"890 344 OFFCURVE",
"951 364 OFFCURVE",
"1032 411 CURVE",
"1037 54 LINE",
"920 -1 OFFCURVE",
"808 -27 OFFCURVE",
"687 -27 CURVE SMOOTH",
"352 -27 OFFCURVE",
"135 206 OFFCURVE",
"135 559 CURVE SMOOTH",
"135 920 OFFCURVE",
"350 1145 OFFCURVE",
"698 1145 CURVE SMOOTH",
"809 1145 OFFCURVE",
"921 1119 OFFCURVE",
"1037 1066 CURVE"
);
}
);
width = 1294;
}
);
unicode = 0063;
},
{
glyphname = d;
lastChange = "2012-06-02 17:01:23 +0000";
layers = (
{
anchors = (
{
name = center;
position = "{666, 560}";
}
);
layerId = "D5D14868-B3D8-4E08-9530-062F6179E82D";
name = Bold;
paths = (
{
closed = 1;
nodes = (
"800 1527 LINE",
"1045 1527 LINE",
"1027 0 LINE",
"780 0 LINE",
"780 83 LINE",
"705 7 OFFCURVE",
"608 -27 OFFCURVE",
"483 -27 CURVE SMOOTH",
"204 -27 OFFCURVE",
"18 212 OFFCURVE",
"18 559 CURVE SMOOTH",
"18 906 OFFCURVE",
"204 1145 OFFCURVE",
"483 1145 CURVE SMOOTH",
"608 1145 OFFCURVE",
"707 1107 OFFCURVE",
"783 1032 CURVE"
);
},
{
closed = 1;
nodes = (
"284 853 LINE",
"238 788 OFFCURVE",
"214 698 OFFCURVE",
"213 583 CURVE",
"225 500 OFFCURVE",
"250 442 OFFCURVE",
"287 409 CURVE",
"287 410 LINE",
"324 377 OFFCURVE",
"382 360 OFFCURVE",
"463 360 CURVE SMOOTH",
"628 360 OFFCURVE",
"696 390 OFFCURVE",
"701 590 CURVE",
"697 699 OFFCURVE",
"677 788 OFFCURVE",
"639 849 CURVE SMOOTH",
"601 910 OFFCURVE",
"544 945 OFFCURVE",
"468 945 CURVE SMOOTH",
"391 945 OFFCURVE",
"329 914 OFFCURVE",
"283 852 CURVE"
);
}
);
width = 1331;
}
);
unicode = 0064;
},
{
glyphname = e;
lastChange = "2012-10-07 22:53:11 +0000";
layers = (
{
anchors = (
{
name = bottom;
position = "{724, -27}";
},
{
name = ogonek;
position = "{976, -16}";
},
{
name = top;
position = "{684, 1120}";
}
);
layerId = "D5D14868-B3D8-4E08-9530-062F6179E82D";
name = Bold;
paths = (
{
closed = 1;
nodes = (
"1180 566 LINE",
"401 566 LINE",
"409 466 OFFCURVE",
"440 398 OFFCURVE",
"483 366 CURVE",
"540 331 OFFCURVE",
"633 310 OFFCURVE",
"734 302 CURVE",
"801 302 OFFCURVE",
"858 304 OFFCURVE",
"921 309 CURVE SMOOTH",
"980 314 OFFCURVE",
"1054 341 OFFCURVE",
"1145 389 CURVE",
"1150 65 LINE",
"1006 5 OFFCURVE",
"865 -27 OFFCURVE",
"724 -27 CURVE SMOOTH",
"549 -21 OFFCURVE",
"409 32 OFFCURVE",
"303 133 CURVE SMOOTH",
"198 235 OFFCURVE",
"146 374 OFFCURVE",
"146 551 CURVE SMOOTH",
"158 911 OFFCURVE",
"358 1145 OFFCURVE",
"697 1145 CURVE",
"847 1139 OFFCURVE",
"962 1098 OFFCURVE",
"1042 1022 CURVE",
"1041 1022 LINE",
"1121 946 OFFCURVE",
"1167 829 OFFCURVE",
"1180 671 CURVE"
);
},
{
closed = 1;
nodes = (
"946 791 LINE",
"931 826 OFFCURVE",
"904 867 OFFCURVE",
"873 904 CURVE SMOOTH",
"829 955 OFFCURVE",
"770 980 OFFCURVE",
"697 980 CURVE SMOOTH",
"611 980 OFFCURVE",
"543 955 OFFCURVE",
"493 904 CURVE",
"493 905 LINE",
"454 866 OFFCURVE",
"431 828 OFFCURVE",
"422 790 CURVE"
);
}
);
width = 1367;
}
);
unicode = 0065;
},
{
glyphname = f;
lastChange = "2012-06-02 21:45:02 +0000";
layers = (
{
layerId = "D5D14868-B3D8-4E08-9530-062F6179E82D";
name = Bold;
paths = (
{
closed = 1;
nodes = (
"725 1486 LINE",
"725 1267 LINE",
"533 1291 LINE",
"505 1290 OFFCURVE",
"477 1285 OFFCURVE",
"468 1274 CURVE",
"457 1263 OFFCURVE",
"452 1231 OFFCURVE",
"452 1176 CURVE",
"453 1169 OFFCURVE",
"453 1163 OFFCURVE",
"454 1160 CURVE",
"455 1156 OFFCURVE",
"455 1152 OFFCURVE",
"456 1149 CURVE",
"456 1146 OFFCURVE",
"456 1142 OFFCURVE",
"457 1138 CURVE",
"458 1133 OFFCURVE",
"458 1127 OFFCURVE",
"459 1120 CURVE",
"735 1120 LINE",
"735 875 LINE",
"463 875 LINE",
"468 735 OFFCURVE",
"473 585 OFFCURVE",
"477 436 CURVE SMOOTH",
"481 287 OFFCURVE",
"486 139 OFFCURVE",
"491 0 CURVE",
"167 0 LINE",
"194 875 LINE",
"41 875 LINE",
"41 1120 LINE",
"199 1120 LINE",
"205 1158 LINE",
"206 1285 OFFCURVE",
"238 1376 OFFCURVE",
"305 1429 CURVE",
"304 1429 LINE",
"368 1482 OFFCURVE",
"447 1508 OFFCURVE",
"539 1508 CURVE"
);
}
);
width = 805;
}
);
unicode = 0066;
},
{
glyphname = g;
lastChange = "2012-06-02 17:01:23 +0000";
layers = (
{
anchors = (
{
name = top;
position = "{707, 1120}";
}
);
layerId = "D5D14868-B3D8-4E08-9530-062F6179E82D";
name = Bold;
paths = (
{
closed = 1;
nodes = (
"853 695 OFFCURVE",
"830 784 OFFCURVE",
"787 845 CURVE SMOOTH",
"743 905 OFFCURVE",
"679 937 OFFCURVE",
"598 937 CURVE SMOOTH",
"439 937 OFFCURVE",
"383 826 OFFCURVE",
"361 738 CURVE SMOOTH",
"350 693 OFFCURVE",
"344 643 OFFCURVE",
"343 586 CURVE",
"354 478 OFFCURVE",
"376 409 OFFCURVE",
"405 386 CURVE",
"440 365 OFFCURVE",
"501 353 OFFCURVE",
"585 353 CURVE SMOOTH",
"758 353 OFFCURVE",
"853 366 OFFCURVE",
"853 582 CURVE SMOOTH"
);
},
{
closed = 1;
nodes = (
"1165 166 LINE SMOOTH",
"1157 -57 OFFCURVE",
"1112 -229 OFFCURVE",
"1028 -320 CURVE SMOOTH",
"941 -415 OFFCURVE",
"810 -463 OFFCURVE",
"637 -463 CURVE SMOOTH",
"512 -463 OFFCURVE",
"394 -441 OFFCURVE",
"273 -397 CURVE",
"273 -2 LINE",
"406 -75 OFFCURVE",
"514 -107 OFFCURVE",
"610 -107 CURVE SMOOTH",
"709 -107 OFFCURVE",
"783 -77 OFFCURVE",
"830 -26 CURVE SMOOTH",
"861 10 OFFCURVE",
"883 48 OFFCURVE",
"900 84 CURVE",
"885 73 OFFCURVE",
"867 61 OFFCURVE",
"848 50 CURVE SMOOTH",
"787 17 OFFCURVE",
"714 0 OFFCURVE",
"630 0 CURVE SMOOTH",
"349 0 OFFCURVE",
"166 233 OFFCURVE",
"166 572 CURVE SMOOTH",
"166 912 OFFCURVE",
"349 1145 OFFCURVE",
"630 1145 CURVE SMOOTH",
"763 1145 OFFCURVE",
"863 1108 OFFCURVE",
"939 1024 CURVE",
"942 1041 OFFCURVE",
"944 1058 OFFCURVE",
"946 1075 CURVE",
"947 1092 OFFCURVE",
"949 1107 OFFCURVE",
"950 1120 CURVE",
"1194 1120 LINE"
);
}
);
width = 1414;
}
);
unicode = 0067;
},
{
glyphname = h;
lastChange = "2012-06-02 17:01:23 +0000";
layers = (
{
anchors = (
{
name = center;
position = "{652, 560}";
},
{
name = top;
position = "{652, 1120}";
}
);
layerId = "D5D14868-B3D8-4E08-9530-062F6179E82D";
name = Bold;
paths = (
{
closed = 1;
nodes = (
"1259 0 LINE",
"973 0 LINE",
"993 664 LINE",
"993 663 LINE",
"993 838 OFFCURVE",
"927 940 OFFCURVE",
"798 940 CURVE SMOOTH",
"637 940 OFFCURVE",
"536 813 OFFCURVE",
"536 629 CURVE SMOOTH",
"539 530 OFFCURVE",
"542 422 OFFCURVE",
"546 314 CURVE SMOOTH",
"550 206 OFFCURVE",
"553 99 OFFCURVE",
"556 0 CURVE",
"269 0 LINE",
"308 1527 LINE",
"556 1527 LINE",
"539 1029 LINE",
"619 1109 OFFCURVE",
"714 1145 OFFCURVE",
"837 1145 CURVE SMOOTH",
"1102 1145 OFFCURVE",
"1239 983 OFFCURVE",
"1239 668 CURVE",
"1239 669 LINE"
);
}
);
width = 1303;
}
);
unicode = 0068;
},
{
glyphname = i;
lastChange = "2012-06-02 17:01:23 +0000";
layers = (
{
layerId = "D5D14868-B3D8-4E08-9530-062F6179E82D";
name = Bold;
paths = (
{
closed = 1;
nodes = (
"287 1120 LINE",
"515 1120 LINE",
"524 0 LINE",
"278 0 LINE"
);
},
{
closed = 1;
nodes = (
"288 1527 LINE",
"514 1527 LINE",
"526 1235 LINE",
"276 1235 LINE"
);
}
);
width = 802;
}
);
unicode = 0069;
},
{
glyphname = j;
lastChange = "2012-06-02 17:01:23 +0000";
layers = (
{
layerId = "D5D14868-B3D8-4E08-9530-062F6179E82D";
name = Bold;
paths = (
{
closed = 1;
nodes = (
"298 1116 LINE",
"534 1112 LINE",
"496 10 LINE SMOOTH",
"492 -131 OFFCURVE",
"461 -236 OFFCURVE",
"404 -297 CURVE SMOOTH",
"346 -361 OFFCURVE",
"255 -395 OFFCURVE",
"132 -399 CURVE",
"0 -398 LINE",
"5 -65 LINE",
"113 -66 LINE",
"168 -63 OFFCURVE",
"205 -51 OFFCURVE",
"222 -32 CURVE SMOOTH",
"231 -22 OFFCURVE",
"238 -4 OFFCURVE",
"243 23 CURVE SMOOTH",
"248 49 OFFCURVE",
"250 84 OFFCURVE",
"251 127 CURVE SMOOTH"
);
},
{
closed = 1;
nodes = (
"337 1527 LINE",
"563 1527 LINE",
"575 1235 LINE",
"325 1235 LINE"
);
}
);
width = 693;
}
);
unicode = 006A;
},
{
glyphname = k;
lastChange = "2012-06-02 17:01:23 +0000";
layers = (
{
anchors = (
{
name = bottom;
position = "{681, 0}";
}
);
layerId = "D5D14868-B3D8-4E08-9530-062F6179E82D";
name = Bold;
paths = (
{
closed = 1;
nodes = (
"313 1527 LINE",
"560 1527 LINE",
"551 770 LINE",
"850 1120 LINE",
"1164 1120 LINE",
"742 597 LINE",
"789 551 OFFCURVE",
"840 503 OFFCURVE",
"893 452 CURVE SMOOTH",
"946 401 OFFCURVE",
"999 349 OFFCURVE",
"1053 297 CURVE SMOOTH",
"1107 245 OFFCURVE",
"1160 194 OFFCURVE",
"1213 143 CURVE SMOOTH",
"1266 92 OFFCURVE",
"1315 45 OFFCURVE",
"1361 0 CURVE",
"896 0 LINE",
"557 417 LINE",
"580 0 LINE",
"274 0 LINE"
);
}
);
width = 1361;
}
);
unicode = 006B;
},
{
glyphname = l;
lastChange = "2012-10-07 22:53:36 +0000";
layers = (
{
anchors = (
{
name = bottom;
position = "{346, 0}";
},
{
name = top;
position = "{465, 1556}";
},
{
name = topright;
position = "{680, 1120}";
}
);
layerId = "D5D14868-B3D8-4E08-9530-062F6179E82D";
name = Bold;
paths = (
{
closed = 1;
nodes = (
"270 1527 LINE",
"507 1527 LINE",
"507 287 LINE",
"623 287 LINE",
"623 0 LINE",
"250 0 LINE"
);
}
);
width = 873;
}
);
unicode = 006C;
},
{
glyphname = m;
lastChange = "2012-06-02 17:01:23 +0000";
layers = (
{
layerId = "D5D14868-B3D8-4E08-9530-062F6179E82D";
name = Bold;
paths = (
{
closed = 1;
nodes = (
"1115 1050 OFFCURVE",
"1153 1010 OFFCURVE",
"1180 961 CURVE",
"1255 1069 OFFCURVE",
"1343 1145 OFFCURVE",
"1522 1145 CURVE SMOOTH",
"1643 1145 OFFCURVE",
"1738 1102 OFFCURVE",
"1802 1021 CURVE SMOOTH",
"1866 940 OFFCURVE",
"1900 820 OFFCURVE",
"1900 668 CURVE",
"1900 669 LINE",
"1903 564 OFFCURVE",
"1906 450 OFFCURVE",
"1910 335 CURVE SMOOTH",
"1914 219 OFFCURVE",
"1917 105 OFFCURVE",
"1920 0 CURVE",
"1603 0 LINE",
"1653 693 LINE",
"1653 877 OFFCURVE",
"1618 949 OFFCURVE",
"1502 949 CURVE SMOOTH",
"1350 949 OFFCURVE",
"1261 818 OFFCURVE",
"1261 627 CURVE SMOOTH",
"1250 0 LINE",
"935 0 LINE",
"1004 704 LINE",
"1003 877 OFFCURVE",
"947 959 OFFCURVE",
"824 959 CURVE SMOOTH",
"748 959 OFFCURVE",
"688 928 OFFCURVE",
"640 865 CURVE SMOOTH",
"590 800 OFFCURVE",
"565 721 OFFCURVE",
"565 629 CURVE SMOOTH",
"568 530 OFFCURVE",
"571 422 OFFCURVE",
"575 314 CURVE SMOOTH",
"579 206 OFFCURVE",
"582 99 OFFCURVE",
"585 0 CURVE",
"280 0 LINE",
"319 1120 LINE",
"569 1120 LINE",
"562 1044 LINE",
"637 1113 OFFCURVE",
"729 1145 OFFCURVE",
"845 1145 CURVE SMOOTH",
"928 1145 OFFCURVE",
"1004 1122 OFFCURVE",
"1068 1082 CURVE"
);
}
);
width = 2182;
}
);
unicode = 006D;
},
{
glyphname = n;
lastChange = "2012-06-02 17:01:23 +0000";
layers = (
{
anchors = (
{
name = bottom;
position = "{756, 0}";
},
{
name = top;
position = "{756, 1120}";
}
);
layerId = "D5D14868-B3D8-4E08-9530-062F6179E82D";
name = Bold;
paths = (
{
closed = 1;
nodes = (
"1294 0 LINE",
"969 0 LINE",
"1008 674 LINE",
"1008 846 OFFCURVE",
"960 931 OFFCURVE",
"833 931 CURVE SMOOTH",
"645 931 OFFCURVE",
"561 823 OFFCURVE",
"561 639 CURVE",
"591 0 LINE",
"276 0 LINE",
"306 1129 LINE",
"552 1129 LINE",
"552 1040 LINE",
"580 1059 OFFCURVE",
"609 1075 OFFCURVE",
"641 1094 CURVE",
"702 1127 OFFCURVE",
"772 1145 OFFCURVE",
"852 1145 CURVE SMOOTH",
"1113 1145 OFFCURVE",
"1248 974 OFFCURVE",
"1264 670 CURVE SMOOTH"
);
}
);
width = 1512;
}
);
unicode = 006E;
},
{
glyphname = o;
lastChange = "2012-06-02 17:01:23 +0000";
layers = (
{
anchors = (
{
name = top;
position = "{681, 1120}";
}
);
layerId = "D5D14868-B3D8-4E08-9530-062F6179E82D";
name = Bold;
paths = (
{
closed = 1;
nodes = (
"523 944 OFFCURVE",
"420 813 OFFCURVE",
"420 589 CURVE SMOOTH",
"420 373 OFFCURVE",
"510 344 OFFCURVE",
"682 344 CURVE SMOOTH",
"765 344 OFFCURVE",
"832 361 OFFCURVE",
"879 388 CURVE",
"921 415 OFFCURVE",
"942 482 OFFCURVE",
"942 589 CURVE SMOOTH",
"942 814 OFFCURVE",
"839 944 OFFCURVE",
"682 944 CURVE SMOOTH"
);
},
{
closed = 1;
nodes = (
"1003 1145 OFFCURVE",
"1199 919 OFFCURVE",
"1199 559 CURVE SMOOTH",
"1199 199 OFFCURVE",
"1003 -27 OFFCURVE",
"682 -27 CURVE SMOOTH",
"519 -27 OFFCURVE",
"392 26 OFFCURVE",
"301 132 CURVE SMOOTH",
"209 236 OFFCURVE",
"165 378 OFFCURVE",
"165 559 CURVE SMOOTH",
"165 740 OFFCURVE",
"209 882 OFFCURVE",
"301 987 CURVE SMOOTH",
"392 1092 OFFCURVE",
"519 1145 OFFCURVE",
"682 1145 CURVE SMOOTH"
);
}
);
width = 1362;
}
);
unicode = 006F;
},
{
glyphname = p;
lastChange = "2012-06-02 17:01:23 +0000";
layers = (
{
layerId = "D5D14868-B3D8-4E08-9530-062F6179E82D";
name = Bold;
paths = (
{
closed = 1;
nodes = (
"515 -398 LINE",
"268 -398 LINE",
"307 1120 LINE",
"557 1120 LINE",
"551 1049 LINE",
"623 1113 OFFCURVE",
"717 1145 OFFCURVE",
"832 1145 CURVE SMOOTH",
"1108 1145 OFFCURVE",
"1297 904 OFFCURVE",
"1297 559 CURVE SMOOTH",
"1297 214 OFFCURVE",
"1108 -27 OFFCURVE",
"832 -27 CURVE SMOOTH",
"707 -27 OFFCURVE",
"608 11 OFFCURVE",
"532 86 CURVE"
);
},
{
closed = 1;
nodes = (
"1113 708 OFFCURVE",
"1088 798 OFFCURVE",
"1041 863 CURVE SMOOTH",
"996 926 OFFCURVE",
"935 957 OFFCURVE",
"858 957 CURVE SMOOTH",
"781 957 OFFCURVE",
"720 926 OFFCURVE",
"673 863 CURVE",
"674 864 LINE",
"627 799 OFFCURVE",
"603 707 OFFCURVE",
"603 589 CURVE SMOOTH",
"603 362 OFFCURVE",
"702 330 OFFCURVE",
"867 330 CURVE SMOOTH",
"1034 330 OFFCURVE",
"1113 361 OFFCURVE",
"1113 589 CURVE SMOOTH"
);
}
);
width = 1316;
}
);
unicode = 0070;
},
{
glyphname = q;
lastChange = "2012-06-02 21:45:54 +0000";
layers = (
{
layerId = "D5D14868-B3D8-4E08-9530-062F6179E82D";
name = Bold;
paths = (
{
closed = 1;
nodes = (
"210 359 OFFCURVE",
"295 334 OFFCURVE",
"460 334 CURVE SMOOTH",
"544 334 OFFCURVE",
"610 348 OFFCURVE",
"657 377 CURVE SMOOTH",
"700 402 OFFCURVE",
"721 471 OFFCURVE",
"721 583 CURVE SMOOTH",
"721 700 OFFCURVE",
"697 791 OFFCURVE",
"650 858 CURVE",
"603 920 OFFCURVE",
"542 951 OFFCURVE",
"465 951 CURVE SMOOTH",
"388 951 OFFCURVE",
"327 920 OFFCURVE",
"280 858 CURVE",
"281 859 LINE",
"234 792 OFFCURVE",
"210 702 OFFCURVE",
"210 583 CURVE SMOOTH"
);
},
{
closed = 1;
nodes = (
"1096 -126 LINE SMOOTH",
"1149 -203 OFFCURVE",
"1212 -301 OFFCURVE",
"1267 -329 CURVE",
"1082 -379 LINE SMOOTH",
"1021 -395 OFFCURVE",
"1001 -398 OFFCURVE",
"978 -398 CURVE SMOOTH",
"765 -398 LINE",
"781 79 LINE",
"705 3 OFFCURVE",
"614 -27 OFFCURVE",
"487 -27 CURVE SMOOTH",
"208 -27 OFFCURVE",
"22 212 OFFCURVE",
"22 559 CURVE SMOOTH",
"22 906 OFFCURVE",
"208 1145 OFFCURVE",
"487 1145 CURVE SMOOTH",
"620 1145 OFFCURVE",
"719 1108 OFFCURVE",
"795 1024 CURVE",
"800 1059 OFFCURVE",
"804 1093 OFFCURVE",
"807 1120 CURVE",
"1050 1120 LINE",
"997 84 LINE SMOOTH",
"996 69 OFFCURVE",
"1000 13 OFFCURVE",
"1005 6 CURVE SMOOTH"
);
}
);
width = 1317;
}
);
unicode = 0071;
},
{
glyphname = r;
lastChange = "2012-06-02 21:45:07 +0000";
layers = (
{
anchors = (
{
name = bottom;
position = "{459, 0}";
},
{
name = top;
position = "{459, 1120}";
}
);
layerId = "D5D14868-B3D8-4E08-9530-062F6179E82D";
name = Bold;
paths = (
{
closed = 1;
nodes = (
"913 838 LINE",
"870 863 OFFCURVE",
"842 875 OFFCURVE",
"817 882 CURVE SMOOTH",
"792 889 OFFCURVE",
"771 889 OFFCURVE",
"747 889 CURVE SMOOTH",
"664 889 OFFCURVE",
"605 861 OFFCURVE",
"569 806 CURVE",
"569 807 LINE",
"530 746 OFFCURVE",
"511 664 OFFCURVE",
"511 561 CURVE",
"531 0 LINE",
"234 0 LINE",
"284 1111 LINE",
"511 1111 LINE",
"511 1037 LINE",
"519 1042 OFFCURVE",
"528 1048 OFFCURVE",
"538 1053 CURVE SMOOTH",
"548 1058 OFFCURVE",
"558 1064 OFFCURVE",
"568 1071 CURVE",
"568 1070 LINE",
"632 1108 OFFCURVE",
"709 1127 OFFCURVE",
"798 1127 CURVE SMOOTH",
"823 1127 OFFCURVE",
"853 1122 OFFCURVE",
"912 1111 CURVE"
);
}
);
width = 983;
}
);
unicode = 0072;
},
{
glyphname = s;
lastChange = "2012-06-02 17:01:23 +0000";
layers = (
{
anchors = (
{
name = bottom;
position = "{627, 0}";
},
{
name = top;
position = "{627, 1120}";
}
);
layerId = "D5D14868-B3D8-4E08-9530-062F6179E82D";
name = Bold;
paths = (
{
closed = 1;
nodes = (
"1032 847 LINE",
"903 912 OFFCURVE",
"786 945 OFFCURVE",
"681 945 CURVE SMOOTH",
"534 945 OFFCURVE",
"453 898 OFFCURVE",
"453 817 CURVE SMOOTH",
"453 784 OFFCURVE",
"465 757 OFFCURVE",
"490 738 CURVE",
"489 738 LINE",
"517 717 OFFCURVE",
"579 695 OFFCURVE",
"663 676 CURVE SMOOTH",
"672 674 OFFCURVE",
"682 672 OFFCURVE",
"692 669 CURVE SMOOTH",
"701 666 OFFCURVE",
"711 664 OFFCURVE",
"720 663 CURVE",
"848 636 OFFCURVE",
"942 595 OFFCURVE",
"998 548 CURVE SMOOTH",
"1055 497 OFFCURVE",
"1088 422 OFFCURVE",
"1088 326 CURVE SMOOTH",
"1088 107 OFFCURVE",
"903 -27 OFFCURVE",
"619 -27 CURVE SMOOTH",
"504 -27 OFFCURVE",
"369 -2 OFFCURVE",
"214 49 CURVE",
"214 389 LINE",
"372 307 OFFCURVE",
"508 266 OFFCURVE",
"622 266 CURVE SMOOTH",
"689 266 OFFCURVE",
"738 274 OFFCURVE",
"769 290 CURVE SMOOTH",
"800 305 OFFCURVE",
"817 329 OFFCURVE",
"818 360 CURVE",
"802 387 OFFCURVE",
"789 409 OFFCURVE",
"774 425 CURVE SMOOTH",
"763 436 OFFCURVE",
"709 453 OFFCURVE",
"612 474 CURVE SMOOTH",
"552 488 LINE",
"553 488 LINE",
"329 533 OFFCURVE",
"222 615 OFFCURVE",
"222 800 CURVE SMOOTH",
"222 1023 OFFCURVE",
"378 1145 OFFCURVE",
"661 1145 CURVE SMOOTH",
"793 1145 OFFCURVE",
"916 1124 OFFCURVE",
"1032 1077 CURVE"
);
}
);
width = 1253;
}
);
unicode = 0073;
},
{
glyphname = t;
lastChange = "2012-10-07 22:46:30 +0000";
layers = (
{
anchors = (
{
name = bottom;
position = "{451, 0}";
},
{
name = center;
position = "{451, 560}";
}
);
layerId = "D5D14868-B3D8-4E08-9530-062F6179E82D";
name = Bold;
paths = (
{
closed = 1;
nodes = (
"493 1379 LINE",
"484 1120 LINE",
"724 1120 LINE",
"724 912 LINE",
"483 912 LINE",
"473 493 LINE SMOOTH",
"473 418 OFFCURVE",
"481 372 OFFCURVE",
"498 356 CURVE",
"513 339 OFFCURVE",
"552 330 OFFCURVE",
"613 330 CURVE SMOOTH",
"827 330 LINE",
"827 0 LINE",
"613 0 LINE SMOOTH",
"329 0 OFFCURVE",
"217 98 OFFCURVE",
"217 382 CURVE SMOOTH",
"226 912 LINE",
"100 912 LINE",
"100 1120 LINE",
"227 1120 LINE",
"236 1379 LINE"
);
}
);
width = 927;
}
);
unicode = 0074;
},
{
glyphname = u;
lastChange = "2012-10-07 23:10:33 +0000";
layers = (
{
anchors = (
{
name = ogonek;
position = "{948, -2}";
},
{
name = top;
position = "{750, 1120}";
}
);
layerId = "D5D14868-B3D8-4E08-9530-062F6179E82D";
name = Bold;
paths = (
{
closed = 1;
nodes = (
"258 1120 LINE",
"476 1120 LINE",
"476 608 LINE",
"487 437 OFFCURVE",
"543 346 OFFCURVE",
"670 346 CURVE SMOOTH",
"752 346 OFFCURVE",
"814 371 OFFCURVE",
"857 422 CURVE SMOOTH",
"902 473 OFFCURVE",
"926 551 OFFCURVE",
"933 642 CURVE",
"944 1120 LINE",
"1218 1120 LINE",
"1198 0 LINE",
"949 0 LINE",
"954 85 LINE",
"877 10 OFFCURVE",
"779 -27 OFFCURVE",
"662 -27 CURVE SMOOTH",
"397 -27 OFFCURVE",
"258 137 OFFCURVE",
"258 450 CURVE SMOOTH"
);
}
);
width = 1476;
}
);
unicode = 0075;
},
{
glyphname = v;
lastChange = "2012-06-02 17:01:23 +0000";
layers = (
{
layerId = "D5D14868-B3D8-4E08-9530-062F6179E82D";
name = Bold;
paths = (
{
closed = 1;
nodes = (
"54 1120 LINE",
"315 1120 LINE",
"616 413 LINE",
"665 529 OFFCURVE",
"716 647 OFFCURVE",
"768 768 CURVE SMOOTH",
"820 889 OFFCURVE",
"870 1006 OFFCURVE",
"918 1120 CURVE",
"1179 1120 LINE",
"770 0 LINE",
"464 0 LINE"
);
}
);
width = 1233;
}
);
unicode = 0076;
},
{
glyphname = w;
lastChange = "2012-06-02 17:01:23 +0000";
layers = (
{
anchors = (
{
name = top;
position = "{896, 1120}";
}
);
layerId = "D5D14868-B3D8-4E08-9530-062F6179E82D";
name = Bold;
paths = (
{
closed = 1;
nodes = (
"145 1120 LINE",
"394 1120 LINE",
"590 453 LINE",
"752 775 LINE",
"1039 775 LINE",
"1202 453 LINE",
"1234 563 OFFCURVE",
"1267 675 OFFCURVE",
"1300 789 CURVE SMOOTH",
"1333 902 OFFCURVE",
"1365 1013 OFFCURVE",
"1397 1120 CURVE",
"1645 1120 LINE",
"1352 0 LINE",
"1058 0 LINE",
"895 412 LINE",
"723 0 LINE",
"438 0 LINE"
);
}
);
width = 1791;
}
);
unicode = 0077;
},
{
glyphname = x;
lastChange = "2012-06-02 17:01:23 +0000";
layers = (
{
layerId = "D5D14868-B3D8-4E08-9530-062F6179E82D";
name = Bold;
paths = (
{
closed = 1;
nodes = (
"1330 1120 LINE",
"939 530 LINE",
"972 490 OFFCURVE",
"1008 447 OFFCURVE",
"1046 402 CURVE SMOOTH",
"1084 356 OFFCURVE",
"1122 310 OFFCURVE",
"1161 264 CURVE SMOOTH",
"1200 217 OFFCURVE",
"1238 172 OFFCURVE",
"1275 127 CURVE SMOOTH",
"1312 82 OFFCURVE",
"1347 39 OFFCURVE",
"1380 0 CURVE",
"1003 0 LINE",
"782 335 LINE",
"545 0 LINE",
"168 0 LINE",
"617 540 LINE",
"233 1120 LINE",
"505 1120 LINE",
"773 720 LINE",
"821 785 OFFCURVE",
"870 852 OFFCURVE",
"921 921 CURVE SMOOTH",
"972 989 OFFCURVE",
"1021 1055 OFFCURVE",
"1068 1120 CURVE"
);
}
);
width = 1558;
}
);
unicode = 0078;
},
{
glyphname = y;
lastChange = "2012-06-02 17:01:23 +0000";
layers = (
{
anchors = (
{
name = top;
position = "{668, 1120}";
}
);
layerId = "D5D14868-B3D8-4E08-9530-062F6179E82D";
name = Bold;
paths = (
{
closed = 1;
nodes = (
"871 -74 LINE",
"746 -359 OFFCURVE",
"644 -416 OFFCURVE",
"472 -416 CURVE SMOOTH",
"279 -416 LINE",
"279 -114 LINE",
"436 -114 LINE SMOOTH",
"473 -114 OFFCURVE",
"503 -105 OFFCURVE",
"522 -90 CURVE",
"545 -70 OFFCURVE",
"572 -42 OFFCURVE",
"599 -7 CURVE",
"610 16 OFFCURVE",
"622 38 OFFCURVE",
"633 59 CURVE SMOOTH",
"644 80 OFFCURVE",
"655 102 OFFCURVE",
"666 125 CURVE",
"629 204 OFFCURVE",
"591 285 OFFCURVE",
"552 369 CURVE SMOOTH",
"473 537 OFFCURVE",
"394 708 OFFCURVE",
"316 876 CURVE SMOOTH",
"277 960 OFFCURVE",
"239 1041 OFFCURVE",
"202 1120 CURVE",
"462 1120 LINE",
"807 553 LINE",
"1072 1120 LINE",
"1331 1120 LINE"
);
}
);
width = 1336;
}
);
unicode = 0079;
},
{
glyphname = z;
lastChange = "2012-06-02 17:01:23 +0000";
layers = (
{
anchors = (
{
name = top;
position = "{743, 1120}";
}
);
layerId = "D5D14868-B3D8-4E08-9530-062F6179E82D";
name = Bold;
paths = (
{
closed = 1;
nodes = (
"309 1120 LINE",
"1190 1120 LINE",
"1190 911 LINE",
"646 305 LINE",
"1180 305 LINE",
"1180 0 LINE",
"267 0 LINE",
"267 302 LINE",
"880 917 LINE",
"309 917 LINE"
);
}
);
width = 1485;
}
);
unicode = 007A;
},
{
glyphname = braceleft;
lastChange = "2012-06-02 17:01:23 +0000";
layers = (
{
layerId = "D5D14868-B3D8-4E08-9530-062F6179E82D";
name = Bold;
paths = (
{
closed = 1;
nodes = (
"801 -60 LINE",
"799 -325 LINE",
"703 -324 LINE SMOOTH",
"543 -321 OFFCURVE",
"430 -289 OFFCURVE",
"371 -238 CURVE",
"319 -183 OFFCURVE",
"286 -80 OFFCURVE",
"282 65 CURVE",
"285 286 LINE",
"277 459 OFFCURVE",
"248 500 OFFCURVE",
"93 504 CURVE SMOOTH",
"88 504 OFFCURVE",
"82 504 OFFCURVE",
"73 504 CURVE SMOOTH",
"64 504 OFFCURVE",
"55 504 OFFCURVE",
"46 505 CURVE",
"37 505 OFFCURVE",
"28 505 OFFCURVE",
"20 505 CURVE SMOOTH",
"11 505 OFFCURVE",
"5 505 OFFCURVE",
"0 505 CURVE",
"2 713 LINE",
"94 712 LINE",
"174 717 OFFCURVE",
"228 731 OFFCURVE",
"255 756 CURVE SMOOTH",
"281 781 OFFCURVE",
"295 835 OFFCURVE",
"297 917 CURVE SMOOTH",
"300 1141 LINE SMOOTH",
"305 1438 OFFCURVE",
"405 1507 OFFCURVE",
"733 1515 CURVE SMOOTH",
"830 1514 LINE",
"826 1306 LINE",
"727 1307 LINE",
"556 1296 OFFCURVE",
"552 1290 OFFCURVE",
"548 1133 CURVE",
"548 1134 LINE",
"544 902 LINE SMOOTH",
"542 799 OFFCURVE",
"524 721 OFFCURVE",
"491 670 CURVE SMOOTH",
"472 641 OFFCURVE",
"447 618 OFFCURVE",
"416 601 CURVE",
"445 582 OFFCURVE",
"468 557 OFFCURVE",
"485 526 CURVE",
"485 527 LINE",
"512 477 OFFCURVE",
"528 407 OFFCURVE",
"533 316 CURVE",
"529 86 LINE",
"534 33 OFFCURVE",
"543 -7 OFFCURVE",
"562 -27 CURVE",
"577 -46 OFFCURVE",
"624 -57 OFFCURVE",
"701 -59 CURVE SMOOTH"
);
}
);
width = 1017;
}
);
unicode = 007B;
},
{
glyphname = bar;
lastChange = "2012-06-02 17:01:23 +0000";
layers = (
{
layerId = "D5D14868-B3D8-4E08-9530-062F6179E82D";
name = Bold;
paths = (
{
closed = 1;
nodes = (
"350 -451 LINE",
"97 -451 LINE",
"147 566 LINE",
"379 566 LINE"
);
},
{
closed = 1;
nodes = (
"144 591 LINE",
"184 1535 LINE",
"418 1535 LINE",
"378 591 LINE"
);
}
);
width = 548;
}
);
unicode = 007C;
},
{
glyphname = braceright;
lastChange = "2012-06-02 17:01:23 +0000";
layers = (
{
layerId = "D5D14868-B3D8-4E08-9530-062F6179E82D";
name = Bold;
paths = (
{
closed = 1;
nodes = (
"183 -93 LINE",
"286 -93 LINE SMOOTH",
"439 -93 OFFCURVE",
"458 -74 OFFCURVE",
"458 83 CURVE SMOOTH",
"458 315 LINE SMOOTH",
"458 414 OFFCURVE",
"474 488 OFFCURVE",
"506 538 CURVE SMOOTH",
"525 566 OFFCURVE",
"548 589 OFFCURVE",
"580 608 CURVE",
"548 627 OFFCURVE",
"525 650 OFFCURVE",
"506 678 CURVE SMOOTH",
"474 728 OFFCURVE",
"458 806 OFFCURVE",
"458 911 CURVE SMOOTH",
"458 1142 LINE SMOOTH",
"458 1298 OFFCURVE",
"437 1319 OFFCURVE",
"286 1319 CURVE SMOOTH",
"183 1319 LINE",
"183 1527 LINE",
"279 1527 LINE SMOOTH",
"444 1527 OFFCURVE",
"556 1501 OFFCURVE",
"614 1449 CURVE",
"613 1449 LINE",
"674 1395 OFFCURVE",
"705 1294 OFFCURVE",
"705 1146 CURVE SMOOTH",
"705 922 LINE SMOOTH",
"705 839 OFFCURVE",
"718 783 OFFCURVE",
"745 754 CURVE",
"745 755 LINE",
"772 727 OFFCURVE",
"824 713 OFFCURVE",
"901 713 CURVE SMOOTH",
"996 713 LINE",
"996 505 LINE",
"901 505 LINE SMOOTH",
"745 505 OFFCURVE",
"705 462 OFFCURVE",
"705 293 CURVE SMOOTH",
"705 70 LINE SMOOTH",
"705 -79 OFFCURVE",
"674 -180 OFFCURVE",
"613 -233 CURVE",
"614 -233 LINE",
"557 -286 OFFCURVE",
"445 -312 OFFCURVE",
"279 -312 CURVE SMOOTH",
"183 -312 LINE"
);
}
);
width = 996;
}
);
unicode = 007D;
},
{
glyphname = asciitilde;
lastChange = "2012-06-02 17:01:23 +0000";
layers = (
{
layerId = "D5D14868-B3D8-4E08-9530-062F6179E82D";
name = Bold;
paths = (
{
closed = 1;
nodes = (
"1383 634 LINE",
"1351 609 OFFCURVE",
"1315 582 OFFCURVE",
"1280 558 CURVE SMOOTH",
"1245 533 OFFCURVE",
"1212 509 OFFCURVE",
"1184 492 CURVE",
"1184 493 LINE",
"1121 452 OFFCURVE",
"1057 431 OFFCURVE",
"990 431 CURVE SMOOTH",
"915 431 OFFCURVE",
"830 460 OFFCURVE",
"734 518 CURVE",
"722 523 LINE",
"702 529 LINE",
"609 580 OFFCURVE",
"535 604 OFFCURVE",
"483 604 CURVE SMOOTH",
"436 604 OFFCURVE",
"390 587 OFFCURVE",
"343 552 CURVE SMOOTH",
"316 532 OFFCURVE",
"274 498 OFFCURVE",
"230 462 CURVE SMOOTH",
"186 426 OFFCURVE",
"141 389 OFFCURVE",
"112 364 CURVE",
"112 658 LINE",
"185 714 OFFCURVE",
"252 753 OFFCURVE",
"316 778 CURVE SMOOTH",
"379 803 OFFCURVE",
"441 815 OFFCURVE",
"505 815 CURVE SMOOTH",
"577 815 OFFCURVE",
"661 795 OFFCURVE",
"758 756 CURVE SMOOTH",
"772 750 LINE",
"775 749 OFFCURVE",
"779 748 OFFCURVE",
"783 747 CURVE",
"787 745 OFFCURVE",
"791 743 OFFCURVE",
"794 742 CURVE",
"885 707 OFFCURVE",
"955 688 OFFCURVE",
"1011 688 CURVE SMOOTH",
"1108 688 OFFCURVE",
"1220 745 OFFCURVE",
"1383 878 CURVE"
);
}
);
width = 1464;
}
);
unicode = 007E;
},
{
glyphname = exclamdown;
lastChange = "2012-06-02 17:01:23 +0000";
layers = (
{
layerId = "D5D14868-B3D8-4E08-9530-062F6179E82D";
name = Bold;
paths = (
{
closed = 1;
nodes = (
"593 1138 LINE",
"291 1138 LINE",
"291 1468 LINE",
"593 1468 LINE"
);
},
{
closed = 1;
nodes = (
"603 0 LINE",
"281 0 LINE",
"291 650 LINE",
"313 1019 LINE",
"572 1019 LINE",
"593 650 LINE"
);
}
);
width = 878;
}
);
unicode = 00A1;
},
{
glyphname = cent;
lastChange = "2012-06-02 17:01:23 +0000";
layers = (
{
layerId = "D5D14868-B3D8-4E08-9530-062F6179E82D";
name = Bold;
paths = (
{
closed = 1;
nodes = (
"494 933 LINE",
"427 914 OFFCURVE",
"375 870 OFFCURVE",
"336 806 CURVE SMOOTH",
"297 741 OFFCURVE",
"275 655 OFFCURVE",
"271 554 CURVE",
"272 479 OFFCURVE",
"292 406 OFFCURVE",
"335 357 CURVE",
"334 357 LINE",
"370 314 OFFCURVE",
"421 286 OFFCURVE",
"481 271 CURVE"
);
},
{
closed = 1;
nodes = (
"923 831 LINE",
"811 895 OFFCURVE",
"731 930 OFFCURVE",
"664 939 CURVE",
"652 261 LINE",
"727 273 OFFCURVE",
"810 305 OFFCURVE",
"914 357 CURVE",
"908 37 LINE",
"820 0 OFFCURVE",
"735 -23 OFFCURVE",
"647 -34 CURVE",
"646 -77 OFFCURVE",
"646 -122 OFFCURVE",
"645 -169 CURVE SMOOTH",
"644 -216 OFFCURVE",
"643 -261 OFFCURVE",
"642 -302 CURVE",
"473 -301 LINE",
"477 -27 LINE",
"335 -7 OFFCURVE",
"223 52 OFFCURVE",
"140 149 CURVE SMOOTH",
"54 253 OFFCURVE",
"12 390 OFFCURVE",
"14 560 CURVE SMOOTH",
"17 732 OFFCURVE",
"65 865 OFFCURVE",
"154 965 CURVE SMOOTH",
"239 1061 OFFCURVE",
"349 1115 OFFCURVE",
"497 1132 CURVE",
"498 1176 OFFCURVE",
"499 1222 OFFCURVE",
"500 1269 CURVE SMOOTH",
"501 1316 OFFCURVE",
"501 1361 OFFCURVE",
"502 1403 CURVE",
"672 1401 LINE",
"668 1129 LINE",
"752 1118 OFFCURVE",
"836 1094 OFFCURVE",
"925 1051 CURVE"
);
}
);
width = 970;
}
);
unicode = 00A2;
},
{
glyphname = sterling;
lastChange = "2012-06-02 17:01:23 +0000";
layers = (
{
layerId = "D5D14868-B3D8-4E08-9530-062F6179E82D";
name = Bold;
paths = (
{
closed = 1;
nodes = (
"1076 1151 LINE",
"952 1219 OFFCURVE",
"856 1255 OFFCURVE",
"788 1258 CURVE",
"625 1247 OFFCURVE",
"576 1204 OFFCURVE",
"568 956 CURVE SMOOTH",
"564 793 LINE",
"621 792 OFFCURVE",
"685 790 OFFCURVE",
"748 790 CURVE SMOOTH",
"811 789 OFFCURVE",
"873 787 OFFCURVE",
"928 786 CURVE",
"924 596 LINE",
"559 604 LINE",
"558 545 OFFCURVE",
"557 493 OFFCURVE",
"555 441 CURVE SMOOTH",
"553 388 OFFCURVE",
"550 334 OFFCURVE",
"549 273 CURVE",
"1069 263 LINE",
"1062 -17 LINE",
"60 1 LINE",
"68 281 LINE",
"288 276 LINE",
"289 335 OFFCURVE",
"291 387 OFFCURVE",
"293 440 CURVE SMOOTH",
"295 492 OFFCURVE",
"296 545 OFFCURVE",
"297 608 CURVE",
"112 611 LINE",
"116 801 LINE",
"302 798 LINE",
"308 983 LINE SMOOTH",
"312 1156 OFFCURVE",
"352 1281 OFFCURVE",
"427 1358 CURVE SMOOTH",
"502 1437 OFFCURVE",
"617 1478 OFFCURVE",
"773 1482 CURVE",
"854 1481 OFFCURVE",
"965 1454 OFFCURVE",
"1082 1409 CURVE"
);
}
);
width = 1352;
}
);
unicode = 00A3;
},
{
glyphname = currency;
lastChange = "2012-06-02 17:01:23 +0000";
layers = (
{
layerId = "D5D14868-B3D8-4E08-9530-062F6179E82D";
name = Bold;
paths = (
{
closed = 1;
nodes = (
"1196 1211 LINE",
"1354 1052 LINE",
"1156 854 LINE",
"1195 784 OFFCURVE",
"1215 711 OFFCURVE",
"1215 636 CURVE SMOOTH",
"1215 556 OFFCURVE",
"1196 492 OFFCURVE",
"1153 421 CURVE",
"1353 222 LINE",
"1194 65 LINE",
"996 263 LINE",
"924 220 OFFCURVE",
"853 201 OFFCURVE",
"780 201 CURVE SMOOTH",
"707 201 OFFCURVE",
"635 221 OFFCURVE",
"563 260 CURVE",
"363 61 LINE",
"206 221 LINE",
"405 420 LINE",
"365 495 OFFCURVE",
"345 567 OFFCURVE",
"345 636 CURVE SMOOTH",
"345 712 OFFCURVE",
"366 782 OFFCURVE",
"406 850 CURVE",
"390 865 OFFCURVE",
"374 882 OFFCURVE",
"357 899 CURVE SMOOTH",
"340 916 OFFCURVE",
"322 934 OFFCURVE",
"305 951 CURVE SMOOTH",
"288 968 OFFCURVE",
"271 985 OFFCURVE",
"255 1002 CURVE SMOOTH",
"238 1019 OFFCURVE",
"223 1034 OFFCURVE",
"208 1048 CURVE",
"368 1208 LINE",
"566 1010 LINE",
"633 1051 OFFCURVE",
"705 1071 OFFCURVE",
"780 1071 CURVE SMOOTH",
"852 1071 OFFCURVE",
"925 1050 OFFCURVE",
"997 1011 CURVE"
);
},
{
closed = 1;
nodes = (
"994 757 OFFCURVE",
"901 848 OFFCURVE",
"780 848 CURVE SMOOTH",
"663 848 OFFCURVE",
"566 758 OFFCURVE",
"566 637 CURVE SMOOTH",
"566 576 OFFCURVE",
"586 525 OFFCURVE",
"627 484 CURVE",
"627 485 LINE",
"668 444 OFFCURVE",
"719 423 OFFCURVE",
"780 423 CURVE SMOOTH",
"841 423 OFFCURVE",
"891 443 OFFCURVE",
"932 484 CURVE",
"931 484 LINE",
"973 526 OFFCURVE",
"994 577 OFFCURVE",
"994 637 CURVE SMOOTH"
);
}
);
width = 1552;
}
);
unicode = 00A4;
},
{
glyphname = yen;
lastChange = "2012-06-02 17:01:23 +0000";
layers = (
{
layerId = "D5D14868-B3D8-4E08-9530-062F6179E82D";
name = Bold;
paths = (
{
closed = 1;
nodes = (
"1195 387 LINE",
"810 387 LINE",
"811 356 OFFCURVE",
"813 325 OFFCURVE",
"815 292 CURVE SMOOTH",
"817 259 OFFCURVE",
"819 225 OFFCURVE",
"821 192 CURVE SMOOTH",
"822 159 OFFCURVE",
"824 126 OFFCURVE",
"826 93 CURVE SMOOTH",
"827 60 OFFCURVE",
"829 29 OFFCURVE",
"830 0 CURVE",
"507 0 LINE",
"535 387 LINE",
"149 387 LINE",
"149 614 LINE",
"538 614 LINE",
"524 635 OFFCURVE",
"511 655 OFFCURVE",
"499 673 CURVE",
"486 690 OFFCURVE",
"473 710 OFFCURVE",
"458 732 CURVE",
"131 732 LINE",
"131 921 LINE",
"354 921 LINE",
"66 1468 LINE",
"346 1468 LINE",
"668 857 LINE",
"721 958 OFFCURVE",
"774 1060 OFFCURVE",
"829 1164 CURVE SMOOTH",
"883 1267 OFFCURVE",
"936 1369 OFFCURVE",
"988 1468 CURVE",
"1270 1468 LINE",
"973 921 LINE",
"1195 921 LINE",
"1195 732 LINE",
"871 732 LINE",
"807 615 LINE",
"807 614 LINE",
"1195 614 LINE"
);
}
);
width = 1338;
}
);
unicode = 00A5;
},
{
glyphname = brokenbar;
lastChange = "2012-06-02 17:01:23 +0000";
layers = (
{
layerId = "D5D14868-B3D8-4E08-9530-062F6179E82D";
name = Bold;
paths = (
{
closed = 1;
nodes = (
"539 455 LINE",
"539 -327 LINE",
"306 -327 LINE",
"306 455 LINE"
);
},
{
closed = 1;
nodes = (
"539 1411 LINE",
"539 629 LINE",
"306 629 LINE",
"306 1411 LINE"
);
}
);
width = 836;
}
);
unicode = 00A6;
},
{
glyphname = section;
lastChange = "2012-06-02 17:01:23 +0000";
layers = (
{
layerId = "D5D14868-B3D8-4E08-9530-062F6179E82D";
name = Bold;
paths = (
{
closed = 1;
nodes = (
"476 903 LINE",
"457 889 LINE",
"436 901 LINE"
);
},
{
closed = 1;
nodes = (
"683 758 OFFCURVE",
"596 813 OFFCURVE",
"457 889 CURVE",
"402 846 OFFCURVE",
"374 804 OFFCURVE",
"374 763 CURVE SMOOTH",
"374 727 OFFCURVE",
"392 692 OFFCURVE",
"428 657 CURVE",
"427 657 LINE",
"468 620 OFFCURVE",
"549 567 OFFCURVE",
"696 486 CURVE",
"751 529 OFFCURVE",
"779 571 OFFCURVE",
"779 612 CURVE SMOOTH",
"779 649 OFFCURVE",
"760 684 OFFCURVE",
"723 719 CURVE SMOOTH"
);
},
{
closed = 1;
nodes = (
"911 1190 LINE",
"776 1254 OFFCURVE",
"675 1284 OFFCURVE",
"611 1284 CURVE SMOOTH",
"512 1284 OFFCURVE",
"457 1246 OFFCURVE",
"457 1181 CURVE SMOOTH",
"457 1140 OFFCURVE",
"515 1087 OFFCURVE",
"630 1022 CURVE",
"629 1022 LINE",
"667 1001 LINE SMOOTH",
"802 924 OFFCURVE",
"892 860 OFFCURVE",
"935 809 CURVE",
"934 809 LINE",
"981 754 OFFCURVE",
"1005 691 OFFCURVE",
"1005 619 CURVE SMOOTH",
"1005 508 OFFCURVE",
"956 418 OFFCURVE",
"857 349 CURVE",
"917 286 OFFCURVE",
"944 221 OFFCURVE",
"944 145 CURVE SMOOTH",
"944 -54 OFFCURVE",
"788 -182 OFFCURVE",
"555 -182 CURVE SMOOTH",
"459 -182 OFFCURVE",
"354 -161 OFFCURVE",
"223 -118 CURVE",
"223 167 LINE",
"363 104 OFFCURVE",
"467 74 OFFCURVE",
"534 74 CURVE SMOOTH",
"638 74 OFFCURVE",
"697 91 OFFCURVE",
"697 158 CURVE SMOOTH",
"697 193 OFFCURVE",
"635 246 OFFCURVE",
"511 316 CURVE",
"512 315 LINE",
"487 329 LINE SMOOTH",
"211 482 OFFCURVE",
"149 564 OFFCURVE",
"149 712 CURVE SMOOTH",
"149 820 OFFCURVE",
"202 917 OFFCURVE",
"294 982 CURVE",
"241 1038 OFFCURVE",
"210 1107 OFFCURVE",
"210 1186 CURVE SMOOTH",
"210 1281 OFFCURVE",
"245 1353 OFFCURVE",
"317 1410 CURVE SMOOTH",
"388 1465 OFFCURVE",
"478 1493 OFFCURVE",
"589 1493 CURVE SMOOTH",
"682 1493 OFFCURVE",
"790 1472 OFFCURVE",
"911 1427 CURVE"
);
}
);
width = 1140;
}
);
unicode = 00A7;
},
{
glyphname = dieresis;
lastChange = "2012-06-02 17:01:23 +0000";
layers = (
{
anchors = (
{
name = _top;
position = "{640.5, 1120}";
}
);
layerId = "D5D14868-B3D8-4E08-9530-062F6179E82D";
name = Bold;
paths = (
{
closed = 1;
nodes = (
"697 1537 LINE",
"975 1537 LINE",
"975 1260 LINE",
"697 1260 LINE"
);
},
{
closed = 1;
nodes = (
"306 1537 LINE",
"584 1537 LINE",
"584 1260 LINE",
"306 1260 LINE"
);
}
);
width = 1278;
}
);
unicode = 00A8;
},
{
glyphname = copyright;
lastChange = "2012-06-02 17:01:23 +0000";
layers = (
{
layerId = "D5D14868-B3D8-4E08-9530-062F6179E82D";
name = Bold;
paths = (
{
closed = 1;
nodes = (
"1271 1461 OFFCURVE",
"1601 1132 OFFCURVE",
"1601 729 CURVE SMOOTH",
"1601 329 OFFCURVE",
"1271 0 OFFCURVE",
"872 0 CURVE SMOOTH",
"671 0 OFFCURVE",
"500 72 OFFCURVE",
"357 216 CURVE SMOOTH",
"214 358 OFFCURVE",
"143 529 OFFCURVE",
"143 729 CURVE SMOOTH",
"143 1132 OFFCURVE",
"471 1461 OFFCURVE",
"872 1461 CURVE SMOOTH"
);
},
{
closed = 1;
nodes = (
"718 1290 OFFCURVE",
"586 1235 OFFCURVE",
"477 1126 CURVE SMOOTH",
"368 1015 OFFCURVE",
"311 881 OFFCURVE",
"311 729 CURVE SMOOTH",
"311 580 OFFCURVE",
"367 464 OFFCURVE",
"476 365 CURVE",
"471 368 LINE",
"584 292 OFFCURVE",
"716 245 OFFCURVE",
"872 245 CURVE SMOOTH",
"1029 245 OFFCURVE",
"1162 292 OFFCURVE",
"1274 368 CURVE",
"1271 367 LINE",
"1379 451 OFFCURVE",
"1431 577 OFFCURVE",
"1431 729 CURVE SMOOTH",
"1431 884 OFFCURVE",
"1377 1016 OFFCURVE",
"1269 1126 CURVE SMOOTH",
"1158 1235 OFFCURVE",
"1026 1290 OFFCURVE",
"872 1290 CURVE SMOOTH"
);
},
{
closed = 1;
nodes = (
"1188 945 LINE",
"1073 1002 OFFCURVE",
"982 1029 OFFCURVE",
"906 1029 CURVE SMOOTH",
"826 1029 OFFCURVE",
"762 1000 OFFCURVE",
"718 947 CURVE SMOOTH",
"672 890 OFFCURVE",
"649 817 OFFCURVE",
"649 729 CURVE SMOOTH",
"649 624 OFFCURVE",
"745 511 OFFCURVE",
"916 511 CURVE SMOOTH",
"989 511 OFFCURVE",
"1072 537 OFFCURVE",
"1188 596 CURVE",
"1188 336 LINE",
"1084 289 OFFCURVE",
"987 270 OFFCURVE",
"895 270 CURVE SMOOTH",
"607 270 OFFCURVE",
"422 449 OFFCURVE",
"422 729 CURVE SMOOTH",
"422 1009 OFFCURVE",
"604 1187 OFFCURVE",
"895 1187 CURVE SMOOTH",
"991 1187 OFFCURVE",
"1088 1165 OFFCURVE",
"1188 1124 CURVE"
);
}
);
width = 1744;
}
);
unicode = 00A9;
},
{
glyphname = ordfeminine;
lastChange = "2012-06-02 17:01:23 +0000";
layers = (
{
layerId = "D5D14868-B3D8-4E08-9530-062F6179E82D";
name = Bold;
paths = (
{
closed = 1;
nodes = (
"231 627 LINE",
"948 627 LINE",
"948 438 LINE",
"231 438 LINE"
);
},
{
closed = 1;
nodes = (
"946 669 LINE",
"732 669 LINE",
"732 720 LINE",
"672 674 OFFCURVE",
"597 651 OFFCURVE",
"507 651 CURVE SMOOTH",
"330 651 OFFCURVE",
"209 757 OFFCURVE",
"209 920 CURVE SMOOTH",
"209 1115 OFFCURVE",
"339 1212 OFFCURVE",
"600 1212 CURVE SMOOTH",
"729 1212 LINE",
"714 1278 OFFCURVE",
"654 1311 OFFCURVE",
"551 1311 CURVE SMOOTH",
"479 1311 OFFCURVE",
"382 1281 OFFCURVE",
"266 1225 CURVE",
"266 1429 LINE",
"378 1472 OFFCURVE",
"480 1493 OFFCURVE",
"571 1493 CURVE SMOOTH",
"826 1493 OFFCURVE",
"946 1374 OFFCURVE",
"946 1125 CURVE SMOOTH"
);
},
{
closed = 1;
nodes = (
"723 1091 LINE",
"723 1101 LINE",
"723 1128 LINE",
"760 1091 LINE"
);
},
{
closed = 1;
nodes = (
"704 989 OFFCURVE",
"721 1035 OFFCURVE",
"723 1091 CURVE",
"642 1091 LINE SMOOTH",
"547 1091 OFFCURVE",
"485 1083 OFFCURVE",
"450 1064 CURVE SMOOTH",
"424 1050 OFFCURVE",
"411 1026 OFFCURVE",
"411 992 CURVE SMOOTH",
"411 935 OFFCURVE",
"462 898 OFFCURVE",
"542 898 CURVE SMOOTH",
"595 898 OFFCURVE",
"639 916 OFFCURVE",
"672 953 CURVE SMOOTH"
);
}
);
width = 1204;
}
);
unicode = 00AA;
},
{
glyphname = guillemotleft;
lastChange = "2012-06-02 17:01:23 +0000";
layers = (
{
layerId = "D5D14868-B3D8-4E08-9530-062F6179E82D";
name = Bold;
paths = (
{
closed = 1;
nodes = (
"991 1077 LINE",
"981 798 LINE",
"711 574 LINE",
"753 534 OFFCURVE",
"796 493 OFFCURVE",
"841 451 CURVE SMOOTH",
"885 408 OFFCURVE",
"927 368 OFFCURVE",
"968 329 CURVE",
"905 29 LINE",
"415 497 LINE",
"468 642 LINE"
);
},
{
closed = 1;
nodes = (
"586 1091 LINE",
"576 813 LINE",
"306 589 LINE",
"390 509 OFFCURVE",
"482 422 OFFCURVE",
"563 343 CURVE",
"500 43 LINE",
"10 511 LINE",
"63 656 LINE"
);
}
);
width = 1226;
}
);
unicode = 00AB;
},
{
glyphname = logicalnot;
lastChange = "2012-06-02 17:01:23 +0000";
layers = (
{
layerId = "D5D14868-B3D8-4E08-9530-062F6179E82D";
name = Bold;
paths = (
{
closed = 1;
nodes = (
"0 879 LINE",
"1270 879 LINE",
"1301 268 LINE",
"989 268 LINE",
"1035 646 LINE",
"866 643 OFFCURVE",
"694 639 OFFCURVE",
"517 636 CURVE SMOOTH",
"340 633 OFFCURVE",
"167 629 OFFCURVE",
"0 626 CURVE"
);
}
);
width = 1584;
}
);
unicode = 00AC;
},
{
glyphname = sfthyphen;
lastChange = "2012-06-02 17:01:23 +0000";
layers = (
{
layerId = "D5D14868-B3D8-4E08-9530-062F6179E82D";
name = Bold;
paths = (
{
closed = 1;
nodes = (
"306 675 LINE",
"884 675 LINE",
"884 447 LINE",
"306 447 LINE"
);
}
);
width = 1186;
}
);
unicode = 00AD;
},
{
glyphname = registered;
lastChange = "2012-06-02 17:01:23 +0000";
layers = (
{
layerId = "D5D14868-B3D8-4E08-9530-062F6179E82D";
name = Bold;
paths = (
{
closed = 1;
nodes = (
"565 1290 OFFCURVE",
"311 1055 OFFCURVE",
"311 775 CURVE SMOOTH",
"311 496 OFFCURVE",
"564 260 OFFCURVE",
"872 260 CURVE SMOOTH",
"1181 260 OFFCURVE",
"1431 492 OFFCURVE",
"1431 775 CURVE SMOOTH",
"1431 914 OFFCURVE",
"1370 1039 OFFCURVE",
"1269 1138 CURVE",
"1162 1233 OFFCURVE",
"1021 1290 OFFCURVE",
"872 1290 CURVE SMOOTH"
);
},
{
closed = 1;
nodes = (
"1271 1461 OFFCURVE",
"1601 1132 OFFCURVE",
"1601 729 CURVE SMOOTH",
"1601 329 OFFCURVE",
"1271 0 OFFCURVE",
"872 0 CURVE SMOOTH",
"671 0 OFFCURVE",
"500 72 OFFCURVE",
"357 216 CURVE SMOOTH",
"214 358 OFFCURVE",
"143 529 OFFCURVE",
"143 729 CURVE SMOOTH",
"143 1132 OFFCURVE",
"471 1461 OFFCURVE",
"872 1461 CURVE SMOOTH"
);
},
{
closed = 1;
nodes = (
"816 1046 LINE",
"816 863 LINE",
"893 863 LINE SMOOTH",
"1014 863 OFFCURVE",
"1040 887 OFFCURVE",
"1040 954 CURVE SMOOTH",
"1040 1021 OFFCURVE",
"1002 1046 OFFCURVE",
"893 1046 CURVE SMOOTH"
);
},
{
closed = 1;
nodes = (
"853 1170 LINE SMOOTH",
"1100 1170 OFFCURVE",
"1217 1086 OFFCURVE",
"1217 909 CURVE SMOOTH",
"1217 805 OFFCURVE",
"1164 732 OFFCURVE",
"1071 693 CURVE",
"1094 665 OFFCURVE",
"1121 628 OFFCURVE",
"1152 581 CURVE",
"1314 315 LINE",
"1067 315 LINE",
"935 528 LINE SMOOTH",
"902 583 OFFCURVE",
"875 617 OFFCURVE",
"856 630 CURVE",
"851 633 OFFCURVE",
"848 635 OFFCURVE",
"845 638 CURVE",
"842 640 OFFCURVE",
"839 642 OFFCURVE",
"837 643 CURVE",
"834 645 OFFCURVE",
"832 647 OFFCURVE",
"831 648 CURVE",
"816 648 LINE",
"816 315 LINE",
"550 315 LINE",
"550 1170 LINE"
);
}
);
width = 1744;
}
);
unicode = 00AE;
},
{
glyphname = macron;
lastChange = "2012-06-02 17:01:23 +0000";
layers = (
{
anchors = (
{
name = _top;
position = "{622, 1120}";
}
);
layerId = "D5D14868-B3D8-4E08-9530-062F6179E82D";
name = Bold;
paths = (
{
closed = 1;
nodes = (
"306 1499 LINE",
"938 1499 LINE",
"938 1286 LINE",
"306 1286 LINE"
);
}
);
width = 1241;
}
);
unicode = 00AF;
},
{
glyphname = degree;
lastChange = "2012-06-02 17:01:23 +0000";
layers = (
{
layerId = "D5D14868-B3D8-4E08-9530-062F6179E82D";
name = Bold;
paths = (
{
closed = 1;
nodes = (
"407 1345 OFFCURVE",
"344 1288 OFFCURVE",
"344 1220 CURVE SMOOTH",
"344 1151 OFFCURVE",
"405 1098 OFFCURVE",
"484 1098 CURVE SMOOTH",
"563 1098 OFFCURVE",
"624 1151 OFFCURVE",
"624 1220 CURVE SMOOTH",
"624 1285 OFFCURVE",
"564 1345 OFFCURVE",
"484 1345 CURVE SMOOTH"
);
},
{
closed = 1;
nodes = (
"575 1493 OFFCURVE",
"660 1457 OFFCURVE",
"721 1393 CURVE",
"720 1394 LINE",
"785 1331 OFFCURVE",
"817 1252 OFFCURVE",
"817 1157 CURVE SMOOTH",
"817 1065 OFFCURVE",
"784 986 OFFCURVE",
"719 921 CURVE",
"719 922 LINE",
"655 858 OFFCURVE",
"576 826 OFFCURVE",
"482 826 CURVE SMOOTH",
"294 826 OFFCURVE",
"151 969 OFFCURVE",
"151 1157 CURVE SMOOTH",
"151 1252 OFFCURVE",
"183 1331 OFFCURVE",
"247 1395 CURVE SMOOTH",
"310 1460 OFFCURVE",
"389 1493 OFFCURVE",
"484 1493 CURVE SMOOTH"
);
}
);
width = 962;
}
);
unicode = 00B0;
},
{
glyphname = plusminus;
lastChange = "2012-06-02 17:01:23 +0000";
layers = (
{
layerId = "D5D14868-B3D8-4E08-9530-062F6179E82D";
name = Bold;
paths = (
{
closed = 1;
nodes = (
"830 1273 LINE",
"830 912 LINE",
"1350 912 LINE",
"1350 679 LINE",
"830 679 LINE",
"830 317 LINE",
"599 317 LINE",
"599 679 LINE",
"79 679 LINE",
"79 912 LINE",
"599 912 LINE",
"599 1273 LINE"
);
},
{
closed = 1;
nodes = (
"79 252 LINE",
"1350 252 LINE",
"1350 0 LINE",
"79 0 LINE"
);
}
);
width = 1428;
}
);
unicode = 00B1;
},
{
glyphname = twosuperior;
lastChange = "2012-06-02 17:01:23 +0000";
layers = (
{
layerId = "D5D14868-B3D8-4E08-9530-062F6179E82D";
name = Bold;
paths = (
{
closed = 1;
nodes = (
"894 805 LINE",
"894 623 LINE",
"261 623 LINE",
"261 780 LINE",
"364 873 LINE SMOOTH",
"570 1056 OFFCURVE",
"673 1170 OFFCURVE",
"673 1217 CURVE SMOOTH",
"673 1277 OFFCURVE",
"618 1317 OFFCURVE",
"534 1317 CURVE SMOOTH",
"475 1317 OFFCURVE",
"386 1288 OFFCURVE",
"267 1229 CURVE",
"267 1431 LINE",
"383 1472 OFFCURVE",
"479 1493 OFFCURVE",
"554 1493 CURVE SMOOTH",
"750 1493 OFFCURVE",
"889 1392 OFFCURVE",
"889 1232 CURVE SMOOTH",
"889 1135 OFFCURVE",
"782 995 OFFCURVE",
"569 812 CURVE",
"569 811 OFFCURVE",
"569 811 OFFCURVE",
"568 810 CURVE SMOOTH",
"567 809 OFFCURVE",
"565 808 OFFCURVE",
"561 805 CURVE"
);
}
);
width = 1103;
}
);
unicode = 00B2;
},
{
glyphname = threesuperior;
lastChange = "2012-06-02 17:01:23 +0000";
layers = (
{
layerId = "D5D14868-B3D8-4E08-9530-062F6179E82D";
name = Bold;
paths = (
{
closed = 1;
nodes = (
"858 1181 OFFCURVE",
"825 1124 OFFCURVE",
"765 1085 CURVE",
"838 1042 OFFCURVE",
"878 976 OFFCURVE",
"878 888 CURVE SMOOTH",
"878 708 OFFCURVE",
"745 609 OFFCURVE",
"498 609 CURVE SMOOTH",
"425 609 OFFCURVE",
"334 625 OFFCURVE",
"226 657 CURVE",
"226 860 LINE",
"320 811 OFFCURVE",
"406 786 OFFCURVE",
"485 786 CURVE SMOOTH",
"598 786 OFFCURVE",
"662 824 OFFCURVE",
"662 888 CURVE SMOOTH",
"662 956 OFFCURVE",
"606 990 OFFCURVE",
"494 990 CURVE SMOOTH",
"377 990 LINE",
"377 1166 LINE",
"502 1166 LINE SMOOTH",
"594 1166 OFFCURVE",
"643 1192 OFFCURVE",
"643 1243 CURVE SMOOTH",
"643 1291 OFFCURVE",
"593 1317 OFFCURVE",
"498 1317 CURVE SMOOTH",
"475 1317 OFFCURVE",
"447 1314 OFFCURVE",
"408 1306 CURVE SMOOTH",
"368 1298 OFFCURVE",
"318 1286 OFFCURVE",
"253 1267 CURVE",
"253 1453 LINE",
"365 1480 OFFCURVE",
"456 1493 OFFCURVE",
"529 1493 CURVE SMOOTH",
"624 1493 OFFCURVE",
"704 1471 OFFCURVE",
"763 1432 CURVE",
"824 1388 OFFCURVE",
"858 1326 OFFCURVE",
"858 1253 CURVE SMOOTH"
);
}
);
width = 1048;
}
);
unicode = 00B3;
},
{
glyphname = acute;
lastChange = "2012-06-02 17:01:23 +0000";
layers = (
{
anchors = (
{
name = _top;
position = "{335.5, 1120}";
}
);
layerId = "D5D14868-B3D8-4E08-9530-062F6179E82D";
name = Bold;
paths = (
{
closed = 1;
nodes = (
"356 1603 LINE",
"662 1603 LINE",
"259 1139 LINE",
"9 1139 LINE"
);
}
);
width = 662;
}
);
unicode = 00B4;
},
{
glyphname = mu;
lastChange = "2012-06-02 17:01:23 +0000";
layers = (
{
layerId = "D5D14868-B3D8-4E08-9530-062F6179E82D";
name = Bold;
paths = (
{
closed = 1;
nodes = (
"308 -398 LINE",
"289 1118 LINE",
"534 1131 LINE",
"545 629 LINE SMOOTH",
"545 472 OFFCURVE",
"617 393 OFFCURVE",
"762 393 CURVE SMOOTH",
"922 393 OFFCURVE",
"1002 485 OFFCURVE",
"1002 669 CURVE SMOOTH",
"1012 1120 LINE",
"1258 1120 LINE",
"1248 278 LINE SMOOTH",
"1248 265 OFFCURVE",
"1271 256 OFFCURVE",
"1318 253 CURVE",
"1323 254 OFFCURVE",
"1333 258 OFFCURVE",
"1349 265 CURVE SMOOTH",
"1365 272 OFFCURVE",
"1388 281 OFFCURVE",
"1417 294 CURVE",
"1417 77 LINE",
"1411 74 OFFCURVE",
"1404 70 OFFCURVE",
"1395 65 CURVE SMOOTH",
"1386 60 OFFCURVE",
"1376 54 OFFCURVE",
"1367 48 CURVE",
"1357 42 OFFCURVE",
"1347 36 OFFCURVE",
"1337 30 CURVE",
"1326 24 OFFCURVE",
"1317 18 OFFCURVE",
"1308 12 CURVE",
"1309 12 LINE",
"1269 -14 OFFCURVE",
"1234 -27 OFFCURVE",
"1204 -27 CURVE SMOOTH",
"1122 -27 OFFCURVE",
"1066 8 OFFCURVE",
"1035 77 CURVE",
"971 16 OFFCURVE",
"879 -27 OFFCURVE",
"775 -27 CURVE SMOOTH",
"680 -27 OFFCURVE",
"604 -2 OFFCURVE",
"547 48 CURVE",
"548 -27 OFFCURVE",
"550 -102 OFFCURVE",
"551 -178 CURVE SMOOTH",
"552 -255 OFFCURVE",
"554 -328 OFFCURVE",
"555 -398 CURVE"
);
}
);
width = 1425;
}
);
unicode = 03BC;
},
{
glyphname = paragraph;
lastChange = "2012-06-02 17:01:23 +0000";
layers = (
{
layerId = "D5D14868-B3D8-4E08-9530-062F6179E82D";
name = Bold;
paths = (
{
closed = 1;
nodes = (
"1020 1468 LINE",
"1236 -184 LINE",
"819 -184 LINE",
"828 1279 LINE",
"726 1279 LINE",
"726 -184 LINE",
"347 -184 LINE",
"413 613 LINE",
"349 632 OFFCURVE",
"287 671 OFFCURVE",
"219 735 CURVE SMOOTH",
"138 810 OFFCURVE",
"98 910 OFFCURVE",
"98 1037 CURVE SMOOTH",
"98 1297 OFFCURVE",
"292 1468 OFFCURVE",
"579 1468 CURVE SMOOTH"
);
}
);
width = 1386;
}
);
unicode = 00B6;
},
{
glyphname = periodcentered;
lastChange = "2012-06-02 17:01:23 +0000";
layers = (
{
layerId = "D5D14868-B3D8-4E08-9530-062F6179E82D";
name = Bold;
paths = (
{
closed = 1;
nodes = (
"306 857 LINE",
"577 857 LINE",
"577 545 LINE",
"306 545 LINE"
);
}
);
width = 875;
}
);
unicode = 00B7;
},
{
glyphname = cedilla;
lastChange = "2012-06-02 17:01:23 +0000";
layers = (
{
anchors = (
{
name = _bottom;
position = "{329.5, 0}";
}
);
layerId = "D5D14868-B3D8-4E08-9530-062F6179E82D";
name = Bold;
paths = (
{
closed = 1;
nodes = (
"438 75 LINE",
"521 -20 OFFCURVE",
"560 -92 OFFCURVE",
"560 -163 CURVE SMOOTH",
"560 -300 OFFCURVE",
"472 -369 OFFCURVE",
"300 -369 CURVE SMOOTH",
"239 -369 OFFCURVE",
"174 -358 OFFCURVE",
"99 -338 CURVE",
"99 -125 LINE",
"175 -164 OFFCURVE",
"229 -179 OFFCURVE",
"281 -179 CURVE SMOOTH",
"330 -179 OFFCURVE",
"355 -162 OFFCURVE",
"355 -129 CURVE SMOOTH",
"355 -114 OFFCURVE",
"345 -89 OFFCURVE",
"326 -56 CURVE SMOOTH",
"306 -23 OFFCURVE",
"276 20 OFFCURVE",
"236 75 CURVE"
);
}
);
width = 716;
}
);
unicode = 00B8;
},
{
glyphname = onesuperior;
lastChange = "2012-06-02 17:01:23 +0000";
layers = (
{
layerId = "D5D14868-B3D8-4E08-9530-062F6179E82D";
name = Bold;
paths = (
{
closed = 1;
nodes = (
"268 801 LINE",
"459 801 LINE",
"459 1290 LINE",
"442 1287 OFFCURVE",
"425 1283 OFFCURVE",
"406 1280 CURVE SMOOTH",
"369 1273 OFFCURVE",
"332 1267 OFFCURVE",
"298 1260 CURVE SMOOTH",
"281 1257 OFFCURVE",
"265 1254 OFFCURVE",
"251 1252 CURVE",
"251 1435 LINE",
"502 1477 LINE",
"668 1477 LINE",
"668 801 LINE",
"859 801 LINE",
"859 623 LINE",
"268 623 LINE"
);
}
);
width = 936;
}
);
unicode = 00B9;
},
{
glyphname = ordmasculine;
lastChange = "2012-06-02 17:01:23 +0000";
layers = (
{
layerId = "D5D14868-B3D8-4E08-9530-062F6179E82D";
name = Bold;
paths = (
{
closed = 1;
nodes = (
"233 627 LINE",
"950 627 LINE",
"950 438 LINE",
"233 438 LINE"
);
},
{
closed = 1;
nodes = (
"833 1493 OFFCURVE",
"989 1327 OFFCURVE",
"989 1071 CURVE SMOOTH",
"989 816 OFFCURVE",
"835 651 OFFCURVE",
"592 651 CURVE SMOOTH",
"349 651 OFFCURVE",
"193 819 OFFCURVE",
"193 1071 CURVE SMOOTH",
"193 1326 OFFCURVE",
"348 1493 OFFCURVE",
"592 1493 CURVE SMOOTH"
);
},
{
closed = 1;
nodes = (
"483 1346 OFFCURVE",
"414 1276 OFFCURVE",
"414 1149 CURVE SMOOTH",
"414 1087 OFFCURVE",
"430 1039 OFFCURVE",
"462 1005 CURVE",
"462 1006 LINE",
"496 972 OFFCURVE",
"539 955 OFFCURVE",
"592 955 CURVE SMOOTH",
"700 955 OFFCURVE",
"769 1030 OFFCURVE",
"769 1149 CURVE SMOOTH",
"769 1212 OFFCURVE",
"752 1259 OFFCURVE",
"721 1295 CURVE",
"689 1329 OFFCURVE",
"646 1346 OFFCURVE",
"592 1346 CURVE SMOOTH"
);
}
);
width = 1185;
}
);
unicode = 00BA;
},
{
glyphname = guillemotright;
lastChange = "2012-06-02 17:01:23 +0000";
layers = (
{
layerId = "D5D14868-B3D8-4E08-9530-062F6179E82D";
name = Bold;
paths = (
{
closed = 1;
nodes = (
"275 1133 LINE",
"759 654 LINE",
"799 507 LINE",
"269 81 LINE",
"233 386 LINE",
"512 609 LINE",
"261 856 LINE"
);
},
{
closed = 1;
nodes = (
"679 1112 LINE",
"1163 633 LINE",
"1203 485 LINE",
"673 60 LINE",
"637 365 LINE",
"916 587 LINE",
"665 834 LINE"
);
}
);
width = 1213;
}
);
unicode = 00BB;
},
{
glyphname = onequarter;
lastChange = "2012-06-02 17:01:23 +0000";
layers = (
{
layerId = "D5D14868-B3D8-4E08-9530-062F6179E82D";
name = Bold;
paths = (
{
closed = 1;
nodes = (
"268 801 LINE",
"459 801 LINE",
"459 1290 LINE",
"442 1287 OFFCURVE",
"425 1283 OFFCURVE",
"406 1280 CURVE SMOOTH",
"369 1273 OFFCURVE",
"332 1267 OFFCURVE",
"298 1260 CURVE SMOOTH",
"281 1257 OFFCURVE",
"265 1254 OFFCURVE",
"251 1252 CURVE",
"251 1435 LINE",
"502 1477 LINE",
"668 1477 LINE",
"668 801 LINE",
"859 801 LINE",
"859 623 LINE",
"268 623 LINE"
);
},
{
closed = 1;
nodes = (
"1736 1493 LINE",
"1973 1493 LINE",
"1058 -27 LINE",
"821 -27 LINE"
);
},
{
closed = 1;
nodes = (
"1553 546 LINE",
"1377 306 LINE",
"1553 306 LINE"
);
},
{
closed = 1;
nodes = (
"1552 810 LINE",
"1763 810 LINE",
"1763 306 LINE",
"1889 306 LINE",
"1889 130 LINE",
"1763 130 LINE",
"1763 -44 LINE",
"1553 -44 LINE",
"1553 130 LINE",
"1167 130 LINE",
"1167 292 LINE"
);
}
);
width = 1985;
}
);
unicode = 00BC;
},
{
glyphname = onehalf;
lastChange = "2012-06-02 17:14:56 +0000";
layers = (
{
layerId = "D5D14868-B3D8-4E08-9530-062F6179E82D";
name = Bold;
paths = (
{
closed = 1;
nodes = (
"268 801 LINE",
"459 801 LINE",
"459 1290 LINE",
"442 1287 OFFCURVE",
"425 1283 OFFCURVE",
"406 1280 CURVE SMOOTH",
"369 1273 OFFCURVE",
"332 1267 OFFCURVE",
"298 1260 CURVE SMOOTH",
"281 1257 OFFCURVE",
"265 1254 OFFCURVE",
"251 1252 CURVE",
"251 1435 LINE",
"502 1477 LINE",
"668 1477 LINE",
"668 801 LINE",
"859 801 LINE",
"859 623 LINE",
"268 623 LINE"
);
},
{
closed = 1;
nodes = (
"1476 1493 LINE",
"1713 1493 LINE",
"798 -27 LINE",
"561 -27 LINE"
);
},
{
closed = 1;
nodes = (
"1967 138 LINE",
"1967 -44 LINE",
"1334 -44 LINE",
"1334 113 LINE",
"1437 206 LINE SMOOTH",
"1643 389 OFFCURVE",
"1746 503 OFFCURVE",
"1746 550 CURVE SMOOTH",
"1746 610 OFFCURVE",
"1691 650 OFFCURVE",
"1607 650 CURVE SMOOTH",
"1548 650 OFFCURVE",
"1459 621 OFFCURVE",
"1340 562 CURVE",
"1340 764 LINE",
"1456 805 OFFCURVE",
"1552 826 OFFCURVE",
"1627 826 CURVE SMOOTH",
"1823 826 OFFCURVE",
"1962 725 OFFCURVE",
"1962 565 CURVE SMOOTH",
"1962 468 OFFCURVE",
"1855 328 OFFCURVE",
"1642 145 CURVE",
"1642 144 OFFCURVE",
"1642 144 OFFCURVE",
"1641 143 CURVE SMOOTH",
"1640 142 OFFCURVE",
"1638 141 OFFCURVE",
"1634 138 CURVE"
);
}
);
width = 1985;
}
);
unicode = 00BD;
},
{
glyphname = threequarters;
lastChange = "2012-06-02 17:15:35 +0000";
layers = (
{
layerId = "D5D14868-B3D8-4E08-9530-062F6179E82D";
name = Bold;
paths = (
{
closed = 1;
nodes = (
"858 1181 OFFCURVE",
"825 1124 OFFCURVE",
"765 1085 CURVE",
"838 1042 OFFCURVE",
"878 976 OFFCURVE",
"878 888 CURVE SMOOTH",
"878 708 OFFCURVE",
"745 609 OFFCURVE",
"498 609 CURVE SMOOTH",
"425 609 OFFCURVE",
"334 625 OFFCURVE",
"226 657 CURVE",
"226 860 LINE",
"320 811 OFFCURVE",
"406 786 OFFCURVE",
"485 786 CURVE SMOOTH",
"598 786 OFFCURVE",
"662 824 OFFCURVE",
"662 888 CURVE SMOOTH",
"662 956 OFFCURVE",
"606 990 OFFCURVE",
"494 990 CURVE SMOOTH",
"377 990 LINE",
"377 1166 LINE",
"502 1166 LINE SMOOTH",
"594 1166 OFFCURVE",
"643 1192 OFFCURVE",
"643 1243 CURVE SMOOTH",
"643 1291 OFFCURVE",
"593 1317 OFFCURVE",
"498 1317 CURVE SMOOTH",
"475 1317 OFFCURVE",
"447 1314 OFFCURVE",
"408 1306 CURVE SMOOTH",
"368 1298 OFFCURVE",
"318 1286 OFFCURVE",
"253 1267 CURVE",
"253 1453 LINE",
"365 1480 OFFCURVE",
"456 1493 OFFCURVE",
"529 1493 CURVE SMOOTH",
"624 1493 OFFCURVE",
"704 1471 OFFCURVE",
"763 1432 CURVE",
"824 1388 OFFCURVE",
"858 1326 OFFCURVE",
"858 1253 CURVE SMOOTH"
);
},
{
closed = 1;
nodes = (
"1406 1493 LINE",
"1643 1493 LINE",
"728 -27 LINE",
"491 -27 LINE"
);
},
{
closed = 1;
nodes = (
"1483 546 LINE",
"1307 306 LINE",
"1483 306 LINE"
);
},
{
closed = 1;
nodes = (
"1482 810 LINE",
"1693 810 LINE",
"1693 306 LINE",
"1819 306 LINE",
"1819 130 LINE",
"1693 130 LINE",
"1693 -44 LINE",
"1483 -44 LINE",
"1483 130 LINE",
"1097 130 LINE",
"1097 292 LINE"
);
}
);
width = 1985;
}
);
unicode = 00BE;
},
{
glyphname = questiondown;
lastChange = "2012-06-02 17:01:23 +0000";
layers = (
{
layerId = "D5D14868-B3D8-4E08-9530-062F6179E82D";
name = Bold;
paths = (
{
closed = 1;
nodes = (
"361 1094 LINE",
"585 1094 LINE",
"585 911 LINE SMOOTH",
"585 774 OFFCURVE",
"559 745 OFFCURVE",
"467 644 CURVE",
"382 561 LINE SMOOTH",
"318 501 OFFCURVE",
"292 456 OFFCURVE",
"292 405 CURVE SMOOTH",
"292 361 OFFCURVE",
"308 326 OFFCURVE",
"340 299 CURVE",
"340 300 LINE",
"373 271 OFFCURVE",
"420 257 OFFCURVE",
"479 257 CURVE SMOOTH",
"568 257 OFFCURVE",
"694 314 OFFCURVE",
"847 419 CURVE",
"847 95 LINE",
"710 12 OFFCURVE",
"582 -27 OFFCURVE",
"446 -27 CURVE SMOOTH",
"197 -27 OFFCURVE",
"28 120 OFFCURVE",
"28 340 CURVE SMOOTH",
"28 393 OFFCURVE",
"41 443 OFFCURVE",
"66 492 CURVE",
"93 539 OFFCURVE",
"134 590 OFFCURVE",
"191 646 CURVE SMOOTH",
"273 726 LINE SMOOTH",
"301 753 OFFCURVE",
"320 775 OFFCURVE",
"331 790 CURVE",
"331 789 LINE",
"351 814 OFFCURVE",
"356 835 OFFCURVE",
"359 869 CURVE SMOOTH",
"360 886 OFFCURVE",
"361 910 OFFCURVE",
"361 942 CURVE SMOOTH"
);
},
{
closed = 1;
nodes = (
"619 1156 LINE",
"356 1156 LINE",
"356 1468 LINE",
"619 1468 LINE"
);
}
);
width = 922;
}
);
unicode = 00BF;
},
{
glyphname = Agrave;
lastChange = "2012-06-02 17:15:51 +0000";
layers = (
{
layerId = "D5D14868-B3D8-4E08-9530-062F6179E82D";
name = Bold;
paths = (
{
closed = 1;
nodes = (
"740 1158 LINE",
"722 1104 OFFCURVE",
"705 1052 OFFCURVE",
"688 1001 CURVE SMOOTH",
"671 950 OFFCURVE",
"655 900 OFFCURVE",
"638 849 CURVE SMOOTH",
"621 798 OFFCURVE",
"603 747 OFFCURVE",
"586 695 CURVE SMOOTH",
"569 642 OFFCURVE",
"551 588 OFFCURVE",
"532 532 CURVE",
"949 532 LINE"
);
},
{
closed = 1;
nodes = (
"625 1493 LINE",
"856 1493 LINE",
"1445 0 LINE",
"1083 0 LINE",
"1030 231 LINE",
"449 231 LINE",
"377 0 LINE",
"35 0 LINE"
);
},
{
closed = 1;
nodes = (
"587 1872 LINE",
"825 1551 LINE",
"592 1551 LINE",
"313 1872 LINE"
);
}
);
width = 1401;
}
);
unicode = 00C0;
},
{
glyphname = Aacute;
lastChange = "2012-06-02 17:16:35 +0000";
layers = (
{
layerId = "D5D14868-B3D8-4E08-9530-062F6179E82D";
name = Bold;
paths = (
{
closed = 1;
nodes = (
"740 1158 LINE",
"722 1104 OFFCURVE",
"705 1052 OFFCURVE",
"688 1001 CURVE SMOOTH",
"671 950 OFFCURVE",
"655 900 OFFCURVE",
"638 849 CURVE SMOOTH",
"621 798 OFFCURVE",
"603 747 OFFCURVE",
"586 695 CURVE SMOOTH",
"569 642 OFFCURVE",
"551 588 OFFCURVE",
"532 532 CURVE",
"949 532 LINE"
);
},
{
closed = 1;
nodes = (
"625 1493 LINE",
"856 1493 LINE",
"1445 0 LINE",
"1083 0 LINE",
"1030 231 LINE",
"449 231 LINE",
"377 0 LINE",
"35 0 LINE"
);
},
{
closed = 1;
nodes = (
"840 1872 LINE",
"1113 1872 LINE",
"836 1551 LINE",
"601 1551 LINE"
);
}
);
width = 1401;
}
);
unicode = 00C1;
},
{
glyphname = Acircumflex;
lastChange = "2012-06-02 17:16:40 +0000";
layers = (
{
layerId = "D5D14868-B3D8-4E08-9530-062F6179E82D";
name = Bold;
paths = (
{
closed = 1;
nodes = (
"740 1158 LINE",
"722 1104 OFFCURVE",
"705 1052 OFFCURVE",
"688 1001 CURVE SMOOTH",
"671 950 OFFCURVE",
"655 900 OFFCURVE",
"638 849 CURVE SMOOTH",
"621 798 OFFCURVE",
"603 747 OFFCURVE",
"586 695 CURVE SMOOTH",
"569 642 OFFCURVE",
"551 588 OFFCURVE",
"532 532 CURVE",
"949 532 LINE"
);
},
{
closed = 1;
nodes = (
"625 1493 LINE",
"856 1493 LINE",
"1445 0 LINE",
"1083 0 LINE",
"1030 231 LINE",
"449 231 LINE",
"377 0 LINE",
"35 0 LINE"
);
},
{
closed = 1;
nodes = (
"627 1874 LINE",
"838 1874 LINE",
"1095 1551 LINE",
"872 1551 LINE",
"732 1700 LINE",
"709 1676 OFFCURVE",
"685 1651 OFFCURVE",
"662 1625 CURVE SMOOTH",
"638 1599 OFFCURVE",
"615 1574 OFFCURVE",
"594 1551 CURVE",
"371 1551 LINE"
);
}
);
width = 1401;
}
);
unicode = 00C2;
},
{
glyphname = Atilde;
lastChange = "2012-06-02 17:01:23 +0000";
layers = (
{
layerId = "D5D14868-B3D8-4E08-9530-062F6179E82D";
name = Bold;
paths = (
{
closed = 1;
nodes = (
"740 1158 LINE",
"722 1104 OFFCURVE",
"705 1052 OFFCURVE",
"688 1001 CURVE SMOOTH",
"671 950 OFFCURVE",
"655 900 OFFCURVE",
"638 849 CURVE SMOOTH",
"621 798 OFFCURVE",
"603 747 OFFCURVE",
"586 695 CURVE SMOOTH",
"569 642 OFFCURVE",
"551 588 OFFCURVE",
"532 532 CURVE",
"949 532 LINE"
);
},
{
closed = 1;
nodes = (
"625 1493 LINE",
"856 1493 LINE",
"1445 0 LINE",
"1083 0 LINE",
"1030 231 LINE",
"449 231 LINE",
"377 0 LINE",
"35 0 LINE"
);
},
{
closed = 1;
nodes = (
"664 1656 LINE SMOOTH",
"641 1669 OFFCURVE",
"626 1675 OFFCURVE",
"620 1675 CURVE SMOOTH",
"597 1675 OFFCURVE",
"586 1656 OFFCURVE",
"586 1624 CURVE SMOOTH",
"586 1581 LINE",
"395 1581 LINE",
"395 1666 OFFCURVE",
"416 1736 OFFCURVE",
"453 1785 CURVE SMOOTH",
"490 1833 OFFCURVE",
"544 1860 OFFCURVE",
"608 1860 CURVE SMOOTH",
"635 1860 OFFCURVE",
"656 1858 OFFCURVE",
"680 1851 CURVE SMOOTH",
"704 1844 OFFCURVE",
"729 1834 OFFCURVE",
"762 1815 CURVE",
"761 1815 LINE",
"815 1787 LINE",
"836 1774 OFFCURVE",
"853 1768 OFFCURVE",
"864 1768 CURVE SMOOTH",
"883 1768 OFFCURVE",
"894 1788 OFFCURVE",
"894 1817 CURVE SMOOTH",
"894 1860 LINE",
"1086 1860 LINE",
"1083 1775 OFFCURVE",
"1062 1705 OFFCURVE",
"1025 1657 CURVE SMOOTH",
"988 1608 OFFCURVE",
"935 1581 OFFCURVE",
"872 1581 CURVE SMOOTH",
"845 1581 OFFCURVE",
"823 1584 OFFCURVE",
"802 1589 CURVE",
"781 1595 OFFCURVE",
"753 1607 OFFCURVE",
"718 1625 CURVE"
);
}
);
width = 1401;
}
);
unicode = 00C3;
},
{
glyphname = Adieresis;
lastChange = "2012-06-02 17:16:49 +0000";
layers = (
{
layerId = "D5D14868-B3D8-4E08-9530-062F6179E82D";
name = Bold;
paths = (
{
closed = 1;
nodes = (
"740 1158 LINE",
"722 1104 OFFCURVE",
"705 1052 OFFCURVE",
"688 1001 CURVE SMOOTH",
"671 950 OFFCURVE",
"655 900 OFFCURVE",
"638 849 CURVE SMOOTH",
"621 798 OFFCURVE",
"603 747 OFFCURVE",
"586 695 CURVE SMOOTH",
"569 642 OFFCURVE",
"551 588 OFFCURVE",
"532 532 CURVE",
"949 532 LINE"
);
},
{
closed = 1;
nodes = (
"625 1493 LINE",
"856 1493 LINE",
"1445 0 LINE",
"1083 0 LINE",
"1030 231 LINE",
"449 231 LINE",
"377 0 LINE",
"35 0 LINE"
);
},
{
closed = 1;
nodes = (
"779 1845 LINE",
"1043 1845 LINE",
"1043 1581 LINE",
"779 1581 LINE"
);
},
{
closed = 1;
nodes = (
"414 1845 LINE",
"679 1845 LINE",
"679 1581 LINE",
"414 1581 LINE"
);
}
);
width = 1401;
}
);
unicode = 00C4;
},
{
glyphname = Aring;
lastChange = "2012-06-02 17:01:23 +0000";
layers = (
{
layerId = "D5D14868-B3D8-4E08-9530-062F6179E82D";
name = Bold;
paths = (
{
closed = 1;
nodes = (
"860 1637 OFFCURVE",
"810 1688 OFFCURVE",
"754 1688 CURVE SMOOTH",
"694 1688 OFFCURVE",
"648 1642 OFFCURVE",
"648 1581 CURVE SMOOTH",
"648 1522 OFFCURVE",
"694 1476 OFFCURVE",
"754 1476 CURVE SMOOTH",
"814 1476 OFFCURVE",
"860 1522 OFFCURVE",
"860 1581 CURVE SMOOTH"
);
},
{
closed = 1;
nodes = (
"755 1154 LINE",
"720 1059 OFFCURVE",
"687 971 OFFCURVE",
"654 881 CURVE SMOOTH",
"637 836 OFFCURVE",
"620 790 OFFCURVE",
"603 744 CURVE SMOOTH",
"586 697 OFFCURVE",
"568 649 OFFCURVE",
"550 599 CURVE",
"958 599 LINE"
);
},
{
closed = 1;
nodes = (
"566 1351 LINE",
"493 1410 OFFCURVE",
"456 1487 OFFCURVE",
"456 1581 CURVE SMOOTH",
"456 1749 OFFCURVE",
"587 1880 OFFCURVE",
"754 1880 CURVE SMOOTH",
"838 1880 OFFCURVE",
"908 1851 OFFCURVE",
"965 1792 CURVE SMOOTH",
"1024 1735 OFFCURVE",
"1053 1664 OFFCURVE",
"1053 1581 CURVE SMOOTH",
"1053 1489 OFFCURVE",
"1015 1409 OFFCURVE",
"943 1350 CURVE",
"1458 0 LINE",
"1177 0 LINE",
"1047 364 LINE",
"463 364 LINE",
"333 0 LINE",
"49 0 LINE"
);
}
);
width = 1507;
}
);
unicode = 00C5;
},
{
glyphname = AE;
lastChange = "2012-06-02 17:01:23 +0000";
layers = (
{
anchors = (
{
name = top;
position = "{1105, 1493}";
}
);
layerId = "D5D14868-B3D8-4E08-9530-062F6179E82D";
name = Bold;
paths = (
{
closed = 1;
nodes = (
"1906 1493 LINE",
"1906 1256 LINE",
"1202 1256 LINE",
"1202 751 LINE",
"1877 751 LINE",
"1877 513 LINE",
"1202 513 LINE",
"1202 323 LINE",
"1924 323 LINE",
"1924 0 LINE",
"934 0 LINE",
"934 250 LINE",
"509 250 LINE",
"519 0 LINE",
"67 0 LINE",
"692 1493 LINE"
);
},
{
closed = 1;
nodes = (
"877 1267 LINE",
"591 485 LINE",
"934 485 LINE",
"934 1267 LINE"
);
}
);
width = 2209;
}
);
unicode = 00C6;
},
{
glyphname = Ccedilla;
lastChange = "2012-06-02 17:17:01 +0000";
layers = (
{
layerId = "D5D14868-B3D8-4E08-9530-062F6179E82D";
name = Bold;
paths = (
{
closed = 1;
nodes = (
"1358 1056 LINE",
"1191 1211 OFFCURVE",
"1036 1285 OFFCURVE",
"881 1285 CURVE SMOOTH",
"580 1285 OFFCURVE",
"418 1097 OFFCURVE",
"418 745 CURVE SMOOTH",
"423 440 OFFCURVE",
"572 339 OFFCURVE",
"881 339 CURVE SMOOTH",
"1036 339 OFFCURVE",
"1191 413 OFFCURVE",
"1358 568 CURVE",
"1358 127 LINE",
"1207 24 OFFCURVE",
"1046 -28 OFFCURVE",
"870 -28 CURVE SMOOTH",
"419 -28 OFFCURVE",
"140 270 OFFCURVE",
"140 745 CURVE SMOOTH",
"140 1218 OFFCURVE",
"418 1519 OFFCURVE",
"870 1519 CURVE SMOOTH",
"1045 1519 OFFCURVE",
"1208 1468 OFFCURVE",
"1358 1366 CURVE"
);
},
{
closed = 1;
nodes = (
"889 75 LINE",
"972 -20 OFFCURVE",
"1011 -92 OFFCURVE",
"1011 -163 CURVE SMOOTH",
"1011 -300 OFFCURVE",
"923 -369 OFFCURVE",
"751 -369 CURVE SMOOTH",
"690 -369 OFFCURVE",
"625 -358 OFFCURVE",
"550 -338 CURVE",
"550 -125 LINE",
"626 -164 OFFCURVE",
"680 -179 OFFCURVE",
"732 -179 CURVE SMOOTH",
"781 -179 OFFCURVE",
"806 -162 OFFCURVE",
"806 -129 CURVE SMOOTH",
"806 -114 OFFCURVE",
"796 -89 OFFCURVE",
"777 -56 CURVE SMOOTH",
"757 -23 OFFCURVE",
"727 20 OFFCURVE",
"687 75 CURVE"
);
}
);
width = 1430;
}
);
unicode = 00C7;
},
{
glyphname = Egrave;
lastChange = "2012-06-02 17:17:16 +0000";
layers = (
{
layerId = "D5D14868-B3D8-4E08-9530-062F6179E82D";
name = Bold;
paths = (
{
closed = 1;
nodes = (
"186 1493 LINE",
"1158 1493 LINE",
"1158 1256 LINE",
"454 1256 LINE",
"454 912 LINE",
"1128 912 LINE",
"1128 675 LINE",
"454 675 LINE",
"454 370 LINE",
"1175 370 LINE",
"1175 0 LINE",
"186 0 LINE"
);
},
{
closed = 1;
nodes = (
"467 1872 LINE",
"705 1551 LINE",
"472 1551 LINE",
"193 1872 LINE"
);
}
);
width = 1294;
}
);
unicode = 00C8;
},
{
glyphname = Eacute;
lastChange = "2012-06-02 17:17:27 +0000";
layers = (
{
layerId = "D5D14868-B3D8-4E08-9530-062F6179E82D";
name = Bold;
paths = (
{
closed = 1;
nodes = (
"176 1493 LINE",
"1148 1493 LINE",
"1148 1256 LINE",
"444 1256 LINE",
"444 912 LINE",
"1118 912 LINE",
"1118 675 LINE",
"444 675 LINE",
"444 370 LINE",
"1165 370 LINE",
"1165 0 LINE",
"176 0 LINE"
);
},
{
closed = 1;
nodes = (
"600 1872 LINE",
"873 1872 LINE",
"596 1551 LINE",
"361 1551 LINE"
);
}
);
width = 1294;
}
);
unicode = 00C9;
},
{
glyphname = Ecircumflex;
lastChange = "2012-06-02 17:17:36 +0000";
layers = (
{
layerId = "D5D14868-B3D8-4E08-9530-062F6179E82D";
name = Bold;
paths = (
{
closed = 1;
nodes = (
"186 1493 LINE",
"1158 1493 LINE",
"1158 1256 LINE",
"454 1256 LINE",
"454 912 LINE",
"1128 912 LINE",
"1128 675 LINE",
"454 675 LINE",
"454 370 LINE",
"1175 370 LINE",
"1175 0 LINE",
"186 0 LINE"
);
},
{
closed = 1;
nodes = (
"527 1874 LINE",
"738 1874 LINE",
"995 1551 LINE",
"772 1551 LINE",
"632 1700 LINE",
"609 1676 OFFCURVE",
"585 1651 OFFCURVE",
"562 1625 CURVE SMOOTH",
"538 1599 OFFCURVE",
"515 1574 OFFCURVE",
"494 1551 CURVE",
"271 1551 LINE"
);
}
);
width = 1294;
}
);
unicode = 00CA;
},
{
glyphname = Edieresis;
lastChange = "2012-06-02 17:17:44 +0000";
layers = (
{
layerId = "D5D14868-B3D8-4E08-9530-062F6179E82D";
name = Bold;
paths = (
{
closed = 1;
nodes = (
"196 1493 LINE",
"1168 1493 LINE",
"1168 1256 LINE",
"464 1256 LINE",
"464 912 LINE",
"1138 912 LINE",
"1138 675 LINE",
"464 675 LINE",
"464 370 LINE",
"1185 370 LINE",
"1185 0 LINE",
"196 0 LINE"
);
},
{
closed = 1;
nodes = (
"719 1845 LINE",
"983 1845 LINE",
"983 1581 LINE",
"719 1581 LINE"
);
},
{
closed = 1;
nodes = (
"354 1845 LINE",
"619 1845 LINE",
"619 1581 LINE",
"354 1581 LINE"
);
}
);
width = 1294;
}
);
unicode = 00CB;
},
{
glyphname = Igrave;
lastChange = "2012-06-02 17:17:50 +0000";
layers = (
{
layerId = "D5D14868-B3D8-4E08-9530-062F6179E82D";
name = Bold;
paths = (
{
closed = 1;
nodes = (
"248 1493 LINE",
"505 1493 LINE",
"524 0 LINE",
"217 0 LINE"
);
},
{
closed = 1;
nodes = (
"221 1872 LINE",
"459 1551 LINE",
"226 1551 LINE",
"-53 1872 LINE"
);
}
);
width = 604;
}
);
unicode = 00CC;
},
{
glyphname = Iacute;
lastChange = "2012-06-02 17:17:58 +0000";
layers = (
{
layerId = "D5D14868-B3D8-4E08-9530-062F6179E82D";
name = Bold;
paths = (
{
closed = 1;
nodes = (
"248 1493 LINE",
"505 1493 LINE",
"524 0 LINE",
"217 0 LINE"
);
},
{
closed = 1;
nodes = (
"464 1872 LINE",
"737 1872 LINE",
"460 1551 LINE",
"225 1551 LINE"
);
}
);
width = 604;
}
);
unicode = 00CD;
},
{
glyphname = Icircumflex;
lastChange = "2012-06-02 17:18:04 +0000";
layers = (
{
layerId = "D5D14868-B3D8-4E08-9530-062F6179E82D";
name = Bold;
paths = (
{
closed = 1;
nodes = (
"248 1493 LINE",
"505 1493 LINE",
"524 0 LINE",
"217 0 LINE"
);
},
{
closed = 1;
nodes = (
"261 1874 LINE",
"472 1874 LINE",
"729 1551 LINE",
"506 1551 LINE",
"366 1700 LINE",
"343 1676 OFFCURVE",
"319 1651 OFFCURVE",
"296 1625 CURVE SMOOTH",
"272 1599 OFFCURVE",
"249 1574 OFFCURVE",
"228 1551 CURVE",
"5 1551 LINE"
);
}
);
width = 604;
}
);
unicode = 00CE;
},
{
glyphname = Idieresis;
lastChange = "2012-06-02 17:01:23 +0000";
layers = (
{
layerId = "D5D14868-B3D8-4E08-9530-062F6179E82D";
name = Bold;
paths = (
{
closed = 1;
nodes = (
"248 1493 LINE",
"505 1493 LINE",
"524 0 LINE",
"217 0 LINE"
);
},
{
closed = 1;
nodes = (
"463 1845 LINE",
"727 1845 LINE",
"727 1581 LINE",
"463 1581 LINE"
);
},
{
closed = 1;
nodes = (
"98 1845 LINE",
"363 1845 LINE",
"363 1581 LINE",
"98 1581 LINE"
);
}
);
width = 604;
}
);
unicode = 00CF;
},
{
glyphname = Eth;
lastChange = "2012-10-08 00:18:01 +0000";
layers = (
{
layerId = "D5D14868-B3D8-4E08-9530-062F6179E82D";
name = Bold;
paths = (
{
closed = 1;
nodes = (
"311 1493 LINE",
"744 1493 LINE SMOOTH",
"1023 1493 OFFCURVE",
"1237 1429 OFFCURVE",
"1373 1312 CURVE",
"1506 1189 OFFCURVE",
"1578 1000 OFFCURVE",
"1578 748 CURVE SMOOTH",
"1578 493 OFFCURVE",
"1507 305 OFFCURVE",
"1372 181 CURVE SMOOTH",
"1236 64 OFFCURVE",
"1023 0 OFFCURVE",
"744 0 CURVE SMOOTH",
"311 0 LINE",
"311 664 LINE",
"120 664 LINE",
"120 877 LINE",
"311 877 LINE"
);
},
{
closed = 1;
nodes = (
"580 1260 LINE",
"580 877 LINE",
"899 877 LINE",
"899 664 LINE",
"580 664 LINE",
"580 337 LINE",
"772 337 LINE SMOOTH",
"1141 337 OFFCURVE",
"1300 388 OFFCURVE",
"1300 748 CURVE SMOOTH",
"1300 1104 OFFCURVE",
"1141 1260 OFFCURVE",
"772 1260 CURVE SMOOTH"
);
}
);
width = 1745;
}
);
unicode = 00D0;
},
{
glyphname = Ntilde;
lastChange = "2012-06-02 17:01:23 +0000";
layers = (
{
layerId = "D5D14868-B3D8-4E08-9530-062F6179E82D";
name = Bold;
paths = (
{
closed = 1;
nodes = (
"328 1465 LINE",
"627 1465 LINE",
"1179 451 LINE",
"1205 1493 LINE",
"1457 1493 LINE",
"1457 0 LINE",
"1119 0 LINE",
"560 1054 LINE",
"569 879 OFFCURVE",
"577 703 OFFCURVE",
"586 524 CURVE SMOOTH",
"594 345 OFFCURVE",
"602 171 OFFCURVE",
"610 0 CURVE",
"289 0 LINE"
);
},
{
closed = 1;
nodes = (
"750 1656 LINE SMOOTH",
"727 1669 OFFCURVE",
"712 1675 OFFCURVE",
"706 1675 CURVE SMOOTH",
"683 1675 OFFCURVE",
"672 1656 OFFCURVE",
"672 1624 CURVE SMOOTH",
"672 1581 LINE",
"481 1581 LINE",
"481 1666 OFFCURVE",
"502 1736 OFFCURVE",
"539 1785 CURVE SMOOTH",
"576 1833 OFFCURVE",
"630 1860 OFFCURVE",
"694 1860 CURVE SMOOTH",
"721 1860 OFFCURVE",
"742 1858 OFFCURVE",
"766 1851 CURVE SMOOTH",
"790 1844 OFFCURVE",
"815 1834 OFFCURVE",
"848 1815 CURVE",
"847 1815 LINE",
"901 1787 LINE",
"922 1774 OFFCURVE",
"939 1768 OFFCURVE",
"950 1768 CURVE SMOOTH",
"969 1768 OFFCURVE",
"980 1788 OFFCURVE",
"980 1817 CURVE SMOOTH",
"980 1860 LINE",
"1172 1860 LINE",
"1169 1775 OFFCURVE",
"1148 1705 OFFCURVE",
"1111 1657 CURVE SMOOTH",
"1074 1608 OFFCURVE",
"1021 1581 OFFCURVE",
"958 1581 CURVE SMOOTH",
"931 1581 OFFCURVE",
"909 1584 OFFCURVE",
"888 1589 CURVE",
"867 1595 OFFCURVE",
"839 1607 OFFCURVE",
"804 1625 CURVE"
);
}
);
width = 1532;
}
);
unicode = 00D1;
},
{
glyphname = Ograve;
lastChange = "2012-06-02 17:18:15 +0000";
layers = (
{
layerId = "D5D14868-B3D8-4E08-9530-062F6179E82D";
name = Bold;
paths = (
{
closed = 1;
nodes = (
"732 1287 OFFCURVE",
"628 1234 OFFCURVE",
"553 1146 CURVE",
"481 1050 OFFCURVE",
"439 912 OFFCURVE",
"439 745 CURVE SMOOTH",
"439 613 OFFCURVE",
"475 526 OFFCURVE",
"543 482 CURVE",
"619 437 OFFCURVE",
"724 413 OFFCURVE",
"856 413 CURVE SMOOTH",
"1121 413 OFFCURVE",
"1270 481 OFFCURVE",
"1270 745 CURVE SMOOTH",
"1270 1088 OFFCURVE",
"1109 1287 OFFCURVE",
"856 1287 CURVE SMOOTH"
);
},
{
closed = 1;
nodes = (
"1065 1519 OFFCURVE",
"1234 1448 OFFCURVE",
"1361 1306 CURVE SMOOTH",
"1486 1165 OFFCURVE",
"1549 981 OFFCURVE",
"1549 745 CURVE SMOOTH",
"1549 512 OFFCURVE",
"1486 325 OFFCURVE",
"1361 184 CURVE SMOOTH",
"1233 43 OFFCURVE",
"1065 -28 OFFCURVE",
"856 -28 CURVE SMOOTH",
"645 -28 OFFCURVE",
"476 43 OFFCURVE",
"349 184 CURVE SMOOTH",
"224 325 OFFCURVE",
"161 512 OFFCURVE",
"161 745 CURVE SMOOTH",
"161 981 OFFCURVE",
"224 1165 OFFCURVE",
"349 1306 CURVE SMOOTH",
"476 1448 OFFCURVE",
"645 1519 OFFCURVE",
"856 1519 CURVE SMOOTH"
);
},
{
closed = 1;
nodes = (
"744 1872 LINE",
"982 1551 LINE",
"749 1551 LINE",
"470 1872 LINE"
);
}
);
width = 1612;
}
);
unicode = 00D2;
},
{
glyphname = Oacute;
lastChange = "2012-06-02 17:18:23 +0000";
layers = (
{
layerId = "D5D14868-B3D8-4E08-9530-062F6179E82D";
name = Bold;
paths = (
{
closed = 1;
nodes = (
"732 1287 OFFCURVE",
"628 1234 OFFCURVE",
"553 1146 CURVE",
"481 1050 OFFCURVE",
"439 912 OFFCURVE",
"439 745 CURVE SMOOTH",
"439 613 OFFCURVE",
"475 526 OFFCURVE",
"543 482 CURVE",
"619 437 OFFCURVE",
"724 413 OFFCURVE",
"856 413 CURVE SMOOTH",
"1121 413 OFFCURVE",
"1270 481 OFFCURVE",
"1270 745 CURVE SMOOTH",
"1270 1088 OFFCURVE",
"1109 1287 OFFCURVE",
"856 1287 CURVE SMOOTH"
);
},
{
closed = 1;
nodes = (
"1065 1519 OFFCURVE",
"1234 1448 OFFCURVE",
"1361 1306 CURVE SMOOTH",
"1486 1165 OFFCURVE",
"1549 981 OFFCURVE",
"1549 745 CURVE SMOOTH",
"1549 512 OFFCURVE",
"1486 325 OFFCURVE",
"1361 184 CURVE SMOOTH",
"1233 43 OFFCURVE",
"1065 -28 OFFCURVE",
"856 -28 CURVE SMOOTH",
"645 -28 OFFCURVE",
"476 43 OFFCURVE",
"349 184 CURVE SMOOTH",
"224 325 OFFCURVE",
"161 512 OFFCURVE",
"161 745 CURVE SMOOTH",
"161 981 OFFCURVE",
"224 1165 OFFCURVE",
"349 1306 CURVE SMOOTH",
"476 1448 OFFCURVE",
"645 1519 OFFCURVE",
"856 1519 CURVE SMOOTH"
);
},
{
closed = 1;
nodes = (
"907 1872 LINE",
"1180 1872 LINE",
"903 1551 LINE",
"668 1551 LINE"
);
}
);
width = 1612;
}
);
unicode = 00D3;
},
{
glyphname = Ocircumflex;
lastChange = "2012-06-02 17:18:27 +0000";
layers = (
{
layerId = "D5D14868-B3D8-4E08-9530-062F6179E82D";
name = Bold;
paths = (
{
closed = 1;
nodes = (
"732 1287 OFFCURVE",
"628 1234 OFFCURVE",
"553 1146 CURVE",
"481 1050 OFFCURVE",
"439 912 OFFCURVE",
"439 745 CURVE SMOOTH",
"439 613 OFFCURVE",
"475 526 OFFCURVE",
"543 482 CURVE",
"619 437 OFFCURVE",
"724 413 OFFCURVE",
"856 413 CURVE SMOOTH",
"1121 413 OFFCURVE",
"1270 481 OFFCURVE",
"1270 745 CURVE SMOOTH",
"1270 1088 OFFCURVE",
"1109 1287 OFFCURVE",
"856 1287 CURVE SMOOTH"
);
},
{
closed = 1;
nodes = (
"1065 1519 OFFCURVE",
"1234 1448 OFFCURVE",
"1361 1306 CURVE SMOOTH",
"1486 1165 OFFCURVE",
"1549 981 OFFCURVE",
"1549 745 CURVE SMOOTH",
"1549 512 OFFCURVE",
"1486 325 OFFCURVE",
"1361 184 CURVE SMOOTH",
"1233 43 OFFCURVE",
"1065 -28 OFFCURVE",
"856 -28 CURVE SMOOTH",
"645 -28 OFFCURVE",
"476 43 OFFCURVE",
"349 184 CURVE SMOOTH",
"224 325 OFFCURVE",
"161 512 OFFCURVE",
"161 745 CURVE SMOOTH",
"161 981 OFFCURVE",
"224 1165 OFFCURVE",
"349 1306 CURVE SMOOTH",
"476 1448 OFFCURVE",
"645 1519 OFFCURVE",
"856 1519 CURVE SMOOTH"
);
},
{
closed = 1;
nodes = (
"734 1874 LINE",
"945 1874 LINE",
"1202 1551 LINE",
"979 1551 LINE",
"839 1700 LINE",
"816 1676 OFFCURVE",
"792 1651 OFFCURVE",
"769 1625 CURVE SMOOTH",
"745 1599 OFFCURVE",
"722 1574 OFFCURVE",
"701 1551 CURVE",
"478 1551 LINE"
);
}
);
width = 1612;
}
);
unicode = 00D4;
},
{
glyphname = Otilde;
lastChange = "2012-06-02 17:01:23 +0000";
layers = (
{
layerId = "D5D14868-B3D8-4E08-9530-062F6179E82D";
name = Bold;
paths = (
{
closed = 1;
nodes = (
"732 1287 OFFCURVE",
"628 1234 OFFCURVE",
"553 1146 CURVE",
"481 1050 OFFCURVE",
"439 912 OFFCURVE",
"439 745 CURVE SMOOTH",
"439 613 OFFCURVE",
"475 526 OFFCURVE",
"543 482 CURVE",
"619 437 OFFCURVE",
"724 413 OFFCURVE",
"856 413 CURVE SMOOTH",
"1121 413 OFFCURVE",
"1270 481 OFFCURVE",
"1270 745 CURVE SMOOTH",
"1270 1088 OFFCURVE",
"1109 1287 OFFCURVE",
"856 1287 CURVE SMOOTH"
);
},
{
closed = 1;
nodes = (
"1065 1519 OFFCURVE",
"1234 1448 OFFCURVE",
"1361 1306 CURVE SMOOTH",
"1486 1165 OFFCURVE",
"1549 981 OFFCURVE",
"1549 745 CURVE SMOOTH",
"1549 512 OFFCURVE",
"1486 325 OFFCURVE",
"1361 184 CURVE SMOOTH",
"1233 43 OFFCURVE",
"1065 -28 OFFCURVE",
"856 -28 CURVE SMOOTH",
"645 -28 OFFCURVE",
"476 43 OFFCURVE",
"349 184 CURVE SMOOTH",
"224 325 OFFCURVE",
"161 512 OFFCURVE",
"161 745 CURVE SMOOTH",
"161 981 OFFCURVE",
"224 1165 OFFCURVE",
"349 1306 CURVE SMOOTH",
"476 1448 OFFCURVE",
"645 1519 OFFCURVE",
"856 1519 CURVE SMOOTH"
);
},
{
closed = 1;
nodes = (
"771 1656 LINE SMOOTH",
"748 1669 OFFCURVE",
"733 1675 OFFCURVE",
"727 1675 CURVE SMOOTH",
"704 1675 OFFCURVE",
"693 1656 OFFCURVE",
"693 1624 CURVE SMOOTH",
"693 1581 LINE",
"502 1581 LINE",
"502 1666 OFFCURVE",
"523 1736 OFFCURVE",
"560 1785 CURVE SMOOTH",
"597 1833 OFFCURVE",
"651 1860 OFFCURVE",
"715 1860 CURVE SMOOTH",
"742 1860 OFFCURVE",
"763 1858 OFFCURVE",
"787 1851 CURVE SMOOTH",
"811 1844 OFFCURVE",
"836 1834 OFFCURVE",
"869 1815 CURVE",
"868 1815 LINE",
"922 1787 LINE",
"943 1774 OFFCURVE",
"960 1768 OFFCURVE",
"971 1768 CURVE SMOOTH",
"990 1768 OFFCURVE",
"1001 1788 OFFCURVE",
"1001 1817 CURVE SMOOTH",
"1001 1860 LINE",
"1193 1860 LINE",
"1190 1775 OFFCURVE",
"1169 1705 OFFCURVE",
"1132 1657 CURVE SMOOTH",
"1095 1608 OFFCURVE",
"1042 1581 OFFCURVE",
"979 1581 CURVE SMOOTH",
"952 1581 OFFCURVE",
"930 1584 OFFCURVE",
"909 1589 CURVE",
"888 1595 OFFCURVE",
"860 1607 OFFCURVE",
"825 1625 CURVE"
);
}
);
width = 1612;
}
);
unicode = 00D5;
},
{
glyphname = Odieresis;
lastChange = "2012-06-02 17:01:23 +0000";
layers = (
{
layerId = "D5D14868-B3D8-4E08-9530-062F6179E82D";
name = Bold;
paths = (
{
closed = 1;
nodes = (
"732 1287 OFFCURVE",
"628 1234 OFFCURVE",
"553 1146 CURVE",
"481 1050 OFFCURVE",
"439 912 OFFCURVE",
"439 745 CURVE SMOOTH",
"439 613 OFFCURVE",
"475 526 OFFCURVE",
"543 482 CURVE",
"619 437 OFFCURVE",
"724 413 OFFCURVE",
"856 413 CURVE SMOOTH",
"1121 413 OFFCURVE",
"1270 481 OFFCURVE",
"1270 745 CURVE SMOOTH",
"1270 1088 OFFCURVE",
"1109 1287 OFFCURVE",
"856 1287 CURVE SMOOTH"
);
},
{
closed = 1;
nodes = (
"1065 1519 OFFCURVE",
"1234 1448 OFFCURVE",
"1361 1306 CURVE SMOOTH",
"1486 1165 OFFCURVE",
"1549 981 OFFCURVE",
"1549 745 CURVE SMOOTH",
"1549 512 OFFCURVE",
"1486 325 OFFCURVE",
"1361 184 CURVE SMOOTH",
"1233 43 OFFCURVE",
"1065 -28 OFFCURVE",
"856 -28 CURVE SMOOTH",
"645 -28 OFFCURVE",
"476 43 OFFCURVE",
"349 184 CURVE SMOOTH",
"224 325 OFFCURVE",
"161 512 OFFCURVE",
"161 745 CURVE SMOOTH",
"161 981 OFFCURVE",
"224 1165 OFFCURVE",
"349 1306 CURVE SMOOTH",
"476 1448 OFFCURVE",
"645 1519 OFFCURVE",
"856 1519 CURVE SMOOTH"
);
},
{
closed = 1;
nodes = (
"966 1845 LINE",
"1230 1845 LINE",
"1230 1581 LINE",
"966 1581 LINE"
);
},
{
closed = 1;
nodes = (
"601 1845 LINE",
"866 1845 LINE",
"866 1581 LINE",
"601 1581 LINE"
);
}
);
width = 1612;
}
);
unicode = 00D6;
},
{
glyphname = multiply;
lastChange = "2012-06-02 17:01:23 +0000";
layers = (
{
layerId = "D5D14868-B3D8-4E08-9530-062F6179E82D";
name = Bold;
paths = (
{
closed = 1;
nodes = (
"1258 1017 LINE",
"896 654 LINE",
"1248 302 LINE",
"1039 90 LINE",
"685 444 LINE",
"330 90 LINE",
"122 302 LINE",
"473 654 LINE",
"140 989 LINE",
"349 1202 LINE",
"685 866 LINE",
"1048 1229 LINE"
);
}
);
width = 1414;
}
);
unicode = 00D7;
},
{
glyphname = Oslash;
lastChange = "2012-06-02 17:01:23 +0000";
layers = (
{
anchors = (
{
name = top;
position = "{876, 1493}";
}
);
layerId = "D5D14868-B3D8-4E08-9530-062F6179E82D";
name = Bold;
paths = (
{
closed = 1;
nodes = (
"681 364 LINE",
"702 353 OFFCURVE",
"721 349 OFFCURVE",
"741 346 CURVE",
"778 345 OFFCURVE",
"825 344 OFFCURVE",
"882 344 CURVE",
"1009 363 OFFCURVE",
"1108 402 OFFCURVE",
"1167 459 CURVE",
"1223 519 OFFCURVE",
"1268 644 OFFCURVE",
"1292 807 CURVE",
"1292 870 OFFCURVE",
"1286 920 OFFCURVE",
"1275 955 CURVE SMOOTH",
"1268 978 OFFCURVE",
"1260 1002 OFFCURVE",
"1249 1027 CURVE"
);
},
{
closed = 1;
nodes = (
"1130 1203 LINE",
"1099 1242 OFFCURVE",
"1067 1271 OFFCURVE",
"1028 1286 CURVE",
"981 1307 OFFCURVE",
"921 1318 OFFCURVE",
"846 1325 CURVE",
"725 1324 OFFCURVE",
"619 1271 OFFCURVE",
"546 1184 CURVE",
"474 1088 OFFCURVE",
"432 950 OFFCURVE",
"432 783 CURVE SMOOTH",
"432 719 OFFCURVE",
"446 663 OFFCURVE",
"470 614 CURVE",
"469 615 LINE",
"490 576 OFFCURVE",
"509 543 OFFCURVE",
"536 511 CURVE"
);
},
{
closed = 1;
nodes = (
"321 248 LINE",
"230 381 OFFCURVE",
"183 548 OFFCURVE",
"183 745 CURVE SMOOTH",
"183 1212 OFFCURVE",
"456 1519 OFFCURVE",
"877 1519 CURVE SMOOTH",
"1037 1519 OFFCURVE",
"1175 1474 OFFCURVE",
"1288 1389 CURVE",
"1443 1571 LINE",
"1597 1437 LINE",
"1431 1243 LINE",
"1522 1110 OFFCURVE",
"1570 942 OFFCURVE",
"1570 745 CURVE SMOOTH",
"1570 511 OFFCURVE",
"1507 324 OFFCURVE",
"1382 184 CURVE SMOOTH",
"1255 43 OFFCURVE",
"1089 -28 OFFCURVE",
"877 -28 CURVE SMOOTH",
"718 -28 OFFCURVE",
"582 13 OFFCURVE",
"465 101 CURVE",
"310 -82 LINE",
"155 51 LINE"
);
}
);
width = 1752;
}
);
unicode = 00D8;
},
{
glyphname = Ugrave;
lastChange = "2012-06-02 21:34:33 +0000";
layers = (
{
layerId = "D5D14868-B3D8-4E08-9530-062F6179E82D";
name = Bold;
paths = (
{
closed = 1;
nodes = (
"244 1493 LINE",
"513 1493 LINE",
"523 727 LINE SMOOTH",
"525 585 OFFCURVE",
"548 483 OFFCURVE",
"597 422 CURVE",
"597 423 LINE",
"644 366 OFFCURVE",
"724 337 OFFCURVE",
"835 337 CURVE SMOOTH",
"946 337 OFFCURVE",
"1026 366 OFFCURVE",
"1073 423 CURVE",
"1073 422 LINE",
"1122 483 OFFCURVE",
"1145 585 OFFCURVE",
"1147 727 CURVE SMOOTH",
"1157 1493 LINE",
"1425 1493 LINE",
"1415 570 LINE SMOOTH",
"1411 174 OFFCURVE",
"1219 -28 OFFCURVE",
"835 -28 CURVE SMOOTH",
"452 -28 OFFCURVE",
"258 177 OFFCURVE",
"254 570 CURVE SMOOTH"
);
},
{
closed = 1;
nodes = (
"717 1872 LINE",
"955 1551 LINE",
"722 1551 LINE",
"443 1872 LINE"
);
}
);
width = 1499;
}
);
unicode = 00D9;
},
{
glyphname = Uacute;
lastChange = "2012-06-02 21:40:35 +0000";
layers = (
{
layerId = "D5D14868-B3D8-4E08-9530-062F6179E82D";
name = Bold;
paths = (
{
closed = 1;
nodes = (
"254 1493 LINE",
"523 1493 LINE",
"523 727 LINE SMOOTH",
"523 585 OFFCURVE",
"548 483 OFFCURVE",
"597 422 CURVE",
"597 423 LINE",
"644 366 OFFCURVE",
"724 337 OFFCURVE",
"835 337 CURVE SMOOTH",
"946 337 OFFCURVE",
"1026 366 OFFCURVE",
"1073 423 CURVE",
"1073 422 LINE",
"1122 483 OFFCURVE",
"1147 585 OFFCURVE",
"1147 727 CURVE SMOOTH",
"1147 1493 LINE",
"1415 1493 LINE",
"1415 570 LINE SMOOTH",
"1415 174 OFFCURVE",
"1219 -28 OFFCURVE",
"835 -28 CURVE SMOOTH",
"452 -28 OFFCURVE",
"254 177 OFFCURVE",
"254 570 CURVE SMOOTH"
);
},
{
closed = 1;
nodes = (
"920 1872 LINE",
"1193 1872 LINE",
"916 1551 LINE",
"681 1551 LINE"
);
}
);
width = 1499;
}
);
unicode = 00DA;
},
{
glyphname = Ucircumflex;
lastChange = "2012-06-02 21:40:39 +0000";
layers = (
{
layerId = "D5D14868-B3D8-4E08-9530-062F6179E82D";
name = Bold;
paths = (
{
closed = 1;
nodes = (
"254 1493 LINE",
"523 1493 LINE",
"523 727 LINE SMOOTH",
"523 585 OFFCURVE",
"548 483 OFFCURVE",
"597 422 CURVE",
"597 423 LINE",
"644 366 OFFCURVE",
"724 337 OFFCURVE",
"835 337 CURVE SMOOTH",
"946 337 OFFCURVE",
"1026 366 OFFCURVE",
"1073 423 CURVE",
"1073 422 LINE",
"1122 483 OFFCURVE",
"1147 585 OFFCURVE",
"1147 727 CURVE SMOOTH",
"1147 1493 LINE",
"1415 1493 LINE",
"1415 570 LINE SMOOTH",
"1415 174 OFFCURVE",
"1219 -28 OFFCURVE",
"835 -28 CURVE SMOOTH",
"452 -28 OFFCURVE",
"254 177 OFFCURVE",
"254 570 CURVE SMOOTH"
);
},
{
closed = 1;
nodes = (
"727 1874 LINE",
"938 1874 LINE",
"1195 1551 LINE",
"972 1551 LINE",
"832 1700 LINE",
"809 1676 OFFCURVE",
"785 1651 OFFCURVE",
"762 1625 CURVE SMOOTH",
"738 1599 OFFCURVE",
"715 1574 OFFCURVE",
"694 1551 CURVE",
"471 1551 LINE"
);
}
);
width = 1499;
}
);
unicode = 00DB;
},
{
glyphname = Udieresis;
lastChange = "2012-06-02 17:01:23 +0000";
layers = (
{
layerId = "D5D14868-B3D8-4E08-9530-062F6179E82D";
name = Bold;
paths = (
{
closed = 1;
nodes = (
"254 1493 LINE",
"523 1493 LINE",
"523 727 LINE SMOOTH",
"523 585 OFFCURVE",
"548 483 OFFCURVE",
"597 422 CURVE",
"597 423 LINE",
"644 366 OFFCURVE",
"724 337 OFFCURVE",
"835 337 CURVE SMOOTH",
"946 337 OFFCURVE",
"1026 366 OFFCURVE",
"1073 423 CURVE",
"1073 422 LINE",
"1122 483 OFFCURVE",
"1147 585 OFFCURVE",
"1147 727 CURVE SMOOTH",
"1147 1493 LINE",
"1415 1493 LINE",
"1415 570 LINE SMOOTH",
"1415 174 OFFCURVE",
"1219 -28 OFFCURVE",
"835 -28 CURVE SMOOTH",
"452 -28 OFFCURVE",
"254 177 OFFCURVE",
"254 570 CURVE SMOOTH"
);
},
{
closed = 1;
nodes = (
"909 1845 LINE",
"1173 1845 LINE",
"1173 1581 LINE",
"909 1581 LINE"
);
},
{
closed = 1;
nodes = (
"544 1845 LINE",
"809 1845 LINE",
"809 1581 LINE",
"544 1581 LINE"
);
}
);
width = 1499;
}
);
unicode = 00DC;
},
{
glyphname = Yacute;
lastChange = "2012-06-02 21:40:47 +0000";
layers = (
{
layerId = "D5D14868-B3D8-4E08-9530-062F6179E82D";
name = Bold;
paths = (
{
closed = 1;
nodes = (
"32 1493 LINE",
"323 1493 LINE",
"693 809 LINE",
"1060 1493 LINE",
"1351 1493 LINE",
"854 513 LINE",
"854 0 LINE",
"519 0 LINE",
"519 513 LINE"
);
},
{
closed = 1;
nodes = (
"757 1872 LINE",
"1030 1872 LINE",
"753 1551 LINE",
"518 1551 LINE"
);
}
);
width = 1251;
}
);
unicode = 00DD;
},
{
glyphname = Thorn;
lastChange = "2012-06-02 17:01:23 +0000";
layers = (
{
layerId = "D5D14868-B3D8-4E08-9530-062F6179E82D";
name = Bold;
paths = (
{
closed = 1;
nodes = (
"306 1493 LINE",
"574 1493 LINE",
"574 1242 LINE",
"777 1242 LINE SMOOTH",
"1122 1242 OFFCURVE",
"1297 1087 OFFCURVE",
"1297 782 CURVE SMOOTH",
"1297 477 OFFCURVE",
"1122 321 OFFCURVE",
"777 321 CURVE SMOOTH",
"574 321 LINE",
"574 0 LINE",
"306 0 LINE"
);
},
{
closed = 1;
nodes = (
"574 1009 LINE",
"574 554 LINE",
"777 554 LINE SMOOTH",
"933 554 OFFCURVE",
"1019 637 OFFCURVE",
"1019 782 CURVE SMOOTH",
"1019 927 OFFCURVE",
"933 1009 OFFCURVE",
"777 1009 CURVE SMOOTH"
);
}
);
width = 1297;
}
);
unicode = 00DE;
},
{
glyphname = germandbls;
lastChange = "2012-06-02 17:01:23 +0000";
layers = (
{
layerId = "D5D14868-B3D8-4E08-9530-062F6179E82D";
name = Bold;
paths = (
{
closed = 1;
nodes = (
"271 1100 LINE",
"271 1233 OFFCURVE",
"312 1338 OFFCURVE",
"394 1414 CURVE SMOOTH",
"477 1489 OFFCURVE",
"591 1527 OFFCURVE",
"735 1527 CURVE SMOOTH",
"1020 1527 OFFCURVE",
"1170 1357 OFFCURVE",
"1175 1029 CURVE",
"984 1018 OFFCURVE",
"876 956 OFFCURVE",
"876 860 CURVE SMOOTH",
"876 816 OFFCURVE",
"905 777 OFFCURVE",
"974 733 CURVE",
"973 733 LINE",
"1026 698 LINE SMOOTH",
"1245 559 OFFCURVE",
"1289 482 OFFCURVE",
"1289 342 CURVE SMOOTH",
"1289 102 OFFCURVE",
"1133 -27 OFFCURVE",
"844 -27 CURVE SMOOTH",
"760 -27 OFFCURVE",
"664 -7 OFFCURVE",
"552 29 CURVE",
"552 337 LINE",
"681 289 OFFCURVE",
"776 266 OFFCURVE",
"856 266 CURVE SMOOTH",
"917 266 OFFCURVE",
"962 273 OFFCURVE",
"993 287 CURVE SMOOTH",
"1023 301 OFFCURVE",
"1038 321 OFFCURVE",
"1038 346 CURVE SMOOTH",
"1038 365 OFFCURVE",
"1031 385 OFFCURVE",
"1017 404 CURVE",
"1004 425 OFFCURVE",
"967 454 OFFCURVE",
"906 491 CURVE",
"824 547 LINE",
"789 590 OFFCURVE",
"761 631 OFFCURVE",
"734 671 CURVE SMOOTH",
"703 718 OFFCURVE",
"688 775 OFFCURVE",
"688 840 CURVE SMOOTH",
"688 1013 OFFCURVE",
"765 1134 OFFCURVE",
"978 1175 CURVE",
"901 1336 OFFCURVE",
"859 1347 OFFCURVE",
"731 1347 CURVE SMOOTH",
"591 1347 OFFCURVE",
"525 1287 OFFCURVE",
"502 1092 CURVE",
"510 916 OFFCURVE",
"518 731 OFFCURVE",
"526 546 CURVE SMOOTH",
"534 361 OFFCURVE",
"542 175 OFFCURVE",
"550 0 CURVE",
"213 0 LINE"
);
}
);
width = 1405;
}
);
unicode = 00DF;
},
{
glyphname = agrave;
lastChange = "2012-06-02 21:40:53 +0000";
layers = (
{
layerId = "D5D14868-B3D8-4E08-9530-062F6179E82D";
name = Bold;
paths = (
{
closed = 1;
nodes = (
"669 534 LINE SMOOTH",
"550 534 OFFCURVE",
"473 522 OFFCURVE",
"438 497 CURVE SMOOTH",
"407 476 OFFCURVE",
"391 440 OFFCURVE",
"390 389 CURVE",
"397 356 OFFCURVE",
"414 333 OFFCURVE",
"439 326 CURVE SMOOTH",
"477 315 OFFCURVE",
"526 309 OFFCURVE",
"585 309 CURVE SMOOTH",
"736 309 OFFCURVE",
"786 333 OFFCURVE",
"786 533 CURVE SMOOTH",
"786 534 LINE"
);
},
{
closed = 1;
nodes = (
"1129 0 LINE",
"882 0 LINE",
"882 86 LINE",
"802 13 OFFCURVE",
"698 -27 OFFCURVE",
"559 -27 CURVE SMOOTH",
"440 -27 OFFCURVE",
"349 6 OFFCURVE",
"277 73 CURVE SMOOTH",
"206 142 OFFCURVE",
"171 231 OFFCURVE",
"171 342 CURVE SMOOTH",
"171 602 OFFCURVE",
"339 735 OFFCURVE",
"679 735 CURVE SMOOTH",
"881 735 LINE",
"872 855 OFFCURVE",
"781 931 OFFCURVE",
"621 944 CURVE",
"506 944 OFFCURVE",
"383 906 OFFCURVE",
"248 833 CURVE",
"248 1060 LINE",
"394 1117 OFFCURVE",
"525 1145 OFFCURVE",
"641 1145 CURVE SMOOTH",
"968 1145 OFFCURVE",
"1129 977 OFFCURVE",
"1129 634 CURVE SMOOTH"
);
},
{
closed = 1;
nodes = (
"528 1603 LINE",
"848 1180 LINE",
"496 1180 LINE",
"262 1603 LINE"
);
}
);
width = 1255;
}
);
unicode = 00E0;
},
{
glyphname = aacute;
lastChange = "2012-06-02 21:41:00 +0000";
layers = (
{
layerId = "D5D14868-B3D8-4E08-9530-062F6179E82D";
name = Bold;
paths = (
{
closed = 1;
nodes = (
"669 534 LINE SMOOTH",
"550 534 OFFCURVE",
"473 522 OFFCURVE",
"438 497 CURVE SMOOTH",
"407 476 OFFCURVE",
"391 440 OFFCURVE",
"390 389 CURVE",
"397 356 OFFCURVE",
"414 333 OFFCURVE",
"439 326 CURVE SMOOTH",
"477 315 OFFCURVE",
"526 309 OFFCURVE",
"585 309 CURVE SMOOTH",
"736 309 OFFCURVE",
"786 333 OFFCURVE",
"786 533 CURVE SMOOTH",
"786 534 LINE"
);
},
{
closed = 1;
nodes = (
"1129 0 LINE",
"882 0 LINE",
"882 86 LINE",
"802 13 OFFCURVE",
"698 -27 OFFCURVE",
"559 -27 CURVE SMOOTH",
"440 -27 OFFCURVE",
"349 6 OFFCURVE",
"277 73 CURVE SMOOTH",
"206 142 OFFCURVE",
"171 231 OFFCURVE",
"171 342 CURVE SMOOTH",
"171 602 OFFCURVE",
"339 735 OFFCURVE",
"679 735 CURVE SMOOTH",
"881 735 LINE",
"872 855 OFFCURVE",
"781 931 OFFCURVE",
"621 944 CURVE",
"506 944 OFFCURVE",
"383 906 OFFCURVE",
"248 833 CURVE",
"248 1060 LINE",
"394 1117 OFFCURVE",
"525 1145 OFFCURVE",
"641 1145 CURVE SMOOTH",
"968 1145 OFFCURVE",
"1129 977 OFFCURVE",
"1129 634 CURVE SMOOTH"
);
},
{
closed = 1;
nodes = (
"838 1673 LINE",
"1144 1673 LINE",
"741 1209 LINE",
"491 1209 LINE"
);
}
);
width = 1255;
}
);
unicode = 00E1;
},
{
glyphname = acircumflex;
lastChange = "2012-06-02 21:41:09 +0000";
layers = (
{
layerId = "D5D14868-B3D8-4E08-9530-062F6179E82D";
name = Bold;
paths = (
{
closed = 1;
nodes = (
"669 534 LINE SMOOTH",
"550 534 OFFCURVE",
"473 522 OFFCURVE",
"438 497 CURVE SMOOTH",
"407 476 OFFCURVE",
"391 440 OFFCURVE",
"390 389 CURVE",
"397 356 OFFCURVE",
"414 333 OFFCURVE",
"439 326 CURVE SMOOTH",
"477 315 OFFCURVE",
"526 309 OFFCURVE",
"585 309 CURVE SMOOTH",
"736 309 OFFCURVE",
"786 333 OFFCURVE",
"786 533 CURVE SMOOTH",
"786 534 LINE"
);
},
{
closed = 1;
nodes = (
"1129 0 LINE",
"882 0 LINE",
"882 86 LINE",
"802 13 OFFCURVE",
"698 -27 OFFCURVE",
"559 -27 CURVE SMOOTH",
"440 -27 OFFCURVE",
"349 6 OFFCURVE",
"277 73 CURVE SMOOTH",
"206 142 OFFCURVE",
"171 231 OFFCURVE",
"171 342 CURVE SMOOTH",
"171 602 OFFCURVE",
"339 735 OFFCURVE",
"679 735 CURVE SMOOTH",
"881 735 LINE",
"872 855 OFFCURVE",
"781 931 OFFCURVE",
"621 944 CURVE",
"506 944 OFFCURVE",
"383 906 OFFCURVE",
"248 833 CURVE",
"248 1060 LINE",
"394 1117 OFFCURVE",
"525 1145 OFFCURVE",
"641 1145 CURVE SMOOTH",
"968 1145 OFFCURVE",
"1129 977 OFFCURVE",
"1129 634 CURVE SMOOTH"
);
},
{
closed = 1;
nodes = (
"541 1603 LINE",
"721 1603 LINE",
"998 1178 LINE",
"780 1178 LINE",
"631 1381 LINE",
"606 1347 OFFCURVE",
"580 1313 OFFCURVE",
"555 1278 CURVE SMOOTH",
"530 1243 OFFCURVE",
"505 1209 OFFCURVE",
"482 1178 CURVE",
"264 1178 LINE"
);
}
);
width = 1255;
}
);
unicode = 00E2;
},
{
glyphname = atilde;
lastChange = "2012-06-02 17:01:23 +0000";
layers = (
{
layerId = "D5D14868-B3D8-4E08-9530-062F6179E82D";
name = Bold;
paths = (
{
closed = 1;
nodes = (
"669 534 LINE SMOOTH",
"550 534 OFFCURVE",
"473 522 OFFCURVE",
"438 497 CURVE SMOOTH",
"407 476 OFFCURVE",
"391 440 OFFCURVE",
"390 389 CURVE",
"397 356 OFFCURVE",
"414 333 OFFCURVE",
"439 326 CURVE SMOOTH",
"477 315 OFFCURVE",
"526 309 OFFCURVE",
"585 309 CURVE SMOOTH",
"736 309 OFFCURVE",
"786 333 OFFCURVE",
"786 533 CURVE SMOOTH",
"786 534 LINE"
);
},
{
closed = 1;
nodes = (
"1129 0 LINE",
"882 0 LINE",
"882 86 LINE",
"802 13 OFFCURVE",
"698 -27 OFFCURVE",
"559 -27 CURVE SMOOTH",
"440 -27 OFFCURVE",
"349 6 OFFCURVE",
"277 73 CURVE SMOOTH",
"206 142 OFFCURVE",
"171 231 OFFCURVE",
"171 342 CURVE SMOOTH",
"171 602 OFFCURVE",
"339 735 OFFCURVE",
"679 735 CURVE SMOOTH",
"881 735 LINE",
"872 855 OFFCURVE",
"781 931 OFFCURVE",
"621 944 CURVE",
"506 944 OFFCURVE",
"383 906 OFFCURVE",
"248 833 CURVE",
"248 1060 LINE",
"394 1117 OFFCURVE",
"525 1145 OFFCURVE",
"641 1145 CURVE SMOOTH",
"968 1145 OFFCURVE",
"1129 977 OFFCURVE",
"1129 634 CURVE SMOOTH"
);
},
{
closed = 1;
nodes = (
"551 1340 LINE",
"552 1340 LINE",
"533 1357 OFFCURVE",
"520 1366 OFFCURVE",
"514 1366 CURVE SMOOTH",
"503 1366 OFFCURVE",
"494 1355 OFFCURVE",
"489 1332 CURVE SMOOTH",
"484 1309 OFFCURVE",
"480 1273 OFFCURVE",
"479 1222 CURVE",
"288 1222 LINE",
"291 1438 OFFCURVE",
"371 1560 OFFCURVE",
"508 1560 CURVE SMOOTH",
"567 1560 OFFCURVE",
"608 1541 OFFCURVE",
"663 1492 CURVE SMOOTH",
"717 1441 LINE",
"716 1441 LINE",
"735 1424 OFFCURVE",
"748 1415 OFFCURVE",
"754 1415 CURVE SMOOTH",
"765 1415 OFFCURVE",
"774 1426 OFFCURVE",
"779 1449 CURVE SMOOTH",
"784 1472 OFFCURVE",
"788 1509 OFFCURVE",
"789 1560 CURVE",
"980 1560 LINE",
"976 1343 OFFCURVE",
"897 1222 OFFCURVE",
"760 1222 CURVE SMOOTH",
"700 1222 OFFCURVE",
"657 1240 OFFCURVE",
"604 1288 CURVE"
);
}
);
width = 1255;
}
);
unicode = 00E3;
},
{
glyphname = adieresis;
lastChange = "2012-06-02 17:01:23 +0000";
layers = (
{
layerId = "D5D14868-B3D8-4E08-9530-062F6179E82D";
name = Bold;
paths = (
{
closed = 1;
nodes = (
"669 534 LINE SMOOTH",
"550 534 OFFCURVE",
"473 522 OFFCURVE",
"438 497 CURVE SMOOTH",
"407 476 OFFCURVE",
"391 440 OFFCURVE",
"390 389 CURVE",
"397 356 OFFCURVE",
"414 333 OFFCURVE",
"439 326 CURVE SMOOTH",
"477 315 OFFCURVE",
"526 309 OFFCURVE",
"585 309 CURVE SMOOTH",
"736 309 OFFCURVE",
"786 333 OFFCURVE",
"786 533 CURVE SMOOTH",
"786 534 LINE"
);
},
{
closed = 1;
nodes = (
"1129 0 LINE",
"882 0 LINE",
"882 86 LINE",
"802 13 OFFCURVE",
"698 -27 OFFCURVE",
"559 -27 CURVE SMOOTH",
"440 -27 OFFCURVE",
"349 6 OFFCURVE",
"277 73 CURVE SMOOTH",
"206 142 OFFCURVE",
"171 231 OFFCURVE",
"171 342 CURVE SMOOTH",
"171 602 OFFCURVE",
"339 735 OFFCURVE",
"679 735 CURVE SMOOTH",
"881 735 LINE",
"872 855 OFFCURVE",
"781 931 OFFCURVE",
"621 944 CURVE",
"506 944 OFFCURVE",
"383 906 OFFCURVE",
"248 833 CURVE",
"248 1060 LINE",
"394 1117 OFFCURVE",
"525 1145 OFFCURVE",
"641 1145 CURVE SMOOTH",
"968 1145 OFFCURVE",
"1129 977 OFFCURVE",
"1129 634 CURVE SMOOTH"
);
},
{
closed = 1;
nodes = (
"779 1537 LINE",
"1057 1537 LINE",
"1057 1260 LINE",
"779 1260 LINE"
);
},
{
closed = 1;
nodes = (
"388 1537 LINE",
"666 1537 LINE",
"666 1260 LINE",
"388 1260 LINE"
);
}
);
width = 1255;
}
);
unicode = 00E4;
},
{
glyphname = aring;
lastChange = "2012-06-02 21:41:28 +0000";
layers = (
{
layerId = "D5D14868-B3D8-4E08-9530-062F6179E82D";
name = Bold;
paths = (
{
closed = 1;
nodes = (
"669 534 LINE SMOOTH",
"550 534 OFFCURVE",
"473 522 OFFCURVE",
"438 497 CURVE SMOOTH",
"407 476 OFFCURVE",
"391 440 OFFCURVE",
"390 389 CURVE",
"397 356 OFFCURVE",
"414 333 OFFCURVE",
"439 326 CURVE SMOOTH",
"477 315 OFFCURVE",
"526 309 OFFCURVE",
"585 309 CURVE SMOOTH",
"736 309 OFFCURVE",
"786 333 OFFCURVE",
"786 533 CURVE SMOOTH",
"786 534 LINE"
);
},
{
closed = 1;
nodes = (
"1129 0 LINE",
"882 0 LINE",
"882 86 LINE",
"802 13 OFFCURVE",
"698 -27 OFFCURVE",
"559 -27 CURVE SMOOTH",
"440 -27 OFFCURVE",
"349 6 OFFCURVE",
"277 73 CURVE SMOOTH",
"206 142 OFFCURVE",
"171 231 OFFCURVE",
"171 342 CURVE SMOOTH",
"171 602 OFFCURVE",
"339 735 OFFCURVE",
"679 735 CURVE SMOOTH",
"881 735 LINE",
"872 855 OFFCURVE",
"781 931 OFFCURVE",
"621 944 CURVE",
"506 944 OFFCURVE",
"383 906 OFFCURVE",
"248 833 CURVE",
"248 1060 LINE",
"394 1117 OFFCURVE",
"525 1145 OFFCURVE",
"641 1145 CURVE SMOOTH",
"968 1145 OFFCURVE",
"1129 977 OFFCURVE",
"1129 634 CURVE SMOOTH"
);
},
{
closed = 1;
nodes = (
"726 1519 OFFCURVE",
"682 1563 OFFCURVE",
"622 1563 CURVE SMOOTH",
"561 1563 OFFCURVE",
"517 1519 OFFCURVE",
"517 1460 CURVE SMOOTH",
"517 1430 OFFCURVE",
"527 1405 OFFCURVE",
"546 1384 CURVE",
"567 1365 OFFCURVE",
"592 1355 OFFCURVE",
"622 1355 CURVE SMOOTH",
"682 1355 OFFCURVE",
"726 1401 OFFCURVE",
"726 1460 CURVE SMOOTH"
);
},
{
closed = 1;
nodes = (
"925 1297 OFFCURVE",
"793 1166 OFFCURVE",
"632 1166 CURVE SMOOTH",
"469 1166 OFFCURVE",
"339 1296 OFFCURVE",
"339 1460 CURVE SMOOTH",
"339 1623 OFFCURVE",
"469 1753 OFFCURVE",
"632 1753 CURVE SMOOTH",
"793 1753 OFFCURVE",
"925 1621 OFFCURVE",
"925 1460 CURVE SMOOTH"
);
}
);
width = 1255;
}
);
unicode = 00E5;
},
{
glyphname = ae;
lastChange = "2012-06-02 17:01:23 +0000";
layers = (
{
anchors = (
{
name = top;
position = "{1095, 1120}";
}
);
layerId = "D5D14868-B3D8-4E08-9530-062F6179E82D";
name = Bold;
paths = (
{
closed = 1;
nodes = (
"1716 747 LINE",
"1700 839 OFFCURVE",
"1618 975 OFFCURVE",
"1474 975 CURVE SMOOTH",
"1389 975 OFFCURVE",
"1322 946 OFFCURVE",
"1272 889 CURVE SMOOTH",
"1231 845 OFFCURVE",
"1203 795 OFFCURVE",
"1190 746 CURVE"
);
},
{
closed = 1;
nodes = (
"869 1145 OFFCURVE",
"1004 1091 OFFCURVE",
"1084 995 CURVE",
"1183 1094 OFFCURVE",
"1312 1145 OFFCURVE",
"1472 1145 CURVE SMOOTH",
"1775 1145 OFFCURVE",
"1966 915 OFFCURVE",
"1966 659 CURVE SMOOTH",
"1966 538 LINE",
"1183 538 LINE",
"1210 425 OFFCURVE",
"1303 303 OFFCURVE",
"1512 303 CURVE SMOOTH",
"1637 303 OFFCURVE",
"1771 343 OFFCURVE",
"1926 427 CURVE",
"1926 93 LINE",
"1895 80 OFFCURVE",
"1858 65 OFFCURVE",
"1820 50 CURVE SMOOTH",
"1782 35 OFFCURVE",
"1744 21 OFFCURVE",
"1712 9 CURVE SMOOTH",
"1643 -15 OFFCURVE",
"1573 -27 OFFCURVE",
"1503 -27 CURVE SMOOTH",
"1294 -27 OFFCURVE",
"1149 28 OFFCURVE",
"1044 168 CURVE",
"948 40 OFFCURVE",
"812 -27 OFFCURVE",
"640 -27 CURVE SMOOTH",
"383 -27 OFFCURVE",
"230 110 OFFCURVE",
"230 342 CURVE SMOOTH",
"230 677 OFFCURVE",
"409 791 OFFCURVE",
"738 791 CURVE SMOOTH",
"939 791 LINE",
"931 820 OFFCURVE",
"909 852 OFFCURVE",
"873 889 CURVE",
"829 938 OFFCURVE",
"765 962 OFFCURVE",
"682 962 CURVE SMOOTH",
"567 962 OFFCURVE",
"442 926 OFFCURVE",
"307 851 CURVE",
"307 1060 LINE",
"453 1117 OFFCURVE",
"584 1145 OFFCURVE",
"700 1145 CURVE SMOOTH"
);
},
{
closed = 1;
nodes = (
"942 581 LINE",
"942 588 LINE",
"942 619 LINE",
"979 581 LINE"
);
},
{
closed = 1;
nodes = (
"916 401 OFFCURVE",
"941 476 OFFCURVE",
"942 581 CURVE",
"808 581 LINE SMOOTH",
"675 581 OFFCURVE",
"585 570 OFFCURVE",
"536 547 CURVE SMOOTH",
"497 528 OFFCURVE",
"477 481 OFFCURVE",
"477 406 CURVE SMOOTH",
"477 330 OFFCURVE",
"548 285 OFFCURVE",
"663 285 CURVE SMOOTH",
"750 285 OFFCURVE",
"818 308 OFFCURVE",
"867 355 CURVE SMOOTH"
);
}
);
width = 2190;
}
);
unicode = 00E6;
},
{
glyphname = ccedilla;
lastChange = "2012-06-02 21:41:34 +0000";
layers = (
{
layerId = "D5D14868-B3D8-4E08-9530-062F6179E82D";
name = Bold;
paths = (
{
closed = 1;
nodes = (
"1037 829 LINE",
"910 899 OFFCURVE",
"799 934 OFFCURVE",
"706 934 CURVE SMOOTH",
"506 934 OFFCURVE",
"403 795 OFFCURVE",
"400 563 CURVE",
"409 487 OFFCURVE",
"435 429 OFFCURVE",
"475 400 CURVE",
"520 371 OFFCURVE",
"607 351 OFFCURVE",
"700 343 CURVE",
"847 343 LINE SMOOTH",
"890 344 OFFCURVE",
"951 364 OFFCURVE",
"1032 411 CURVE",
"1037 54 LINE",
"920 -1 OFFCURVE",
"808 -27 OFFCURVE",
"687 -27 CURVE SMOOTH",
"352 -27 OFFCURVE",
"135 206 OFFCURVE",
"135 559 CURVE SMOOTH",
"135 920 OFFCURVE",
"350 1145 OFFCURVE",
"698 1145 CURVE SMOOTH",
"809 1145 OFFCURVE",
"921 1119 OFFCURVE",
"1037 1066 CURVE"
);
},
{
closed = 1;
nodes = (
"781 75 LINE",
"864 -20 OFFCURVE",
"903 -92 OFFCURVE",
"903 -163 CURVE SMOOTH",
"903 -300 OFFCURVE",
"815 -369 OFFCURVE",
"643 -369 CURVE SMOOTH",
"582 -369 OFFCURVE",
"517 -358 OFFCURVE",
"442 -338 CURVE",
"442 -125 LINE",
"518 -164 OFFCURVE",
"572 -179 OFFCURVE",
"624 -179 CURVE SMOOTH",
"673 -179 OFFCURVE",
"698 -162 OFFCURVE",
"698 -129 CURVE SMOOTH",
"698 -114 OFFCURVE",
"688 -89 OFFCURVE",
"669 -56 CURVE SMOOTH",
"649 -23 OFFCURVE",
"619 20 OFFCURVE",
"579 75 CURVE"
);
}
);
width = 1126;
}
);
unicode = 00E7;
},
{
glyphname = egrave;
lastChange = "2012-06-02 21:41:40 +0000";
layers = (
{
layerId = "D5D14868-B3D8-4E08-9530-062F6179E82D";
name = Bold;
paths = (
{
closed = 1;
nodes = (
"1180 566 LINE",
"401 566 LINE",
"409 466 OFFCURVE",
"440 398 OFFCURVE",
"483 366 CURVE",
"540 331 OFFCURVE",
"633 310 OFFCURVE",
"734 302 CURVE",
"801 302 OFFCURVE",
"858 304 OFFCURVE",
"921 309 CURVE SMOOTH",
"980 314 OFFCURVE",
"1054 341 OFFCURVE",
"1145 389 CURVE",
"1150 65 LINE",
"1006 5 OFFCURVE",
"865 -27 OFFCURVE",
"724 -27 CURVE SMOOTH",
"549 -21 OFFCURVE",
"409 32 OFFCURVE",
"303 133 CURVE SMOOTH",
"198 235 OFFCURVE",
"146 374 OFFCURVE",
"146 551 CURVE SMOOTH",
"158 911 OFFCURVE",
"358 1145 OFFCURVE",
"697 1145 CURVE",
"847 1139 OFFCURVE",
"962 1098 OFFCURVE",
"1042 1022 CURVE",
"1041 1022 LINE",
"1121 946 OFFCURVE",
"1167 829 OFFCURVE",
"1180 671 CURVE"
);
},
{
closed = 1;
nodes = (
"946 791 LINE",
"931 826 OFFCURVE",
"904 867 OFFCURVE",
"873 904 CURVE SMOOTH",
"829 955 OFFCURVE",
"770 980 OFFCURVE",
"697 980 CURVE SMOOTH",
"611 980 OFFCURVE",
"543 955 OFFCURVE",
"493 904 CURVE",
"493 905 LINE",
"454 866 OFFCURVE",
"431 828 OFFCURVE",
"422 790 CURVE"
);
},
{
closed = 1;
nodes = (
"555 1603 LINE",
"875 1180 LINE",
"523 1180 LINE",
"289 1603 LINE"
);
}
);
width = 1260;
}
);
unicode = 00E8;
},
{
glyphname = eacute;
lastChange = "2012-06-02 21:41:43 +0000";
layers = (
{
layerId = "D5D14868-B3D8-4E08-9530-062F6179E82D";
name = Bold;
paths = (
{
closed = 1;
nodes = (
"1180 566 LINE",
"401 566 LINE",
"409 466 OFFCURVE",
"440 398 OFFCURVE",
"483 366 CURVE",
"540 331 OFFCURVE",
"633 310 OFFCURVE",
"734 302 CURVE",
"801 302 OFFCURVE",
"858 304 OFFCURVE",
"921 309 CURVE SMOOTH",
"980 314 OFFCURVE",
"1054 341 OFFCURVE",
"1145 389 CURVE",
"1150 65 LINE",
"1006 5 OFFCURVE",
"865 -27 OFFCURVE",
"724 -27 CURVE SMOOTH",
"549 -21 OFFCURVE",
"409 32 OFFCURVE",
"303 133 CURVE SMOOTH",
"198 235 OFFCURVE",
"146 374 OFFCURVE",
"146 551 CURVE SMOOTH",
"158 911 OFFCURVE",
"358 1145 OFFCURVE",
"697 1145 CURVE",
"847 1139 OFFCURVE",
"962 1098 OFFCURVE",
"1042 1022 CURVE",
"1041 1022 LINE",
"1121 946 OFFCURVE",
"1167 829 OFFCURVE",
"1180 671 CURVE"
);
},
{
closed = 1;
nodes = (
"946 791 LINE",
"931 826 OFFCURVE",
"904 867 OFFCURVE",
"873 904 CURVE SMOOTH",
"829 955 OFFCURVE",
"770 980 OFFCURVE",
"697 980 CURVE SMOOTH",
"611 980 OFFCURVE",
"543 955 OFFCURVE",
"493 904 CURVE",
"493 905 LINE",
"454 866 OFFCURVE",
"431 828 OFFCURVE",
"422 790 CURVE"
);
},
{
closed = 1;
nodes = (
"795 1603 LINE",
"1101 1603 LINE",
"698 1139 LINE",
"448 1139 LINE"
);
}
);
width = 1260;
}
);
unicode = 00E9;
},
{
glyphname = ecircumflex;
lastChange = "2012-06-02 21:41:50 +0000";
layers = (
{
layerId = "D5D14868-B3D8-4E08-9530-062F6179E82D";
name = Bold;
paths = (
{
closed = 1;
nodes = (
"1180 566 LINE",
"401 566 LINE",
"409 466 OFFCURVE",
"440 398 OFFCURVE",
"483 366 CURVE",
"540 331 OFFCURVE",
"633 310 OFFCURVE",
"734 302 CURVE",
"801 302 OFFCURVE",
"858 304 OFFCURVE",
"921 309 CURVE SMOOTH",
"980 314 OFFCURVE",
"1054 341 OFFCURVE",
"1145 389 CURVE",
"1150 65 LINE",
"1006 5 OFFCURVE",
"865 -27 OFFCURVE",
"724 -27 CURVE SMOOTH",
"549 -21 OFFCURVE",
"409 32 OFFCURVE",
"303 133 CURVE SMOOTH",
"198 235 OFFCURVE",
"146 374 OFFCURVE",
"146 551 CURVE SMOOTH",
"158 911 OFFCURVE",
"358 1145 OFFCURVE",
"697 1145 CURVE",
"847 1139 OFFCURVE",
"962 1098 OFFCURVE",
"1042 1022 CURVE",
"1041 1022 LINE",
"1121 946 OFFCURVE",
"1167 829 OFFCURVE",
"1180 671 CURVE"
);
},
{
closed = 1;
nodes = (
"946 791 LINE",
"931 826 OFFCURVE",
"904 867 OFFCURVE",
"873 904 CURVE SMOOTH",
"829 955 OFFCURVE",
"770 980 OFFCURVE",
"697 980 CURVE SMOOTH",
"611 980 OFFCURVE",
"543 955 OFFCURVE",
"493 904 CURVE",
"493 905 LINE",
"454 866 OFFCURVE",
"431 828 OFFCURVE",
"422 790 CURVE"
);
},
{
closed = 1;
nodes = (
"568 1603 LINE",
"748 1603 LINE",
"1025 1178 LINE",
"807 1178 LINE",
"658 1381 LINE",
"633 1347 OFFCURVE",
"607 1313 OFFCURVE",
"582 1278 CURVE SMOOTH",
"557 1243 OFFCURVE",
"532 1209 OFFCURVE",
"509 1178 CURVE",
"291 1178 LINE"
);
}
);
width = 1260;
}
);
unicode = 00EA;
},
{
glyphname = edieresis;
lastChange = "2012-06-02 21:41:59 +0000";
layers = (
{
layerId = "D5D14868-B3D8-4E08-9530-062F6179E82D";
name = Bold;
paths = (
{
closed = 1;
nodes = (
"1180 566 LINE",
"401 566 LINE",
"409 466 OFFCURVE",
"440 398 OFFCURVE",
"483 366 CURVE",
"540 331 OFFCURVE",
"633 310 OFFCURVE",
"734 302 CURVE",
"801 302 OFFCURVE",
"858 304 OFFCURVE",
"921 309 CURVE SMOOTH",
"980 314 OFFCURVE",
"1054 341 OFFCURVE",
"1145 389 CURVE",
"1150 65 LINE",
"1006 5 OFFCURVE",
"865 -27 OFFCURVE",
"724 -27 CURVE SMOOTH",
"549 -21 OFFCURVE",
"409 32 OFFCURVE",
"303 133 CURVE SMOOTH",
"198 235 OFFCURVE",
"146 374 OFFCURVE",
"146 551 CURVE SMOOTH",
"158 911 OFFCURVE",
"358 1145 OFFCURVE",
"697 1145 CURVE",
"847 1139 OFFCURVE",
"962 1098 OFFCURVE",
"1042 1022 CURVE",
"1041 1022 LINE",
"1121 946 OFFCURVE",
"1167 829 OFFCURVE",
"1180 671 CURVE"
);
},
{
closed = 1;
nodes = (
"946 791 LINE",
"931 826 OFFCURVE",
"904 867 OFFCURVE",
"873 904 CURVE SMOOTH",
"829 955 OFFCURVE",
"770 980 OFFCURVE",
"697 980 CURVE SMOOTH",
"611 980 OFFCURVE",
"543 955 OFFCURVE",
"493 904 CURVE",
"493 905 LINE",
"454 866 OFFCURVE",
"431 828 OFFCURVE",
"422 790 CURVE"
);
},
{
closed = 1;
nodes = (
"776 1537 LINE",
"1054 1537 LINE",
"1054 1260 LINE",
"776 1260 LINE"
);
},
{
closed = 1;
nodes = (
"385 1537 LINE",
"663 1537 LINE",
"663 1260 LINE",
"385 1260 LINE"
);
}
);
width = 1260;
}
);
unicode = 00EB;
},
{
glyphname = igrave;
lastChange = "2012-06-02 21:42:06 +0000";
layers = (
{
layerId = "D5D14868-B3D8-4E08-9530-062F6179E82D";
name = Bold;
paths = (
{
closed = 1;
nodes = (
"306 1120 LINE",
"553 1120 LINE",
"553 0 LINE",
"306 0 LINE"
);
},
{
closed = 1;
nodes = (
"280 1603 LINE",
"600 1180 LINE",
"248 1180 LINE",
"14 1603 LINE"
);
}
);
width = 569;
}
);
unicode = 00EC;
},
{
glyphname = iacute;
lastChange = "2012-06-02 21:42:12 +0000";
layers = (
{
layerId = "D5D14868-B3D8-4E08-9530-062F6179E82D";
name = Bold;
paths = (
{
closed = 1;
nodes = (
"306 1120 LINE",
"553 1120 LINE",
"553 0 LINE",
"306 0 LINE"
);
},
{
closed = 1;
nodes = (
"630 1603 LINE",
"936 1603 LINE",
"533 1139 LINE",
"283 1139 LINE"
);
}
);
width = 569;
}
);
unicode = 00ED;
},
{
glyphname = icircumflex;
lastChange = "2012-06-02 21:42:18 +0000";
layers = (
{
layerId = "D5D14868-B3D8-4E08-9530-062F6179E82D";
name = Bold;
paths = (
{
closed = 1;
nodes = (
"306 1120 LINE",
"553 1120 LINE",
"553 0 LINE",
"306 0 LINE"
);
},
{
closed = 1;
nodes = (
"303 1603 LINE",
"483 1603 LINE",
"760 1178 LINE",
"542 1178 LINE",
"393 1381 LINE",
"368 1347 OFFCURVE",
"342 1313 OFFCURVE",
"317 1278 CURVE SMOOTH",
"292 1243 OFFCURVE",
"267 1209 OFFCURVE",
"244 1178 CURVE",
"26 1178 LINE"
);
}
);
width = 569;
}
);
unicode = 00EE;
},
{
glyphname = idieresis;
lastChange = "2012-06-02 17:01:23 +0000";
layers = (
{
layerId = "D5D14868-B3D8-4E08-9530-062F6179E82D";
name = Bold;
paths = (
{
closed = 1;
nodes = (
"349 1120 LINE",
"596 1120 LINE",
"596 0 LINE",
"349 0 LINE"
);
},
{
closed = 1;
nodes = (
"514 1537 LINE",
"792 1537 LINE",
"792 1260 LINE",
"514 1260 LINE"
);
},
{
closed = 1;
nodes = (
"123 1537 LINE",
"401 1537 LINE",
"401 1260 LINE",
"123 1260 LINE"
);
}
);
width = 569;
}
);
unicode = 00EF;
},
{
glyphname = eth;
lastChange = "2012-06-02 17:01:23 +0000";
layers = (
{
layerId = "D5D14868-B3D8-4E08-9530-062F6179E82D";
name = Bold;
paths = (
{
closed = 1;
nodes = (
"835 856 LINE",
"825 859 LINE",
"824 860 OFFCURVE",
"823 862 OFFCURVE",
"822 864 CURVE",
"821 865 OFFCURVE",
"819 867 OFFCURVE",
"818 868 CURVE"
);
},
{
closed = 1;
nodes = (
"910 676 OFFCURVE",
"882 782 OFFCURVE",
"825 859 CURVE",
"769 876 OFFCURVE",
"724 885 OFFCURVE",
"680 885 CURVE SMOOTH",
"587 885 OFFCURVE",
"516 856 OFFCURVE",
"465 797 CURVE",
"466 797 LINE",
"415 736 OFFCURVE",
"389 650 OFFCURVE",
"389 539 CURVE SMOOTH",
"389 320 OFFCURVE",
"491 193 OFFCURVE",
"650 193 CURVE SMOOTH",
"806 193 OFFCURVE",
"910 322 OFFCURVE",
"910 539 CURVE SMOOTH"
);
},
{
closed = 1;
nodes = (
"934 1127 LINE SMOOTH",
"1013 1035 OFFCURVE",
"1075 940 OFFCURVE",
"1111 848 CURVE SMOOTH",
"1148 753 OFFCURVE",
"1167 650 OFFCURVE",
"1167 539 CURVE SMOOTH",
"1167 200 OFFCURVE",
"957 -27 OFFCURVE",
"650 -27 CURVE SMOOTH",
"341 -27 OFFCURVE",
"133 199 OFFCURVE",
"133 539 CURVE SMOOTH",
"133 868 OFFCURVE",
"335 1099 OFFCURVE",
"634 1099 CURVE SMOOTH",
"637 1099 OFFCURVE",
"639 1099 OFFCURVE",
"639 1100 CURVE",
"639 1100 OFFCURVE",
"638 1100 OFFCURVE",
"637 1100 CURVE",
"638 1100 OFFCURVE",
"640 1100 OFFCURVE",
"642 1100 CURVE",
"644 1099 OFFCURVE",
"646 1099 OFFCURVE",
"648 1099 CURVE",
"579 1178 LINE",
"531 1162 OFFCURVE",
"477 1144 OFFCURVE",
"423 1125 CURVE SMOOTH",
"369 1106 OFFCURVE",
"314 1088 OFFCURVE",
"269 1073 CURVE",
"214 1237 LINE",
"459 1318 LINE",
"444 1335 OFFCURVE",
"429 1353 OFFCURVE",
"412 1372 CURVE SMOOTH",
"395 1391 OFFCURVE",
"378 1410 OFFCURVE",
"361 1429 CURVE SMOOTH",
"344 1448 OFFCURVE",
"328 1466 OFFCURVE",
"313 1483 CURVE SMOOTH",
"298 1500 OFFCURVE",
"284 1514 OFFCURVE",
"273 1527 CURVE",
"585 1527 LINE",
"699 1397 LINE",
"1021 1505 LINE",
"1076 1344 LINE",
"818 1258 LINE"
);
}
);
width = 1314;
}
);
unicode = 00F0;
},
{
glyphname = ntilde;
lastChange = "2012-06-02 17:01:23 +0000";
layers = (
{
layerId = "D5D14868-B3D8-4E08-9530-062F6179E82D";
name = Bold;
paths = (
{
closed = 1;
nodes = (
"1324 0 LINE",
"999 0 LINE",
"1038 674 LINE",
"1038 846 OFFCURVE",
"990 931 OFFCURVE",
"863 931 CURVE SMOOTH",
"675 931 OFFCURVE",
"591 823 OFFCURVE",
"591 639 CURVE",
"621 0 LINE",
"306 0 LINE",
"336 1129 LINE",
"582 1129 LINE",
"582 1040 LINE",
"610 1059 OFFCURVE",
"639 1075 OFFCURVE",
"671 1094 CURVE",
"732 1127 OFFCURVE",
"802 1145 OFFCURVE",
"882 1145 CURVE SMOOTH",
"1143 1145 OFFCURVE",
"1278 974 OFFCURVE",
"1294 670 CURVE SMOOTH"
);
},
{
closed = 1;
nodes = (
"651 1340 LINE",
"652 1340 LINE",
"633 1357 OFFCURVE",
"620 1366 OFFCURVE",
"614 1366 CURVE SMOOTH",
"603 1366 OFFCURVE",
"594 1355 OFFCURVE",
"589 1332 CURVE SMOOTH",
"584 1309 OFFCURVE",
"580 1273 OFFCURVE",
"579 1222 CURVE",
"388 1222 LINE",
"391 1438 OFFCURVE",
"471 1560 OFFCURVE",
"608 1560 CURVE SMOOTH",
"667 1560 OFFCURVE",
"708 1541 OFFCURVE",
"763 1492 CURVE SMOOTH",
"817 1441 LINE",
"816 1441 LINE",
"835 1424 OFFCURVE",
"848 1415 OFFCURVE",
"854 1415 CURVE SMOOTH",
"865 1415 OFFCURVE",
"874 1426 OFFCURVE",
"879 1449 CURVE SMOOTH",
"884 1472 OFFCURVE",
"888 1509 OFFCURVE",
"889 1560 CURVE",
"1080 1560 LINE",
"1076 1343 OFFCURVE",
"997 1222 OFFCURVE",
"860 1222 CURVE SMOOTH",
"800 1222 OFFCURVE",
"757 1240 OFFCURVE",
"704 1288 CURVE"
);
}
);
width = 1298;
}
);
unicode = 00F1;
},
{
glyphname = ograve;
lastChange = "2012-06-02 17:01:23 +0000";
layers = (
{
layerId = "D5D14868-B3D8-4E08-9530-062F6179E82D";
name = Bold;
paths = (
{
closed = 1;
nodes = (
"523 944 OFFCURVE",
"420 813 OFFCURVE",
"420 589 CURVE SMOOTH",
"420 373 OFFCURVE",
"510 344 OFFCURVE",
"682 344 CURVE SMOOTH",
"765 344 OFFCURVE",
"832 361 OFFCURVE",
"879 388 CURVE",
"921 415 OFFCURVE",
"942 482 OFFCURVE",
"942 589 CURVE SMOOTH",
"942 814 OFFCURVE",
"839 944 OFFCURVE",
"682 944 CURVE SMOOTH"
);
},
{
closed = 1;
nodes = (
"1003 1145 OFFCURVE",
"1199 919 OFFCURVE",
"1199 559 CURVE SMOOTH",
"1199 199 OFFCURVE",
"1003 -27 OFFCURVE",
"682 -27 CURVE SMOOTH",
"519 -27 OFFCURVE",
"392 26 OFFCURVE",
"301 132 CURVE SMOOTH",
"209 236 OFFCURVE",
"165 378 OFFCURVE",
"165 559 CURVE SMOOTH",
"165 740 OFFCURVE",
"209 882 OFFCURVE",
"301 987 CURVE SMOOTH",
"392 1092 OFFCURVE",
"519 1145 OFFCURVE",
"682 1145 CURVE SMOOTH"
);
},
{
closed = 1;
nodes = (
"421 1603 LINE",
"741 1180 LINE",
"389 1180 LINE",
"155 1603 LINE"
);
}
);
width = 1253;
}
);
unicode = 00F2;
},
{
glyphname = oacute;
lastChange = "2012-06-02 21:42:26 +0000";
layers = (
{
layerId = "D5D14868-B3D8-4E08-9530-062F6179E82D";
name = Bold;
paths = (
{
closed = 1;
nodes = (
"523 944 OFFCURVE",
"420 813 OFFCURVE",
"420 589 CURVE SMOOTH",
"420 373 OFFCURVE",
"510 344 OFFCURVE",
"682 344 CURVE SMOOTH",
"765 344 OFFCURVE",
"832 361 OFFCURVE",
"879 388 CURVE",
"921 415 OFFCURVE",
"942 482 OFFCURVE",
"942 589 CURVE SMOOTH",
"942 814 OFFCURVE",
"839 944 OFFCURVE",
"682 944 CURVE SMOOTH"
);
},
{
closed = 1;
nodes = (
"1003 1145 OFFCURVE",
"1199 919 OFFCURVE",
"1199 559 CURVE SMOOTH",
"1199 199 OFFCURVE",
"1003 -27 OFFCURVE",
"682 -27 CURVE SMOOTH",
"519 -27 OFFCURVE",
"392 26 OFFCURVE",
"301 132 CURVE SMOOTH",
"209 236 OFFCURVE",
"165 378 OFFCURVE",
"165 559 CURVE SMOOTH",
"165 740 OFFCURVE",
"209 882 OFFCURVE",
"301 987 CURVE SMOOTH",
"392 1092 OFFCURVE",
"519 1145 OFFCURVE",
"682 1145 CURVE SMOOTH"
);
},
{
closed = 1;
nodes = (
"871 1603 LINE",
"1177 1603 LINE",
"774 1139 LINE",
"524 1139 LINE"
);
}
);
width = 1253;
}
);
unicode = 00F3;
},
{
glyphname = ocircumflex;
lastChange = "2012-06-02 21:42:32 +0000";
layers = (
{
layerId = "D5D14868-B3D8-4E08-9530-062F6179E82D";
name = Bold;
paths = (
{
closed = 1;
nodes = (
"523 944 OFFCURVE",
"420 813 OFFCURVE",
"420 589 CURVE SMOOTH",
"420 373 OFFCURVE",
"510 344 OFFCURVE",
"682 344 CURVE SMOOTH",
"765 344 OFFCURVE",
"832 361 OFFCURVE",
"879 388 CURVE",
"921 415 OFFCURVE",
"942 482 OFFCURVE",
"942 589 CURVE SMOOTH",
"942 814 OFFCURVE",
"839 944 OFFCURVE",
"682 944 CURVE SMOOTH"
);
},
{
closed = 1;
nodes = (
"1003 1145 OFFCURVE",
"1199 919 OFFCURVE",
"1199 559 CURVE SMOOTH",
"1199 199 OFFCURVE",
"1003 -27 OFFCURVE",
"682 -27 CURVE SMOOTH",
"519 -27 OFFCURVE",
"392 26 OFFCURVE",
"301 132 CURVE SMOOTH",
"209 236 OFFCURVE",
"165 378 OFFCURVE",
"165 559 CURVE SMOOTH",
"165 740 OFFCURVE",
"209 882 OFFCURVE",
"301 987 CURVE SMOOTH",
"392 1092 OFFCURVE",
"519 1145 OFFCURVE",
"682 1145 CURVE SMOOTH"
);
},
{
closed = 1;
nodes = (
"544 1603 LINE",
"724 1603 LINE",
"1001 1178 LINE",
"783 1178 LINE",
"634 1381 LINE",
"609 1347 OFFCURVE",
"583 1313 OFFCURVE",
"558 1278 CURVE SMOOTH",
"533 1243 OFFCURVE",
"508 1209 OFFCURVE",
"485 1178 CURVE",
"267 1178 LINE"
);
}
);
width = 1253;
}
);
unicode = 00F4;
},
{
glyphname = otilde;
lastChange = "2012-06-02 17:01:23 +0000";
layers = (
{
layerId = "D5D14868-B3D8-4E08-9530-062F6179E82D";
name = Bold;
paths = (
{
closed = 1;
nodes = (
"523 944 OFFCURVE",
"420 813 OFFCURVE",
"420 589 CURVE SMOOTH",
"420 373 OFFCURVE",
"510 344 OFFCURVE",
"682 344 CURVE SMOOTH",
"765 344 OFFCURVE",
"832 361 OFFCURVE",
"879 388 CURVE",
"921 415 OFFCURVE",
"942 482 OFFCURVE",
"942 589 CURVE SMOOTH",
"942 814 OFFCURVE",
"839 944 OFFCURVE",
"682 944 CURVE SMOOTH"
);
},
{
closed = 1;
nodes = (
"1003 1145 OFFCURVE",
"1199 919 OFFCURVE",
"1199 559 CURVE SMOOTH",
"1199 199 OFFCURVE",
"1003 -27 OFFCURVE",
"682 -27 CURVE SMOOTH",
"519 -27 OFFCURVE",
"392 26 OFFCURVE",
"301 132 CURVE SMOOTH",
"209 236 OFFCURVE",
"165 378 OFFCURVE",
"165 559 CURVE SMOOTH",
"165 740 OFFCURVE",
"209 882 OFFCURVE",
"301 987 CURVE SMOOTH",
"392 1092 OFFCURVE",
"519 1145 OFFCURVE",
"682 1145 CURVE SMOOTH"
);
},
{
closed = 1;
nodes = (
"584 1340 LINE",
"585 1340 LINE",
"566 1357 OFFCURVE",
"553 1366 OFFCURVE",
"547 1366 CURVE SMOOTH",
"536 1366 OFFCURVE",
"527 1355 OFFCURVE",
"522 1332 CURVE SMOOTH",
"517 1309 OFFCURVE",
"513 1273 OFFCURVE",
"512 1222 CURVE",
"321 1222 LINE",
"324 1438 OFFCURVE",
"404 1560 OFFCURVE",
"541 1560 CURVE SMOOTH",
"600 1560 OFFCURVE",
"641 1541 OFFCURVE",
"696 1492 CURVE SMOOTH",
"750 1441 LINE",
"749 1441 LINE",
"768 1424 OFFCURVE",
"781 1415 OFFCURVE",
"787 1415 CURVE SMOOTH",
"798 1415 OFFCURVE",
"807 1426 OFFCURVE",
"812 1449 CURVE SMOOTH",
"817 1472 OFFCURVE",
"821 1509 OFFCURVE",
"822 1560 CURVE",
"1013 1560 LINE",
"1009 1343 OFFCURVE",
"930 1222 OFFCURVE",
"793 1222 CURVE SMOOTH",
"733 1222 OFFCURVE",
"690 1240 OFFCURVE",
"637 1288 CURVE"
);
}
);
width = 1253;
}
);
unicode = 00F5;
},
{
glyphname = odieresis;
lastChange = "2012-06-02 17:01:23 +0000";
layers = (
{
layerId = "D5D14868-B3D8-4E08-9530-062F6179E82D";
name = Bold;
paths = (
{
closed = 1;
nodes = (
"523 944 OFFCURVE",
"420 813 OFFCURVE",
"420 589 CURVE SMOOTH",
"420 373 OFFCURVE",
"510 344 OFFCURVE",
"682 344 CURVE SMOOTH",
"765 344 OFFCURVE",
"832 361 OFFCURVE",
"879 388 CURVE",
"921 415 OFFCURVE",
"942 482 OFFCURVE",
"942 589 CURVE SMOOTH",
"942 814 OFFCURVE",
"839 944 OFFCURVE",
"682 944 CURVE SMOOTH"
);
},
{
closed = 1;
nodes = (
"1003 1145 OFFCURVE",
"1199 919 OFFCURVE",
"1199 559 CURVE SMOOTH",
"1199 199 OFFCURVE",
"1003 -27 OFFCURVE",
"682 -27 CURVE SMOOTH",
"519 -27 OFFCURVE",
"392 26 OFFCURVE",
"301 132 CURVE SMOOTH",
"209 236 OFFCURVE",
"165 378 OFFCURVE",
"165 559 CURVE SMOOTH",
"165 740 OFFCURVE",
"209 882 OFFCURVE",
"301 987 CURVE SMOOTH",
"392 1092 OFFCURVE",
"519 1145 OFFCURVE",
"682 1145 CURVE SMOOTH"
);
},
{
closed = 1;
nodes = (
"812 1537 LINE",
"1090 1537 LINE",
"1090 1260 LINE",
"812 1260 LINE"
);
},
{
closed = 1;
nodes = (
"421 1537 LINE",
"699 1537 LINE",
"699 1260 LINE",
"421 1260 LINE"
);
}
);
width = 1253;
}
);
unicode = 00F6;
},
{
glyphname = divide;
lastChange = "2012-06-02 17:01:23 +0000";
layers = (
{
layerId = "D5D14868-B3D8-4E08-9530-062F6179E82D";
name = Bold;
paths = (
{
closed = 1;
nodes = (
"486 1181 LINE",
"837 1181 LINE",
"837 830 LINE",
"486 830 LINE"
);
},
{
closed = 1;
nodes = (
"486 397 LINE",
"837 397 LINE",
"837 47 LINE",
"486 47 LINE"
);
},
{
closed = 1;
nodes = (
"2 753 LINE",
"1320 753 LINE",
"1320 473 LINE",
"2 473 LINE"
);
}
);
width = 1322;
}
);
unicode = 00F7;
},
{
glyphname = oslash;
lastChange = "2012-06-02 17:01:23 +0000";
layers = (
{
anchors = (
{
name = top;
position = "{685, 1120}";
}
);
layerId = "D5D14868-B3D8-4E08-9530-062F6179E82D";
name = Bold;
paths = (
{
closed = 1;
nodes = (
"542 237 LINE",
"582 206 OFFCURVE",
"626 193 OFFCURVE",
"686 193 CURVE SMOOTH",
"843 193 OFFCURVE",
"946 326 OFFCURVE",
"946 559 CURVE SMOOTH",
"946 623 OFFCURVE",
"944 666 OFFCURVE",
"932 709 CURVE"
);
},
{
closed = 1;
nodes = (
"828 881 LINE",
"788 912 OFFCURVE",
"742 925 OFFCURVE",
"686 925 CURVE SMOOTH",
"606 925 OFFCURVE",
"541 891 OFFCURVE",
"496 831 CURVE SMOOTH",
"449 764 OFFCURVE",
"425 669 OFFCURVE",
"425 546 CURVE SMOOTH",
"425 495 OFFCURVE",
"429 447 OFFCURVE",
"438 410 CURVE"
);
},
{
closed = 1;
nodes = (
"260 193 LINE",
"196 293 OFFCURVE",
"169 410 OFFCURVE",
"169 559 CURVE SMOOTH",
"169 920 OFFCURVE",
"363 1145 OFFCURVE",
"686 1145 CURVE SMOOTH",
"797 1145 OFFCURVE",
"894 1118 OFFCURVE",
"977 1063 CURVE",
"997 1088 OFFCURVE",
"1021 1117 OFFCURVE",
"1045 1145 CURVE",
"1056 1159 OFFCURVE",
"1068 1173 OFFCURVE",
"1079 1186 CURVE SMOOTH",
"1090 1199 OFFCURVE",
"1100 1211 OFFCURVE",
"1109 1222 CURVE",
"1254 1100 LINE",
"1112 926 LINE",
"1173 826 OFFCURVE",
"1203 704 OFFCURVE",
"1203 559 CURVE SMOOTH",
"1203 200 OFFCURVE",
"1009 -27 OFFCURVE",
"686 -27 CURVE SMOOTH",
"571 -27 OFFCURVE",
"473 0 OFFCURVE",
"394 55 CURVE",
"384 42 OFFCURVE",
"373 29 OFFCURVE",
"362 16 CURVE SMOOTH",
"338 -12 OFFCURVE",
"315 -40 OFFCURVE",
"293 -67 CURVE SMOOTH",
"282 -80 OFFCURVE",
"272 -92 OFFCURVE",
"263 -103 CURVE",
"116 17 LINE"
);
}
);
width = 1370;
}
);
unicode = 00F8;
},
{
glyphname = ugrave;
lastChange = "2012-06-02 21:42:42 +0000";
layers = (
{
layerId = "D5D14868-B3D8-4E08-9530-062F6179E82D";
name = Bold;
paths = (
{
closed = 1;
nodes = (
"258 1120 LINE",
"476 1120 LINE",
"476 608 LINE",
"487 437 OFFCURVE",
"543 346 OFFCURVE",
"670 346 CURVE SMOOTH",
"752 346 OFFCURVE",
"814 371 OFFCURVE",
"857 422 CURVE SMOOTH",
"902 473 OFFCURVE",
"926 551 OFFCURVE",
"933 642 CURVE",
"944 1120 LINE",
"1218 1120 LINE",
"1198 0 LINE",
"949 0 LINE",
"954 85 LINE",
"877 10 OFFCURVE",
"779 -27 OFFCURVE",
"662 -27 CURVE SMOOTH",
"397 -27 OFFCURVE",
"258 137 OFFCURVE",
"258 450 CURVE SMOOTH"
);
},
{
closed = 1;
nodes = (
"529 1603 LINE",
"849 1180 LINE",
"497 1180 LINE",
"263 1603 LINE"
);
}
);
width = 1298;
}
);
unicode = 00F9;
},
{
glyphname = uacute;
lastChange = "2012-06-02 21:42:46 +0000";
layers = (
{
layerId = "D5D14868-B3D8-4E08-9530-062F6179E82D";
name = Bold;
paths = (
{
closed = 1;
nodes = (
"258 1120 LINE",
"476 1120 LINE",
"476 608 LINE",
"487 437 OFFCURVE",
"543 346 OFFCURVE",
"670 346 CURVE SMOOTH",
"752 346 OFFCURVE",
"814 371 OFFCURVE",
"857 422 CURVE SMOOTH",
"902 473 OFFCURVE",
"926 551 OFFCURVE",
"933 642 CURVE",
"944 1120 LINE",
"1218 1120 LINE",
"1198 0 LINE",
"949 0 LINE",
"954 85 LINE",
"877 10 OFFCURVE",
"779 -27 OFFCURVE",
"662 -27 CURVE SMOOTH",
"397 -27 OFFCURVE",
"258 137 OFFCURVE",
"258 450 CURVE SMOOTH"
);
},
{
closed = 1;
nodes = (
"879 1603 LINE",
"1185 1603 LINE",
"782 1139 LINE",
"532 1139 LINE"
);
}
);
width = 1298;
}
);
unicode = 00FA;
},
{
glyphname = ucircumflex;
lastChange = "2012-06-02 21:42:52 +0000";
layers = (
{
layerId = "D5D14868-B3D8-4E08-9530-062F6179E82D";
name = Bold;
paths = (
{
closed = 1;
nodes = (
"258 1120 LINE",
"476 1120 LINE",
"476 608 LINE",
"487 437 OFFCURVE",
"543 346 OFFCURVE",
"670 346 CURVE SMOOTH",
"752 346 OFFCURVE",
"814 371 OFFCURVE",
"857 422 CURVE SMOOTH",
"902 473 OFFCURVE",
"926 551 OFFCURVE",
"933 642 CURVE",
"944 1120 LINE",
"1218 1120 LINE",
"1198 0 LINE",
"949 0 LINE",
"954 85 LINE",
"877 10 OFFCURVE",
"779 -27 OFFCURVE",
"662 -27 CURVE SMOOTH",
"397 -27 OFFCURVE",
"258 137 OFFCURVE",
"258 450 CURVE SMOOTH"
);
},
{
closed = 1;
nodes = (
"652 1603 LINE",
"832 1603 LINE",
"1109 1178 LINE",
"891 1178 LINE",
"742 1381 LINE",
"717 1347 OFFCURVE",
"691 1313 OFFCURVE",
"666 1278 CURVE SMOOTH",
"641 1243 OFFCURVE",
"616 1209 OFFCURVE",
"593 1178 CURVE",
"375 1178 LINE"
);
}
);
width = 1298;
}
);
unicode = 00FB;
},
{
glyphname = udieresis;
lastChange = "2012-06-02 17:01:23 +0000";
layers = (
{
layerId = "D5D14868-B3D8-4E08-9530-062F6179E82D";
name = Bold;
paths = (
{
closed = 1;
nodes = (
"258 1120 LINE",
"476 1120 LINE",
"476 608 LINE",
"487 437 OFFCURVE",
"543 346 OFFCURVE",
"670 346 CURVE SMOOTH",
"752 346 OFFCURVE",
"814 371 OFFCURVE",
"857 422 CURVE SMOOTH",
"902 473 OFFCURVE",
"926 551 OFFCURVE",
"933 642 CURVE",
"944 1120 LINE",
"1218 1120 LINE",
"1198 0 LINE",
"949 0 LINE",
"954 85 LINE",
"877 10 OFFCURVE",
"779 -27 OFFCURVE",
"662 -27 CURVE SMOOTH",
"397 -27 OFFCURVE",
"258 137 OFFCURVE",
"258 450 CURVE SMOOTH"
);
},
{
closed = 1;
nodes = (
"820 1537 LINE",
"1098 1537 LINE",
"1098 1260 LINE",
"820 1260 LINE"
);
},
{
closed = 1;
nodes = (
"429 1537 LINE",
"707 1537 LINE",
"707 1260 LINE",
"429 1260 LINE"
);
}
);
width = 1298;
}
);
unicode = 00FC;
},
{
glyphname = yacute;
lastChange = "2012-06-02 21:43:00 +0000";
layers = (
{
layerId = "D5D14868-B3D8-4E08-9530-062F6179E82D";
name = Bold;
paths = (
{
closed = 1;
nodes = (
"871 -74 LINE",
"746 -359 OFFCURVE",
"644 -416 OFFCURVE",
"472 -416 CURVE SMOOTH",
"279 -416 LINE",
"279 -114 LINE",
"436 -114 LINE SMOOTH",
"473 -114 OFFCURVE",
"503 -105 OFFCURVE",
"522 -90 CURVE",
"545 -70 OFFCURVE",
"572 -42 OFFCURVE",
"599 -7 CURVE",
"610 16 OFFCURVE",
"622 38 OFFCURVE",
"633 59 CURVE SMOOTH",
"644 80 OFFCURVE",
"655 102 OFFCURVE",
"666 125 CURVE",
"629 204 OFFCURVE",
"591 285 OFFCURVE",
"552 369 CURVE SMOOTH",
"473 537 OFFCURVE",
"394 708 OFFCURVE",
"316 876 CURVE SMOOTH",
"277 960 OFFCURVE",
"239 1041 OFFCURVE",
"202 1120 CURVE",
"462 1120 LINE",
"807 553 LINE",
"1072 1120 LINE",
"1331 1120 LINE"
);
},
{
closed = 1;
nodes = (
"960 1603 LINE",
"1266 1603 LINE",
"863 1139 LINE",
"613 1139 LINE"
);
}
);
width = 1212;
}
);
unicode = 00FD;
},
{
glyphname = thorn;
lastChange = "2012-06-02 17:01:23 +0000";
layers = (
{
layerId = "D5D14868-B3D8-4E08-9530-062F6179E82D";
name = Bold;
paths = (
{
closed = 1;
nodes = (
"553 -398 LINE",
"306 -398 LINE",
"306 1527 LINE",
"553 1527 LINE",
"553 1035 LINE",
"629 1111 OFFCURVE",
"725 1145 OFFCURVE",
"850 1145 CURVE SMOOTH",
"1126 1145 OFFCURVE",
"1316 906 OFFCURVE",
"1316 559 CURVE SMOOTH",
"1316 212 OFFCURVE",
"1126 -27 OFFCURVE",
"850 -27 CURVE SMOOTH",
"725 -27 OFFCURVE",
"629 7 OFFCURVE",
"553 83 CURVE"
);
},
{
closed = 1;
nodes = (
"1063 794 OFFCURVE",
"963 927 OFFCURVE",
"808 927 CURVE SMOOTH",
"731 927 OFFCURVE",
"670 896 OFFCURVE",
"623 833 CURVE",
"624 834 LINE",
"577 769 OFFCURVE",
"553 678 OFFCURVE",
"553 559 CURVE SMOOTH",
"553 440 OFFCURVE",
"577 348 OFFCURVE",
"624 283 CURVE",
"623 284 LINE",
"668 222 OFFCURVE",
"729 191 OFFCURVE",
"808 191 CURVE SMOOTH",
"887 191 OFFCURVE",
"948 222 OFFCURVE",
"991 283 CURVE SMOOTH",
"1039 348 OFFCURVE",
"1063 440 OFFCURVE",
"1063 559 CURVE SMOOTH"
);
}
);
width = 1316;
}
);
unicode = 00FE;
},
{
glyphname = ydieresis;
lastChange = "2012-06-02 17:01:23 +0000";
layers = (
{
layerId = "D5D14868-B3D8-4E08-9530-062F6179E82D";
name = Bold;
paths = (
{
closed = 1;
nodes = (
"871 -74 LINE",
"746 -359 OFFCURVE",
"644 -416 OFFCURVE",
"472 -416 CURVE SMOOTH",
"279 -416 LINE",
"279 -114 LINE",
"436 -114 LINE SMOOTH",
"473 -114 OFFCURVE",
"503 -105 OFFCURVE",
"522 -90 CURVE",
"545 -70 OFFCURVE",
"572 -42 OFFCURVE",
"599 -7 CURVE",
"610 16 OFFCURVE",
"622 38 OFFCURVE",
"633 59 CURVE SMOOTH",
"644 80 OFFCURVE",
"655 102 OFFCURVE",
"666 125 CURVE",
"629 204 OFFCURVE",
"591 285 OFFCURVE",
"552 369 CURVE SMOOTH",
"473 537 OFFCURVE",
"394 708 OFFCURVE",
"316 876 CURVE SMOOTH",
"277 960 OFFCURVE",
"239 1041 OFFCURVE",
"202 1120 CURVE",
"462 1120 LINE",
"807 553 LINE",
"1072 1120 LINE",
"1331 1120 LINE"
);
},
{
closed = 1;
nodes = (
"791 1537 LINE",
"1069 1537 LINE",
"1069 1260 LINE",
"791 1260 LINE"
);
},
{
closed = 1;
nodes = (
"400 1537 LINE",
"678 1537 LINE",
"678 1260 LINE",
"400 1260 LINE"
);
}
);
width = 1212;
}
);
unicode = 00FF;
},
{
glyphname = Cacute;
lastChange = "2012-06-02 21:43:05 +0000";
layers = (
{
layerId = "D5D14868-B3D8-4E08-9530-062F6179E82D";
name = Bold;
paths = (
{
closed = 1;
nodes = (
"1358 1056 LINE",
"1191 1211 OFFCURVE",
"1036 1285 OFFCURVE",
"881 1285 CURVE SMOOTH",
"580 1285 OFFCURVE",
"418 1097 OFFCURVE",
"418 745 CURVE SMOOTH",
"423 440 OFFCURVE",
"572 339 OFFCURVE",
"881 339 CURVE SMOOTH",
"1036 339 OFFCURVE",
"1191 413 OFFCURVE",
"1358 568 CURVE",
"1358 127 LINE",
"1207 24 OFFCURVE",
"1046 -28 OFFCURVE",
"870 -28 CURVE SMOOTH",
"419 -28 OFFCURVE",
"140 270 OFFCURVE",
"140 745 CURVE SMOOTH",
"140 1218 OFFCURVE",
"418 1519 OFFCURVE",
"870 1519 CURVE SMOOTH",
"1045 1519 OFFCURVE",
"1208 1468 OFFCURVE",
"1358 1366 CURVE"
);
},
{
closed = 1;
nodes = (
"963 1872 LINE",
"1236 1872 LINE",
"959 1551 LINE",
"724 1551 LINE"
);
}
);
width = 1430;
}
);
unicode = 0106;
},
{
glyphname = cacute;
lastChange = "2012-06-02 21:43:09 +0000";
layers = (
{
layerId = "D5D14868-B3D8-4E08-9530-062F6179E82D";
name = Bold;
paths = (
{
closed = 1;
nodes = (
"1037 829 LINE",
"910 899 OFFCURVE",
"799 934 OFFCURVE",
"706 934 CURVE SMOOTH",
"506 934 OFFCURVE",
"403 795 OFFCURVE",
"400 563 CURVE",
"409 487 OFFCURVE",
"435 429 OFFCURVE",
"475 400 CURVE",
"520 371 OFFCURVE",
"607 351 OFFCURVE",
"700 343 CURVE",
"847 343 LINE SMOOTH",
"890 344 OFFCURVE",
"951 364 OFFCURVE",
"1032 411 CURVE",
"1037 54 LINE",
"920 -1 OFFCURVE",
"808 -27 OFFCURVE",
"687 -27 CURVE SMOOTH",
"352 -27 OFFCURVE",
"135 206 OFFCURVE",
"135 559 CURVE SMOOTH",
"135 920 OFFCURVE",
"350 1145 OFFCURVE",
"698 1145 CURVE SMOOTH",
"809 1145 OFFCURVE",
"921 1119 OFFCURVE",
"1037 1066 CURVE"
);
},
{
closed = 1;
nodes = (
"793 1603 LINE",
"1099 1603 LINE",
"696 1139 LINE",
"446 1139 LINE"
);
}
);
width = 1126;
}
);
unicode = 0107;
},
{
glyphname = Ccaron;
lastChange = "2012-06-02 17:01:23 +0000";
layers = (
{
layerId = "D5D14868-B3D8-4E08-9530-062F6179E82D";
name = Bold;
paths = (
{
closed = 1;
nodes = (
"1358 1056 LINE",
"1191 1211 OFFCURVE",
"1036 1285 OFFCURVE",
"881 1285 CURVE SMOOTH",
"580 1285 OFFCURVE",
"418 1097 OFFCURVE",
"418 745 CURVE SMOOTH",
"423 440 OFFCURVE",
"572 339 OFFCURVE",
"881 339 CURVE SMOOTH",
"1036 339 OFFCURVE",
"1191 413 OFFCURVE",
"1358 568 CURVE",
"1358 127 LINE",
"1207 24 OFFCURVE",
"1046 -28 OFFCURVE",
"870 -28 CURVE SMOOTH",
"419 -28 OFFCURVE",
"140 270 OFFCURVE",
"140 745 CURVE SMOOTH",
"140 1218 OFFCURVE",
"418 1519 OFFCURVE",
"870 1519 CURVE SMOOTH",
"1045 1519 OFFCURVE",
"1208 1468 OFFCURVE",
"1358 1366 CURVE"
);
},
{
closed = 1;
nodes = (
"615 1551 LINE",
"359 1874 LINE",
"582 1874 LINE",
"722 1724 LINE",
"745 1749 OFFCURVE",
"769 1774 OFFCURVE",
"793 1800 CURVE SMOOTH",
"816 1826 OFFCURVE",
"839 1851 OFFCURVE",
"860 1874 CURVE",
"1083 1874 LINE",
"826 1551 LINE"
);
}
);
width = 1430;
}
);
unicode = 010C;
},
{
glyphname = ccaron;
lastChange = "2012-06-02 17:01:23 +0000";
layers = (
{
layerId = "D5D14868-B3D8-4E08-9530-062F6179E82D";
name = Bold;
paths = (
{
closed = 1;
nodes = (
"1037 829 LINE",
"910 899 OFFCURVE",
"799 934 OFFCURVE",
"706 934 CURVE SMOOTH",
"506 934 OFFCURVE",
"403 795 OFFCURVE",
"400 563 CURVE",
"409 487 OFFCURVE",
"435 429 OFFCURVE",
"475 400 CURVE",
"520 371 OFFCURVE",
"607 351 OFFCURVE",
"700 343 CURVE",
"847 343 LINE SMOOTH",
"890 344 OFFCURVE",
"951 364 OFFCURVE",
"1032 411 CURVE",
"1037 54 LINE",
"920 -1 OFFCURVE",
"808 -27 OFFCURVE",
"687 -27 CURVE SMOOTH",
"352 -27 OFFCURVE",
"135 206 OFFCURVE",
"135 559 CURVE SMOOTH",
"135 920 OFFCURVE",
"350 1145 OFFCURVE",
"698 1145 CURVE SMOOTH",
"809 1145 OFFCURVE",
"921 1119 OFFCURVE",
"1037 1066 CURVE"
);
},
{
closed = 1;
nodes = (
"463 1178 LINE",
"186 1603 LINE",
"404 1603 LINE",
"553 1400 LINE",
"602 1468 OFFCURVE",
"655 1540 OFFCURVE",
"702 1603 CURVE",
"920 1603 LINE",
"643 1178 LINE"
);
}
);
width = 1126;
}
);
unicode = 010D;
},
{
glyphname = dcroat;
lastChange = "2012-06-02 17:01:23 +0000";
layers = (
{
layerId = "D5D14868-B3D8-4E08-9530-062F6179E82D";
name = Bold;
paths = (
{
closed = 1;
nodes = (
"826 1198 LINE",
"521 1198 LINE",
"521 1390 LINE",
"826 1390 LINE",
"826 1527 LINE",
"1072 1527 LINE",
"1072 1390 LINE",
"1216 1390 LINE",
"1216 1198 LINE",
"1072 1198 LINE",
"1072 0 LINE",
"826 0 LINE",
"826 83 LINE",
"750 7 OFFCURVE",
"653 -27 OFFCURVE",
"528 -27 CURVE SMOOTH",
"251 -27 OFFCURVE",
"63 212 OFFCURVE",
"63 559 CURVE SMOOTH",
"63 906 OFFCURVE",
"251 1145 OFFCURVE",
"528 1145 CURVE SMOOTH",
"653 1145 OFFCURVE",
"750 1111 OFFCURVE",
"826 1035 CURVE"
);
},
{
closed = 1;
nodes = (
"315 496 OFFCURVE",
"338 414 OFFCURVE",
"384 355 CURVE",
"429 302 OFFCURVE",
"493 272 OFFCURVE",
"570 272 CURVE SMOOTH",
"727 272 OFFCURVE",
"826 391 OFFCURVE",
"826 599 CURVE SMOOTH",
"826 810 OFFCURVE",
"727 927 OFFCURVE",
"570 927 CURVE SMOOTH",
"493 927 OFFCURVE",
"429 896 OFFCURVE",
"384 844 CURVE",
"338 785 OFFCURVE",
"315 703 OFFCURVE",
"315 599 CURVE SMOOTH"
);
}
);
width = 1355;
}
);
unicode = 0111;
},
{
glyphname = Gbreve;
lastChange = "2012-06-02 17:01:23 +0000";
layers = (
{
layerId = "D5D14868-B3D8-4E08-9530-062F6179E82D";
name = Bold;
paths = (
{
closed = 1;
nodes = (
"1170 507 LINE",
"867 507 LINE",
"867 788 LINE",
"1465 788 LINE",
"1465 150 LINE",
"1298 31 OFFCURVE",
"1109 -28 OFFCURVE",
"896 -28 CURVE SMOOTH",
"664 -28 OFFCURVE",
"481 40 OFFCURVE",
"348 177 CURVE SMOOTH",
"217 316 OFFCURVE",
"151 505 OFFCURVE",
"151 745 CURVE SMOOTH",
"151 1229 OFFCURVE",
"432 1519 OFFCURVE",
"896 1519 CURVE SMOOTH",
"1089 1519 OFFCURVE",
"1268 1467 OFFCURVE",
"1428 1367 CURVE",
"1428 1079 LINE",
"1252 1229 OFFCURVE",
"1080 1304 OFFCURVE",
"912 1304 CURVE SMOOTH",
"591 1304 OFFCURVE",
"430 1125 OFFCURVE",
"429 766 CURVE",
"437 609 OFFCURVE",
"477 496 OFFCURVE",
"549 441 CURVE",
"548 441 LINE",
"625 386 OFFCURVE",
"747 358 OFFCURVE",
"912 358 CURVE SMOOTH",
"979 358 OFFCURVE",
"1035 363 OFFCURVE",
"1086 374 CURVE",
"1085 374 LINE",
"1122 383 OFFCURVE",
"1150 394 OFFCURVE",
"1170 409 CURVE"
);
},
{
closed = 1;
nodes = (
"610 1874 LINE",
"626 1806 OFFCURVE",
"678 1770 OFFCURVE",
"762 1770 CURVE SMOOTH",
"844 1770 OFFCURVE",
"895 1805 OFFCURVE",
"915 1874 CURVE",
"1095 1874 LINE",
"1079 1675 OFFCURVE",
"965 1573 OFFCURVE",
"762 1573 CURVE SMOOTH",
"559 1573 OFFCURVE",
"446 1674 OFFCURVE",
"430 1874 CURVE"
);
}
);
width = 1587;
}
);
unicode = 011E;
},
{
glyphname = gbreve;
lastChange = "2012-06-02 17:01:23 +0000";
layers = (
{
layerId = "D5D14868-B3D8-4E08-9530-062F6179E82D";
name = Bold;
paths = (
{
closed = 1;
nodes = (
"853 695 OFFCURVE",
"830 784 OFFCURVE",
"787 845 CURVE SMOOTH",
"743 905 OFFCURVE",
"679 937 OFFCURVE",
"598 937 CURVE SMOOTH",
"439 937 OFFCURVE",
"383 826 OFFCURVE",
"361 738 CURVE SMOOTH",
"350 693 OFFCURVE",
"344 643 OFFCURVE",
"343 586 CURVE",
"354 478 OFFCURVE",
"376 409 OFFCURVE",
"405 386 CURVE",
"440 365 OFFCURVE",
"501 353 OFFCURVE",
"585 353 CURVE SMOOTH",
"758 353 OFFCURVE",
"853 366 OFFCURVE",
"853 582 CURVE SMOOTH"
);
},
{
closed = 1;
nodes = (
"1165 166 LINE SMOOTH",
"1157 -57 OFFCURVE",
"1112 -229 OFFCURVE",
"1028 -320 CURVE SMOOTH",
"941 -415 OFFCURVE",
"810 -463 OFFCURVE",
"637 -463 CURVE SMOOTH",
"512 -463 OFFCURVE",
"394 -441 OFFCURVE",
"273 -397 CURVE",
"273 -2 LINE",
"406 -75 OFFCURVE",
"514 -107 OFFCURVE",
"610 -107 CURVE SMOOTH",
"709 -107 OFFCURVE",
"783 -77 OFFCURVE",
"830 -26 CURVE SMOOTH",
"861 10 OFFCURVE",
"883 48 OFFCURVE",
"900 84 CURVE",
"885 73 OFFCURVE",
"867 61 OFFCURVE",
"848 50 CURVE SMOOTH",
"787 17 OFFCURVE",
"714 0 OFFCURVE",
"630 0 CURVE SMOOTH",
"349 0 OFFCURVE",
"166 233 OFFCURVE",
"166 572 CURVE SMOOTH",
"166 912 OFFCURVE",
"349 1145 OFFCURVE",
"630 1145 CURVE SMOOTH",
"763 1145 OFFCURVE",
"863 1108 OFFCURVE",
"939 1024 CURVE",
"942 1041 OFFCURVE",
"944 1058 OFFCURVE",
"946 1075 CURVE",
"947 1092 OFFCURVE",
"949 1107 OFFCURVE",
"950 1120 CURVE",
"1194 1120 LINE"
);
},
{
closed = 1;
nodes = (
"470 1575 LINE",
"484 1482 OFFCURVE",
"534 1435 OFFCURVE",
"619 1435 CURVE SMOOTH",
"707 1435 OFFCURVE",
"754 1480 OFFCURVE",
"770 1575 CURVE",
"951 1575 LINE",
"935 1347 OFFCURVE",
"823 1233 OFFCURVE",
"619 1233 CURVE SMOOTH",
"414 1233 OFFCURVE",
"303 1347 OFFCURVE",
"287 1575 CURVE"
);
}
);
width = 1300;
}
);
unicode = 011F;
},
{
glyphname = Idotaccent;
lastChange = "2012-06-02 21:43:22 +0000";
layers = (
{
layerId = "D5D14868-B3D8-4E08-9530-062F6179E82D";
name = Bold;
paths = (
{
closed = 1;
nodes = (
"258 1493 LINE",
"515 1493 LINE",
"534 0 LINE",
"227 0 LINE"
);
},
{
closed = 1;
nodes = (
"208 1847 LINE",
"473 1847 LINE",
"473 1581 LINE",
"208 1581 LINE"
);
}
);
width = 604;
}
);
unicode = 0130;
},
{
glyphname = dotlessi;
lastChange = "2012-06-02 17:01:23 +0000";
layers = (
{
anchors = (
{
name = ogonek;
position = "{766, 10}";
},
{
name = top;
position = "{426, 1120}";
}
);
layerId = "D5D14868-B3D8-4E08-9530-062F6179E82D";
name = Bold;
paths = (
{
closed = 1;
nodes = (
"306 1120 LINE",
"553 1120 LINE",
"553 0 LINE",
"306 0 LINE"
);
}
);
width = 851;
}
);
unicode = 0131;
},
{
glyphname = Lslash;
lastChange = "2012-06-02 17:01:23 +0000";
layers = (
{
layerId = "D5D14868-B3D8-4E08-9530-062F6179E82D";
name = Bold;
paths = (
{
closed = 1;
nodes = (
"290 1493 LINE",
"559 1493 LINE",
"559 943 LINE",
"828 1131 LINE",
"947 963 LINE",
"559 693 LINE",
"559 237 LINE",
"1249 237 LINE",
"1249 0 LINE",
"290 0 LINE",
"290 506 LINE",
"178 426 LINE",
"62 593 LINE",
"290 754 LINE"
);
}
);
width = 1251;
}
);
unicode = 0141;
},
{
glyphname = lslash;
lastChange = "2012-06-02 17:01:23 +0000";
layers = (
{
layerId = "D5D14868-B3D8-4E08-9530-062F6179E82D";
name = Bold;
paths = (
{
closed = 1;
nodes = (
"202 1527 LINE",
"449 1527 LINE",
"449 1001 LINE",
"536 1064 LINE",
"651 903 LINE",
"449 762 LINE",
"449 0 LINE",
"202 0 LINE",
"202 587 LINE",
"115 525 LINE",
"4 684 LINE",
"202 825 LINE"
);
}
);
width = 653;
}
);
unicode = 0142;
},
{
glyphname = OE;
lastChange = "2012-06-02 17:01:23 +0000";
layers = (
{
anchors = (
{
name = top;
position = "{1183, 1493}";
}
);
layerId = "D5D14868-B3D8-4E08-9530-062F6179E82D";
name = Bold;
paths = (
{
closed = 1;
nodes = (
"2090 1493 LINE",
"2090 1294 LINE",
"1385 1294 LINE",
"1385 979 LINE",
"2079 979 LINE",
"2079 741 LINE",
"1385 741 LINE",
"1385 342 LINE",
"2107 342 LINE",
"2107 0 LINE",
"1058 0 LINE SMOOTH",
"486 0 OFFCURVE",
"185 257 OFFCURVE",
"185 748 CURVE SMOOTH",
"185 992 OFFCURVE",
"260 1178 OFFCURVE",
"407 1303 CURVE SMOOTH",
"554 1428 OFFCURVE",
"771 1493 OFFCURVE",
"1058 1493 CURVE SMOOTH"
);
},
{
closed = 1;
nodes = (
"1118 1294 LINE",
"1033 1294 LINE SMOOTH",
"649 1294 OFFCURVE",
"463 1140 OFFCURVE",
"463 748 CURVE SMOOTH",
"463 648 OFFCURVE",
"514 552 OFFCURVE",
"602 469 CURVE",
"698 385 OFFCURVE",
"842 342 OFFCURVE",
"1033 342 CURVE SMOOTH",
"1118 342 LINE"
);
}
);
width = 2366;
}
);
unicode = 0152;
},
{
glyphname = oe;
lastChange = "2012-06-02 17:01:23 +0000";
layers = (
{
anchors = (
{
name = top;
position = "{1132, 1120}";
}
);
layerId = "D5D14868-B3D8-4E08-9530-062F6179E82D";
name = Bold;
paths = (
{
closed = 1;
nodes = (
"1786 821 LINE",
"1775 845 OFFCURVE",
"1758 869 OFFCURVE",
"1729 900 CURVE SMOOTH",
"1685 948 OFFCURVE",
"1626 972 OFFCURVE",
"1552 972 CURVE SMOOTH",
"1467 972 OFFCURVE",
"1399 948 OFFCURVE",
"1348 901 CURVE",
"1349 901 LINE",
"1318 872 OFFCURVE",
"1295 845 OFFCURVE",
"1280 820 CURVE"
);
},
{
closed = 1;
nodes = (
"2045 622 LINE",
"1257 622 LINE",
"1262 533 OFFCURVE",
"1271 462 OFFCURVE",
"1286 411 CURVE SMOOTH",
"1301 359 OFFCURVE",
"1321 324 OFFCURVE",
"1346 307 CURVE",
"1345 307 LINE",
"1403 268 OFFCURVE",
"1485 249 OFFCURVE",
"1590 249 CURVE SMOOTH",
"1713 249 OFFCURVE",
"1852 290 OFFCURVE",
"2005 371 CURVE",
"2005 65 LINE",
"1861 5 OFFCURVE",
"1718 -27 OFFCURVE",
"1581 -27 CURVE SMOOTH",
"1390 -27 OFFCURVE",
"1241 34 OFFCURVE",
"1133 153 CURVE",
"1085 88 OFFCURVE",
"1031 42 OFFCURVE",
"967 14 CURVE SMOOTH",
"902 -15 OFFCURVE",
"826 -27 OFFCURVE",
"738 -27 CURVE SMOOTH",
"577 -27 OFFCURVE",
"450 24 OFFCURVE",
"357 132 CURVE SMOOTH",
"266 235 OFFCURVE",
"221 378 OFFCURVE",
"221 559 CURVE SMOOTH",
"221 920 OFFCURVE",
"415 1145 OFFCURVE",
"738 1145 CURVE SMOOTH",
"909 1145 OFFCURVE",
"1041 1086 OFFCURVE",
"1130 967 CURVE",
"1234 1091 OFFCURVE",
"1373 1145 OFFCURVE",
"1550 1145 CURVE SMOOTH",
"1855 1145 OFFCURVE",
"2045 886 OFFCURVE",
"2045 743 CURVE SMOOTH"
);
},
{
closed = 1;
nodes = (
"577 953 OFFCURVE",
"477 830 OFFCURVE",
"477 619 CURVE SMOOTH",
"477 403 OFFCURVE",
"577 285 OFFCURVE",
"738 285 CURVE SMOOTH",
"898 285 OFFCURVE",
"999 408 OFFCURVE",
"999 619 CURVE SMOOTH",
"999 826 OFFCURVE",
"898 953 OFFCURVE",
"738 953 CURVE SMOOTH"
);
}
);
width = 2264;
}
);
unicode = 0153;
},
{
glyphname = Scedilla;
lastChange = "2012-06-02 17:01:23 +0000";
layers = (
{
layerId = "D5D14868-B3D8-4E08-9530-062F6179E82D";
name = Bold;
paths = (
{
closed = 1;
nodes = (
"1200 1162 LINE",
"1021 1246 OFFCURVE",
"884 1287 OFFCURVE",
"769 1287 CURVE SMOOTH",
"584 1287 OFFCURVE",
"480 1217 OFFCURVE",
"480 1092 CURVE SMOOTH",
"480 1040 OFFCURVE",
"494 1002 OFFCURVE",
"523 978 CURVE",
"522 979 LINE",
"556 950 OFFCURVE",
"622 927 OFFCURVE",
"719 909 CURVE SMOOTH",
"836 886 LINE",
"835 886 LINE",
"1142 827 OFFCURVE",
"1285 681 OFFCURVE",
"1285 429 CURVE SMOOTH",
"1285 130 OFFCURVE",
"1085 -28 OFFCURVE",
"704 -28 CURVE SMOOTH",
"565 -28 OFFCURVE",
"400 6 OFFCURVE",
"217 74 CURVE",
"217 468 LINE",
"406 363 OFFCURVE",
"565 308 OFFCURVE",
"704 308 CURVE SMOOTH",
"805 308 OFFCURVE",
"882 327 OFFCURVE",
"936 366 CURVE SMOOTH",
"985 401 OFFCURVE",
"1009 433 OFFCURVE",
"1009 462 CURVE SMOOTH",
"1009 489 OFFCURVE",
"990 518 OFFCURVE",
"957 550 CURVE",
"921 581 OFFCURVE",
"848 610 OFFCURVE",
"765 629 CURVE SMOOTH",
"648 652 LINE SMOOTH",
"347 709 OFFCURVE",
"212 840 OFFCURVE",
"212 1076 CURVE SMOOTH",
"212 1352 OFFCURVE",
"420 1519 OFFCURVE",
"747 1519 CURVE SMOOTH",
"883 1519 OFFCURVE",
"1034 1491 OFFCURVE",
"1200 1436 CURVE"
);
},
{
closed = 1;
nodes = (
"577 75 LINE",
"660 -20 OFFCURVE",
"699 -92 OFFCURVE",
"699 -163 CURVE SMOOTH",
"699 -300 OFFCURVE",
"611 -369 OFFCURVE",
"439 -369 CURVE SMOOTH",
"378 -369 OFFCURVE",
"313 -358 OFFCURVE",
"238 -338 CURVE",
"238 -125 LINE",
"314 -164 OFFCURVE",
"368 -179 OFFCURVE",
"420 -179 CURVE SMOOTH",
"469 -179 OFFCURVE",
"494 -162 OFFCURVE",
"494 -129 CURVE SMOOTH",
"494 -114 OFFCURVE",
"484 -89 OFFCURVE",
"465 -56 CURVE SMOOTH",
"445 -23 OFFCURVE",
"415 20 OFFCURVE",
"375 75 CURVE"
);
}
);
width = 1300;
}
);
unicode = 015E;
},
{
glyphname = scedilla;
lastChange = "2012-06-02 17:01:23 +0000";
layers = (
{
layerId = "D5D14868-B3D8-4E08-9530-062F6179E82D";
name = Bold;
paths = (
{
closed = 1;
nodes = (
"1032 847 LINE",
"903 912 OFFCURVE",
"786 945 OFFCURVE",
"681 945 CURVE SMOOTH",
"534 945 OFFCURVE",
"453 898 OFFCURVE",
"453 817 CURVE SMOOTH",
"453 784 OFFCURVE",
"465 757 OFFCURVE",
"490 738 CURVE",
"489 738 LINE",
"517 717 OFFCURVE",
"579 695 OFFCURVE",
"663 676 CURVE SMOOTH",
"672 674 OFFCURVE",
"682 672 OFFCURVE",
"692 669 CURVE SMOOTH",
"701 666 OFFCURVE",
"711 664 OFFCURVE",
"720 663 CURVE",
"848 636 OFFCURVE",
"942 595 OFFCURVE",
"998 548 CURVE SMOOTH",
"1055 497 OFFCURVE",
"1088 422 OFFCURVE",
"1088 326 CURVE SMOOTH",
"1088 107 OFFCURVE",
"903 -27 OFFCURVE",
"619 -27 CURVE SMOOTH",
"504 -27 OFFCURVE",
"369 -2 OFFCURVE",
"214 49 CURVE",
"214 389 LINE",
"372 307 OFFCURVE",
"508 266 OFFCURVE",
"622 266 CURVE SMOOTH",
"689 266 OFFCURVE",
"738 274 OFFCURVE",
"769 290 CURVE SMOOTH",
"800 305 OFFCURVE",
"817 329 OFFCURVE",
"818 360 CURVE",
"802 387 OFFCURVE",
"789 409 OFFCURVE",
"774 425 CURVE SMOOTH",
"763 436 OFFCURVE",
"709 453 OFFCURVE",
"612 474 CURVE SMOOTH",
"552 488 LINE",
"553 488 LINE",
"329 533 OFFCURVE",
"222 615 OFFCURVE",
"222 800 CURVE SMOOTH",
"222 1023 OFFCURVE",
"378 1145 OFFCURVE",
"661 1145 CURVE SMOOTH",
"793 1145 OFFCURVE",
"916 1124 OFFCURVE",
"1032 1077 CURVE"
);
},
{
closed = 1;
nodes = (
"461 75 LINE",
"544 -20 OFFCURVE",
"583 -92 OFFCURVE",
"583 -163 CURVE SMOOTH",
"583 -300 OFFCURVE",
"495 -369 OFFCURVE",
"323 -369 CURVE SMOOTH",
"262 -369 OFFCURVE",
"197 -358 OFFCURVE",
"122 -338 CURVE",
"122 -125 LINE",
"198 -164 OFFCURVE",
"252 -179 OFFCURVE",
"304 -179 CURVE SMOOTH",
"353 -179 OFFCURVE",
"378 -162 OFFCURVE",
"378 -129 CURVE SMOOTH",
"378 -114 OFFCURVE",
"368 -89 OFFCURVE",
"349 -56 CURVE SMOOTH",
"329 -23 OFFCURVE",
"299 20 OFFCURVE",
"259 75 CURVE"
);
}
);
width = 1067;
}
);
unicode = 015F;
},
{
glyphname = Scaron;
lastChange = "2012-06-02 17:01:23 +0000";
layers = (
{
layerId = "D5D14868-B3D8-4E08-9530-062F6179E82D";
name = Bold;
paths = (
{
closed = 1;
nodes = (
"1200 1162 LINE",
"1021 1246 OFFCURVE",
"884 1287 OFFCURVE",
"769 1287 CURVE SMOOTH",
"584 1287 OFFCURVE",
"480 1217 OFFCURVE",
"480 1092 CURVE SMOOTH",
"480 1040 OFFCURVE",
"494 1002 OFFCURVE",
"523 978 CURVE",
"522 979 LINE",
"556 950 OFFCURVE",
"622 927 OFFCURVE",
"719 909 CURVE SMOOTH",
"836 886 LINE",
"835 886 LINE",
"1142 827 OFFCURVE",
"1285 681 OFFCURVE",
"1285 429 CURVE SMOOTH",
"1285 130 OFFCURVE",
"1085 -28 OFFCURVE",
"704 -28 CURVE SMOOTH",
"565 -28 OFFCURVE",
"400 6 OFFCURVE",
"217 74 CURVE",
"217 468 LINE",
"406 363 OFFCURVE",
"565 308 OFFCURVE",
"704 308 CURVE SMOOTH",
"805 308 OFFCURVE",
"882 327 OFFCURVE",
"936 366 CURVE SMOOTH",
"985 401 OFFCURVE",
"1009 433 OFFCURVE",
"1009 462 CURVE SMOOTH",
"1009 489 OFFCURVE",
"990 518 OFFCURVE",
"957 550 CURVE",
"921 581 OFFCURVE",
"848 610 OFFCURVE",
"765 629 CURVE SMOOTH",
"648 652 LINE SMOOTH",
"347 709 OFFCURVE",
"212 840 OFFCURVE",
"212 1076 CURVE SMOOTH",
"212 1352 OFFCURVE",
"420 1519 OFFCURVE",
"747 1519 CURVE SMOOTH",
"883 1519 OFFCURVE",
"1034 1491 OFFCURVE",
"1200 1436 CURVE"
);
},
{
closed = 1;
nodes = (
"453 1551 LINE",
"197 1874 LINE",
"420 1874 LINE",
"560 1724 LINE",
"583 1749 OFFCURVE",
"607 1774 OFFCURVE",
"631 1800 CURVE SMOOTH",
"654 1826 OFFCURVE",
"677 1851 OFFCURVE",
"698 1874 CURVE",
"921 1874 LINE",
"664 1551 LINE"
);
}
);
width = 1300;
}
);
unicode = 0160;
},
{
glyphname = scaron;
lastChange = "2012-06-02 17:01:23 +0000";
layers = (
{
layerId = "D5D14868-B3D8-4E08-9530-062F6179E82D";
name = Bold;
paths = (
{
closed = 1;
nodes = (
"1032 847 LINE",
"903 912 OFFCURVE",
"786 945 OFFCURVE",
"681 945 CURVE SMOOTH",
"534 945 OFFCURVE",
"453 898 OFFCURVE",
"453 817 CURVE SMOOTH",
"453 784 OFFCURVE",
"465 757 OFFCURVE",
"490 738 CURVE",
"489 738 LINE",
"517 717 OFFCURVE",
"579 695 OFFCURVE",
"663 676 CURVE SMOOTH",
"672 674 OFFCURVE",
"682 672 OFFCURVE",
"692 669 CURVE SMOOTH",
"701 666 OFFCURVE",
"711 664 OFFCURVE",
"720 663 CURVE",
"848 636 OFFCURVE",
"942 595 OFFCURVE",
"998 548 CURVE SMOOTH",
"1055 497 OFFCURVE",
"1088 422 OFFCURVE",
"1088 326 CURVE SMOOTH",
"1088 107 OFFCURVE",
"903 -27 OFFCURVE",
"619 -27 CURVE SMOOTH",
"504 -27 OFFCURVE",
"369 -2 OFFCURVE",
"214 49 CURVE",
"214 389 LINE",
"372 307 OFFCURVE",
"508 266 OFFCURVE",
"622 266 CURVE SMOOTH",
"689 266 OFFCURVE",
"738 274 OFFCURVE",
"769 290 CURVE SMOOTH",
"800 305 OFFCURVE",
"817 329 OFFCURVE",
"818 360 CURVE",
"802 387 OFFCURVE",
"789 409 OFFCURVE",
"774 425 CURVE SMOOTH",
"763 436 OFFCURVE",
"709 453 OFFCURVE",
"612 474 CURVE SMOOTH",
"552 488 LINE",
"553 488 LINE",
"329 533 OFFCURVE",
"222 615 OFFCURVE",
"222 800 CURVE SMOOTH",
"222 1023 OFFCURVE",
"378 1145 OFFCURVE",
"661 1145 CURVE SMOOTH",
"793 1145 OFFCURVE",
"916 1124 OFFCURVE",
"1032 1077 CURVE"
);
},
{
closed = 1;
nodes = (
"349 1178 LINE",
"72 1603 LINE",
"290 1603 LINE",
"439 1400 LINE",
"488 1468 OFFCURVE",
"541 1540 OFFCURVE",
"588 1603 CURVE",
"806 1603 LINE",
"529 1178 LINE"
);
}
);
width = 1067;
}
);
unicode = 0161;
},
{
glyphname = Ydieresis;
lastChange = "2012-06-02 17:01:23 +0000";
layers = (
{
layerId = "D5D14868-B3D8-4E08-9530-062F6179E82D";
name = Bold;
paths = (
{
closed = 1;
nodes = (
"32 1493 LINE",
"323 1493 LINE",
"693 809 LINE",
"1060 1493 LINE",
"1351 1493 LINE",
"854 513 LINE",
"854 0 LINE",
"519 0 LINE",
"519 513 LINE"
);
},
{
closed = 1;
nodes = (
"786 1845 LINE",
"1050 1845 LINE",
"1050 1581 LINE",
"786 1581 LINE"
);
},
{
closed = 1;
nodes = (
"421 1845 LINE",
"686 1845 LINE",
"686 1581 LINE",
"421 1581 LINE"
);
}
);
width = 1251;
}
);
unicode = 0178;
},
{
glyphname = Zcaron;
lastChange = "2012-06-02 17:01:23 +0000";
layers = (
{
layerId = "D5D14868-B3D8-4E08-9530-062F6179E82D";
name = Bold;
paths = (
{
closed = 1;
nodes = (
"294 1493 LINE",
"1483 1493 LINE",
"1483 1294 LINE",
"635 361 LINE",
"1505 361 LINE",
"1505 0 LINE",
"272 0 LINE",
"272 323 LINE",
"1120 1256 LINE",
"294 1256 LINE"
);
},
{
closed = 1;
nodes = (
"504 1551 LINE",
"248 1874 LINE",
"471 1874 LINE",
"611 1724 LINE",
"634 1749 OFFCURVE",
"658 1774 OFFCURVE",
"682 1800 CURVE SMOOTH",
"705 1826 OFFCURVE",
"728 1851 OFFCURVE",
"749 1874 CURVE",
"972 1874 LINE",
"715 1551 LINE"
);
}
);
width = 1403;
}
);
unicode = 017D;
},
{
glyphname = zcaron;
lastChange = "2012-06-02 17:01:23 +0000";
layers = (
{
layerId = "D5D14868-B3D8-4E08-9530-062F6179E82D";
name = Bold;
paths = (
{
closed = 1;
nodes = (
"309 1120 LINE",
"1190 1120 LINE",
"1190 911 LINE",
"646 305 LINE",
"1180 305 LINE",
"1180 0 LINE",
"267 0 LINE",
"267 302 LINE",
"880 917 LINE",
"309 917 LINE"
);
},
{
closed = 1;
nodes = (
"353 1178 LINE",
"76 1603 LINE",
"294 1603 LINE",
"443 1400 LINE",
"492 1468 OFFCURVE",
"545 1540 OFFCURVE",
"592 1603 CURVE",
"810 1603 LINE",
"533 1178 LINE"
);
}
);
width = 1075;
}
);
unicode = 017E;
},
{
glyphname = florin;
lastChange = "2012-06-02 17:01:23 +0000";
layers = (
{
layerId = "D5D14868-B3D8-4E08-9530-062F6179E82D";
name = Bold;
paths = (
{
closed = 1;
nodes = (
"1248 1246 LINE",
"1165 1310 OFFCURVE",
"1106 1337 OFFCURVE",
"1059 1337 CURVE SMOOTH",
"964 1337 OFFCURVE",
"903 1268 OFFCURVE",
"876 1131 CURVE SMOOTH",
"830 869 LINE",
"851 870 OFFCURVE",
"872 872 OFFCURVE",
"895 874 CURVE",
"918 875 OFFCURVE",
"940 877 OFFCURVE",
"963 879 CURVE",
"986 880 OFFCURVE",
"1008 882 OFFCURVE",
"1029 884 CURVE",
"1050 885 OFFCURVE",
"1070 887 OFFCURVE",
"1089 888 CURVE",
"1089 679 LINE",
"789 660 LINE",
"731 238 LINE SMOOTH",
"699 13 OFFCURVE",
"639 -162 OFFCURVE",
"555 -254 CURVE",
"556 -254 LINE",
"468 -350 OFFCURVE",
"361 -398 OFFCURVE",
"234 -398 CURVE SMOOTH",
"157 -398 OFFCURVE",
"84 -381 OFFCURVE",
"1 -342 CURVE",
"73 36 LINE",
"162 -21 OFFCURVE",
"231 -49 OFFCURVE",
"282 -49 CURVE SMOOTH",
"331 -49 OFFCURVE",
"368 -32 OFFCURVE",
"393 1 CURVE",
"425 40 OFFCURVE",
"450 108 OFFCURVE",
"469 203 CURVE",
"468 202 LINE",
"480 285 OFFCURVE",
"490 356 OFFCURVE",
"501 428 CURVE SMOOTH",
"512 500 OFFCURVE",
"522 571 OFFCURVE",
"534 654 CURVE",
"309 637 LINE",
"309 846 LINE",
"576 864 LINE",
"629 1144 LINE SMOOTH",
"677 1393 OFFCURVE",
"816 1527 OFFCURVE",
"1025 1527 CURVE SMOOTH",
"1096 1527 OFFCURVE",
"1171 1512 OFFCURVE",
"1248 1481 CURVE"
);
}
);
width = 1249;
}
);
unicode = 0192;
},
{
glyphname = circumflex;
lastChange = "2012-06-02 17:01:23 +0000";
layers = (
{
anchors = (
{
name = _top;
position = "{419, 1120}";
}
);
layerId = "D5D14868-B3D8-4E08-9530-062F6179E82D";
name = Bold;
paths = (
{
closed = 1;
nodes = (
"329 1603 LINE",
"509 1603 LINE",
"786 1178 LINE",
"568 1178 LINE",
"419 1381 LINE",
"394 1347 OFFCURVE",
"368 1313 OFFCURVE",
"343 1278 CURVE SMOOTH",
"318 1243 OFFCURVE",
"293 1209 OFFCURVE",
"270 1178 CURVE",
"52 1178 LINE"
);
}
);
width = 837;
}
);
unicode = 02C6;
},
{
glyphname = caron;
lastChange = "2012-06-02 17:01:23 +0000";
layers = (
{
anchors = (
{
name = _top;
position = "{416, 1120}";
}
);
layerId = "D5D14868-B3D8-4E08-9530-062F6179E82D";
name = Bold;
paths = (
{
closed = 1;
nodes = (
"326 1178 LINE",
"49 1603 LINE",
"267 1603 LINE",
"416 1400 LINE",
"465 1468 OFFCURVE",
"518 1540 OFFCURVE",
"565 1603 CURVE",
"783 1603 LINE",
"506 1178 LINE"
);
}
);
width = 831;
}
);
unicode = 02C7;
},
{
glyphname = breve;
lastChange = "2012-06-02 17:01:23 +0000";
layers = (
{
anchors = (
{
name = _top;
position = "{480, 1120}";
}
);
layerId = "D5D14868-B3D8-4E08-9530-062F6179E82D";
name = Bold;
paths = (
{
closed = 1;
nodes = (
"331 1575 LINE",
"345 1482 OFFCURVE",
"395 1435 OFFCURVE",
"480 1435 CURVE SMOOTH",
"568 1435 OFFCURVE",
"615 1480 OFFCURVE",
"631 1575 CURVE",
"812 1575 LINE",
"796 1347 OFFCURVE",
"684 1233 OFFCURVE",
"480 1233 CURVE SMOOTH",
"275 1233 OFFCURVE",
"164 1347 OFFCURVE",
"148 1575 CURVE"
);
}
);
width = 958;
}
);
unicode = 02D8;
},
{
glyphname = dotaccent;
lastChange = "2012-06-02 17:01:23 +0000";
layers = (
{
anchors = (
{
name = _top;
position = "{438.5, 1120}";
}
);
layerId = "D5D14868-B3D8-4E08-9530-062F6179E82D";
name = Bold;
paths = (
{
closed = 1;
nodes = (
"306 1523 LINE",
"571 1523 LINE",
"571 1258 LINE",
"306 1258 LINE"
);
}
);
width = 869;
}
);
unicode = 02D9;
},
